<svg xmlns="http://www.w3.org/2000/svg" viewBox="0 0 42.3 91.51"><defs><style>.cls-1{fill:#d8d8d8;}</style></defs><g id="Capa_2" data-name="Capa 2"><g id="Imágenes"><path class="cls-1" d="M7.22,2.15a1.67,1.67,0,0,0-1.34-.58,2.11,2.11,0,0,0-2,2.28,2.1,2.1,0,0,0,2,2.28,1.69,1.69,0,0,0,1.46-.76l1.3,1A3.09,3.09,0,0,1,6,7.57,3.59,3.59,0,0,1,2.21,3.85,3.59,3.59,0,0,1,6,.13a3,3,0,0,1,2.39,1Z"/><path class="cls-1" d="M10.2,2.41a.92.92,0,1,1-.92.92A.92.92,0,0,1,10.2,2.41Zm0,3.2a.92.92,0,1,1-.92.92A.92.92,0,0,1,10.2,5.61Z"/><path class="cls-1" d="M0,12.31H2.36L4,16.93H4l1.64-4.62H8v7.08H6.44V14h0L4.56,19.39H3.37L1.58,14h0v5.43H0Z"/><path class="cls-1" d="M10.2,14.41a.92.92,0,1,1-.92.92A.92.92,0,0,1,10.2,14.41Zm0,3.2a.92.92,0,1,1-.92.92A.92.92,0,0,1,10.2,17.61Z"/><path class="cls-1" d="M5.62,28.37,3,24.31H4.9L6.4,27,8,24.31H9.84L7.18,28.37v3H5.62Z"/><path class="cls-1" d="M10.2,26.41a.92.92,0,1,1-.92.92A.92.92,0,0,1,10.2,26.41Zm0,3.2a.92.92,0,1,1-.92.92A.92.92,0,0,1,10.2,29.61Z"/><path class="cls-1" d="M2.28,36.31H3.84v2.94l2.75-2.94h2L5.48,39.6,8.9,43.39H6.72L3.84,40v3.36H2.28Z"/><path class="cls-1" d="M10.2,38.41a.92.92,0,1,1-.92.92A.92.92,0,0,1,10.2,38.41Zm0,3.2a.92.92,0,1,1-.92.92A.92.92,0,0,1,10.2,41.61Z"/><path class="cls-1" d="M3,60.31H5.7c1.45,0,2.67.5,2.67,2.15A1.82,1.82,0,0,1,6.84,64.4l1.8,3H6.77L5.29,64.56H4.52v2.83H3Zm1.56,2.93h.92c.57,0,1.31,0,1.31-.79s-.64-.82-1.21-.82h-1Z"/><path class="cls-1" d="M10.2,62.41a.92.92,0,1,1-.92.92A.92.92,0,0,1,10.2,62.41Zm0,3.2a.92.92,0,1,1-.92.92A.92.92,0,0,1,10.2,65.61Z"/><path class="cls-1" d="M8.07,78.89a6.35,6.35,0,0,1-3,.68,3.72,3.72,0,1,1,0-7.44A4,4,0,0,1,7.92,73l-1.1,1.2a2.18,2.18,0,0,0-1.72-.67,2.28,2.28,0,0,0,0,4.56,3.05,3.05,0,0,0,1.47-.35V76.63H5.3V75.19H8.07Z"/><path class="cls-1" d="M10.2,74.41a.92.92,0,1,1-.92.92A.92.92,0,0,1,10.2,74.41Zm0,3.2a.92.92,0,1,1-.92.92A.92.92,0,0,1,10.2,77.61Z"/><path class="cls-1" d="M3,84.31H5.6c1.24,0,2.59.26,2.59,1.8A1.59,1.59,0,0,1,7,87.67v0a1.7,1.7,0,0,1,1.55,1.73c0,1.48-1.4,2-2.66,2H3Zm1.56,2.83H5.65c.48,0,1-.2,1-.77s-.56-.74-1-.74H4.52Zm0,2.93h1.4c.49,0,1-.21,1-.83s-.75-.78-1.26-.78H4.52Z"/><path class="cls-1" d="M10.2,86.41a.92.92,0,1,1-.92.92A.92.92,0,0,1,10.2,86.41Zm0,3.2a.92.92,0,1,1-.92.92A.92.92,0,0,1,10.2,89.61Z"/><path class="cls-1" d="M22.86,3.85c0,1.57-.37,3.66-2.4,3.66s-2.4-2.09-2.4-3.66S18.43.19,20.46.19,22.86,2.28,22.86,3.85Zm-4.08,0c0,1.12.14,3,1.68,3s1.68-1.88,1.68-3-.14-3-1.68-3S18.78,2.73,18.78,3.85Z"/><path class="cls-1" d="M25.38,3.69a1.74,1.74,0,0,1-1.76-1.75,1.76,1.76,0,0,1,3.52,0A1.74,1.74,0,0,1,25.38,3.69Zm0-2.9a1.15,1.15,0,1,0,1.16,1.15A1.15,1.15,0,0,0,25.38.79Zm0,6.91-.52-.27L29.4,0l.51.27Zm4-.19a1.75,1.75,0,1,1,1.75-1.75A1.74,1.74,0,0,1,29.43,7.51Zm0-2.9a1.15,1.15,0,1,0,1.15,1.15A1.15,1.15,0,0,0,29.43,4.61Z"/><path class="cls-1" d="M22.86,15.85c0,1.57-.37,3.66-2.4,3.66s-2.4-2.09-2.4-3.66.37-3.66,2.4-3.66S22.86,14.28,22.86,15.85Zm-4.08,0c0,1.12.14,3,1.68,3s1.68-1.88,1.68-3-.14-3-1.68-3S18.78,14.73,18.78,15.85Z"/><path class="cls-1" d="M25.38,15.69a1.75,1.75,0,1,1,1.76-1.75A1.74,1.74,0,0,1,25.38,15.69Zm0-2.9a1.15,1.15,0,1,0,1.16,1.15A1.15,1.15,0,0,0,25.38,12.79Zm0,6.91-.52-.27L29.4,12l.51.27Zm4-.19a1.75,1.75,0,1,1,1.75-1.75A1.74,1.74,0,0,1,29.43,19.51Zm0-2.9a1.15,1.15,0,1,0,1.15,1.15A1.15,1.15,0,0,0,29.43,16.61Z"/><path class="cls-1" d="M22.86,27.85c0,1.57-.37,3.66-2.4,3.66s-2.4-2.09-2.4-3.66.37-3.66,2.4-3.66S22.86,26.28,22.86,27.85Zm-4.08,0c0,1.12.14,3,1.68,3s1.68-1.88,1.68-3-.14-3-1.68-3S18.78,26.73,18.78,27.85Z"/><path class="cls-1" d="M25.38,27.69a1.75,1.75,0,1,1,1.76-1.75A1.74,1.74,0,0,1,25.38,27.69Zm0-2.9a1.15,1.15,0,1,0,1.16,1.15A1.15,1.15,0,0,0,25.38,24.79Zm0,6.91-.52-.27L29.4,24l.51.27Zm4-.19a1.75,1.75,0,1,1,1.75-1.75A1.74,1.74,0,0,1,29.43,31.51Zm0-2.9a1.15,1.15,0,1,0,1.15,1.15A1.15,1.15,0,0,0,29.43,28.61Z"/><path class="cls-1" d="M21.16,43.39h-.72V37.21l-1.27,1.12-.45-.54,1.8-1.48h.64Z"/><path class="cls-1" d="M28.42,39.85c0,1.57-.37,3.66-2.4,3.66s-2.4-2.09-2.4-3.66S24,36.19,26,36.19,28.42,38.28,28.42,39.85Zm-4.08,0c0,1.12.14,3,1.68,3s1.68-1.88,1.68-3-.14-3-1.68-3S24.34,38.73,24.34,39.85Z"/><path class="cls-1" d="M34,39.85c0,1.57-.37,3.66-2.4,3.66s-2.4-2.09-2.4-3.66.37-3.66,2.4-3.66S34,38.28,34,39.85Zm-4.08,0c0,1.12.14,3,1.68,3s1.68-1.88,1.68-3-.14-3-1.68-3S29.9,38.73,29.9,39.85Z"/><path class="cls-1" d="M36.5,39.69a1.75,1.75,0,1,1,1.76-1.75A1.74,1.74,0,0,1,36.5,39.69Zm0-2.9a1.15,1.15,0,1,0,1.16,1.15A1.15,1.15,0,0,0,36.5,36.79Zm0,6.91L36,43.43,40.51,36l.51.27Zm4-.19a1.75,1.75,0,1,1,1.76-1.75A1.73,1.73,0,0,1,40.54,43.51Zm0-2.9a1.15,1.15,0,1,0,1.16,1.15A1.14,1.14,0,0,0,40.54,40.61Z"/><path class="cls-1" d="M22.86,63.85c0,1.57-.37,3.66-2.4,3.66s-2.4-2.09-2.4-3.66.37-3.66,2.4-3.66S22.86,62.28,22.86,63.85Zm-4.08,0c0,1.12.14,3,1.68,3s1.68-1.88,1.68-3-.14-3-1.68-3S18.78,62.73,18.78,63.85Z"/><path class="cls-1" d="M22.86,75.85c0,1.57-.37,3.66-2.4,3.66s-2.4-2.09-2.4-3.66.37-3.66,2.4-3.66S22.86,74.28,22.86,75.85Zm-4.08,0c0,1.12.14,3,1.68,3s1.68-1.88,1.68-3-.14-3-1.68-3S18.78,74.73,18.78,75.85Z"/><path class="cls-1" d="M22.86,87.85c0,1.57-.37,3.66-2.4,3.66s-2.4-2.09-2.4-3.66.37-3.66,2.4-3.66S22.86,86.28,22.86,87.85Zm-4.08,0c0,1.12.14,3,1.68,3s1.68-1.88,1.68-3-.14-3-1.68-3S18.78,86.73,18.78,87.85Z"/></g></g></svg>