<svg xmlns="http://www.w3.org/2000/svg" viewBox="0 0 182 182"><defs><style>.cls-1{fill:#9e9411;}</style></defs><g id="Capa_2" data-name="Capa 2"><g id="Imágenes"><rect width="182" height="182"/><g id="Capa_2-2" data-name="Capa 2"><path class="cls-1" d="M130.84,28.32c-2.29,3.36-5.4,5.42-8.13,5.42a4.83,4.83,0,0,1-2.09-.46c-2.73-1.28-3.85-5-3.13-9.23-1.88,3.18-4.55,5.19-7.11,5.19a5.27,5.27,0,0,1-1.24-.16c-2.91-.79-4.66-4.26-4.68-8.55C103,24.37,100.37,27,97.53,27h-.42l-.2,0c-2.84-.42-5-4.39-5.64-9.85A32.63,32.63,0,0,1,91,13.16l0-.22c0,.09,0,.18,0,.26A33.33,33.33,0,0,1,90.75,17c-.68,5.48-2.8,9.47-5.65,9.88l-.2,0-.2,0h-.21c-2.85,0-5.5-2.59-6.94-6.43,0,4.3-1.77,7.77-4.68,8.55a4.8,4.8,0,0,1-1.24.16c-2.57,0-5.24-2-7.12-5.19.73,4.23-.39,8-3.12,9.24a4.85,4.85,0,0,1-2.09.45c-2.74,0-5.85-2.06-8.14-5.41l3.58,15.3A11.57,11.57,0,0,1,57,41a26.26,26.26,0,0,1,8.25-4.62c6.91-2.59,16-4,25.74-4s18.82,1.43,25.73,4A26.44,26.44,0,0,1,125,41a12.09,12.09,0,0,1,2.28,2.66l3.56-15.3Z"/><path class="cls-1" d="M121.55,31.29a2.74,2.74,0,0,0,1.16.24,6.54,6.54,0,0,0,4-1.83,13.62,13.62,0,0,1-3.86-1.17,14,14,0,0,1-3.37-2.22C119.44,28.74,120.19,30.65,121.55,31.29Z"/><path class="cls-1" d="M109.72,27a2.39,2.39,0,0,0,.66.08c1.31,0,2.82-1,4.13-2.54a14.09,14.09,0,0,1-4-.48,14,14,0,0,1-3.7-1.6C107.19,24.81,108.27,26.56,109.72,27Z"/><path class="cls-1" d="M97.23,24.73h.29c1.42,0,3-1.26,4.07-3.27a13.77,13.77,0,0,1-4,.23,14.21,14.21,0,0,1-3.15-.65C95.23,23.32,96.32,24.6,97.23,24.73Z"/><path class="cls-1" d="M84.48,24.75h.29c.91-.14,2-1.42,2.81-3.68a13.56,13.56,0,0,1-3.15.65,13.43,13.43,0,0,1-4-.23C81.54,23.49,83.06,24.75,84.48,24.75Z"/><path class="cls-1" d="M71.62,27a3,3,0,0,0,.67-.08c1.45-.39,2.52-2.14,2.9-4.54a14,14,0,0,1-7.69,2.08C68.8,26.07,70.31,27,71.62,27Z"/><path class="cls-1" d="M60.45,31.29c1.36-.64,2.11-2.54,2.07-5a14,14,0,0,1-3.37,2.22,13.62,13.62,0,0,1-3.86,1.17,6.54,6.54,0,0,0,4,1.83A2.77,2.77,0,0,0,60.45,31.29Z"/><path class="cls-1" d="M51.38,66.66l17.8-8.49L91,47.76l21.82,10.41,17.8,8.49q.16,3.82.15,7.58h4.41c0-3.34-.08-6.82-.3-10.43L118.57,56c4.84-2.27,7.73-5.14,7.73-8.27,0-7.31-15.81-13.23-35.3-13.23S55.7,40.45,55.7,47.76c0,3.13,2.89,6,7.73,8.27L47.12,63.81q-.33,5.41-.31,10.43h4.41Q51.22,70.49,51.38,66.66Z"/><path class="cls-1" d="M27.36,118.27v-1.83H35V82.31c0-1.34-.92-1.82-2.38-1.82H27.36V78.66h5.23c3.77,0,7.55-.54,11.32-.85v38.63h7.36v1.83Z"/><path class="cls-1" d="M73.8,97.52c5.66.91,12.78,3.84,12.78,10.65,0,5.72-5,11-16.19,11s-16.18-5.29-16.18-11c0-6.81,7.12-9.74,12.78-10.65V97.4c-6.88-1.52-11.32-4-11.32-9.67,0-6.94,8.58-9.92,14.72-9.92,5.84,0,14.73,3,14.73,9.92,0,6.44-6.09,8.82-11.2,9.67Zm-9.31,14c0,4.57,1.89,6,5.91,6s5.9-1.46,5.9-6v-6.51c-.06-1.28-1.16-6.32-5.9-6.32s-5.91,5-5.91,6.32ZM65.65,91.8c0,4,2.07,4.93,4.74,4.93s4.75-1,4.75-4.93v-7c0-3.71-1.16-5.36-4.75-5.36S65.65,81,65.65,84.75Z"/><path class="cls-1" d="M91,118.27v-1.83h7.6V82.31c0-1.34-.91-1.82-2.37-1.82H91V78.66h5.23c3.77,0,7.54-.54,11.32-.85v38.63h7.36v1.83Z"/><path class="cls-1" d="M150.19,98c0,9.12-6.33,21.17-16.37,21.17S117.46,107.13,117.46,98c0-8.76,6.63-20.2,16.36-20.2S150.19,89.25,150.19,98ZM139.48,87.24c0-6.94-2.56-7.85-5.66-7.85s-5.59.91-5.66,7.85V108.9c-.06,6.57,2.13,8.7,5.66,8.7s5.66-2.14,5.66-8.7Z"/><path class="cls-1" d="M24.86,98.43a2.24,2.24,0,1,1-4.48,0c0-1.23,2.24-6.54,2.24-6.54S24.86,97.2,24.86,98.43Z"/><path class="cls-1" d="M157.14,98.43a2.24,2.24,0,1,0,4.48,0c0-1.23-2.24-6.54-2.24-6.54S157.14,97.2,157.14,98.43Z"/><path class="cls-1" d="M117.07,134.54a72,72,0,0,0,7.61-11.77h-4.75a64.39,64.39,0,0,1-7.78,11.14,185.45,185.45,0,0,0-42.3,0,64.47,64.47,0,0,1-7.78-11.13H57.32a71.94,71.94,0,0,0,7.62,11.76,182.9,182.9,0,0,0-27.77,6.18l5.63,14.44a168.39,168.39,0,0,1,37.52-6.68A43.79,43.79,0,0,0,91,153.66a43.94,43.94,0,0,0,10.69-5.18,167.72,167.72,0,0,1,37.51,6.67l5.64-14.44A181.94,181.94,0,0,0,117.07,134.54ZM51.53,147.91l-1.67.42c-.14,0-.46-.15-1-.55A23,23,0,0,1,47,146l-.22.07-.52.12.53,2.08a1.28,1.28,0,0,0,.16.41.29.29,0,0,0,.22.13,1.45,1.45,0,0,0,.45-.06s0,0,0,.05,0,0,0,.06l-.49.11-.72.17-.68.19-.51.14s0,0,0-.05,0-.06,0-.07a1.59,1.59,0,0,0,.42-.15.33.33,0,0,0,.14-.24,1.59,1.59,0,0,0,0-.43l-1.11-4.35a1.24,1.24,0,0,0-.15-.4.3.3,0,0,0-.23-.14,1.45,1.45,0,0,0-.45.06s0,0,0,0,0-.06,0-.06l.5-.12.7-.15c.21-.06.43-.12.66-.2l.3-.1.41-.11a2.38,2.38,0,0,1,1.4,0,1,1,0,0,1,.69.76,1.62,1.62,0,0,1,0,1,2.19,2.19,0,0,1-.58.87q1,.93,1.71,1.44a5.18,5.18,0,0,0,1.14.71,1.33,1.33,0,0,0,.84.09s0,0,0,.05S51.55,147.9,51.53,147.91Zm4.53-1S56,147,56,147l-4.19.91s0,0,0-.05,0-.06,0-.06a2,2,0,0,0,.43-.14.31.31,0,0,0,.14-.23,1.19,1.19,0,0,0,0-.43l-1-4.39a1.36,1.36,0,0,0-.14-.41A.3.3,0,0,0,51,142a1.31,1.31,0,0,0-.45,0s0,0,0-.05,0-.06,0-.06l4-.87c.06,0,.1,0,.11.06l.29,1.26s0,0,0,0-.06,0-.07,0a1.46,1.46,0,0,0-.69-.7,1.51,1.51,0,0,0-1-.06l-.29.06a.61.61,0,0,0-.39.21.55.55,0,0,0-.05.41l.42,1.93.79-.17a1.61,1.61,0,0,0,.8-.37.61.61,0,0,0,.18-.59s0,0,0,0,.06,0,.06,0l.18.86.11.45c.06.21.1.38.13.51s0,0-.06,0H55a.72.72,0,0,0-.43-.55,1.4,1.4,0,0,0-.9,0l-.78.17.46,2.14a.65.65,0,0,0,.2.39.41.41,0,0,0,.36.06l.31-.07a2.16,2.16,0,0,0,1.12-.56,1.84,1.84,0,0,0,.45-1.08s0,0,0,0h.06a0,0,0,0,1,0,0,11.62,11.62,0,0,0,.2,1.36A.16.16,0,0,1,56.06,146.91Zm4.5-1.54a1.75,1.75,0,0,1-.63.73,2.55,2.55,0,0,1-1,.42,4,4,0,0,1-.92,0,1.74,1.74,0,0,1-.68-.14.18.18,0,0,1-.08-.06.19.19,0,0,1-.05-.11l-.31-1.51h0s0,0,0,0a0,0,0,0,1,.06,0c.27.35.49.63.68.85a2.61,2.61,0,0,0,.66.53,1.13,1.13,0,0,0,.8.14.92.92,0,0,0,.59-.32.89.89,0,0,0,.12-.75,1.46,1.46,0,0,0-.32-.7A1.94,1.94,0,0,0,59,144c-.21-.11-.49-.24-.83-.39a7.43,7.43,0,0,1-.81-.37,2.13,2.13,0,0,1-.53-.43,1.35,1.35,0,0,1-.31-.66,1.28,1.28,0,0,1,.14-.91,1.76,1.76,0,0,1,.65-.65,2.89,2.89,0,0,1,.93-.35,3.85,3.85,0,0,1,.69-.06,3.09,3.09,0,0,1,.58,0,.4.4,0,0,1,.13.06.28.28,0,0,1,0,.11l.26,1.4a.05.05,0,0,1,0,0s0,0-.06,0l-.11-.17a4.16,4.16,0,0,0-.75-.92,1.07,1.07,0,0,0-1-.25.94.94,0,0,0-.58.33.84.84,0,0,0-.13.69,1.12,1.12,0,0,0,.3.58,1.84,1.84,0,0,0,.52.38q.28.15.78.36a6.71,6.71,0,0,1,.86.39,2,2,0,0,1,.59.47,1.44,1.44,0,0,1,.35.72A1.67,1.67,0,0,1,60.56,145.37Zm5.83-4.58a0,0,0,0,1-.06,0,2,2,0,0,0-.71-1,1.34,1.34,0,0,0-1-.22.48.48,0,0,0-.35.17.76.76,0,0,0,0,.47l.67,4.42A1,1,0,0,0,65,145a.29.29,0,0,0,.24.15,1.73,1.73,0,0,0,.53,0s0,0,0,.05,0,.06,0,.07l-.55.07-.8.11-.77.13-.56.1s0,0,0-.06,0,0,0-.06a1.85,1.85,0,0,0,.51-.13.31.31,0,0,0,.2-.22,1,1,0,0,0,0-.43l-.68-4.44a.85.85,0,0,0-.16-.43.41.41,0,0,0-.37-.06q-1.14.18-1.41,1.74s0,0-.05,0,0,0-.06,0c0-.25,0-.59-.06-1s-.06-.72-.09-.92c0,0,0-.05,0-.06s.06,0,.06,0,.22.18.58.13l1.93-.27c.38-.06.78-.12,1.2-.2l.65-.11a2.26,2.26,0,0,0,.52-.13.3.3,0,0,0,.19-.22s0-.05.06-.05,0,0,0,0c0,.19,0,.5.08.93l.12,1S66.42,140.79,66.39,140.79Zm7.31,3.46-.6.06-.61.05-.58.09-.52.08s0,0,0-.05,0-.06,0-.07a.83.83,0,0,0,.35-.09.19.19,0,0,0,.09-.2,1.44,1.44,0,0,0-.26-.53l-.81-1.22-2.37.28-.27.89a1.27,1.27,0,0,0-.07.53.66.66,0,0,0,.31.51,1,1,0,0,0,.69.11,0,0,0,0,1,0,.05.05.05,0,0,1,0,.07l-.5,0a5.18,5.18,0,0,0-.64.06l-.62.09-.53.08s0,0-.05-.05,0-.06,0-.06a.83.83,0,0,0,.44-.17,1.14,1.14,0,0,0,.32-.44,7.45,7.45,0,0,0,.34-.89l1.54-4.84a.09.09,0,0,1,.08,0c.05,0,.08,0,.09,0l3,4.45a5.11,5.11,0,0,0,.68.88.62.62,0,0,0,.49.2s0,0,0,.05S73.73,144.25,73.7,144.25Zm5.75-6.42a.67.67,0,0,0-.57.35,1.43,1.43,0,0,0-.14.84L79,141.7a2.34,2.34,0,0,1-.21,1.22,2,2,0,0,1-.78.85,2.7,2.7,0,0,1-1.24.38,2.85,2.85,0,0,1-1.29-.17,2.11,2.11,0,0,1-.93-.71,2.42,2.42,0,0,1-.41-1.19L73.85,139a1.33,1.33,0,0,0-.09-.42.34.34,0,0,0-.21-.18,1.51,1.51,0,0,0-.44,0s0,0,0-.06,0-.06,0-.06l.51,0,.71,0,.73-.08.49-.05s0,0,0,.06,0,0,0,.06a1,1,0,0,0-.43.09.37.37,0,0,0-.18.21,1.42,1.42,0,0,0,0,.44l.23,2.76a2.68,2.68,0,0,0,.59,1.67,1.57,1.57,0,0,0,1.33.44,1.63,1.63,0,0,0,1.22-.59,2,2,0,0,0,.34-1.43l-.22-2.7a1.27,1.27,0,0,0-.31-.8.79.79,0,0,0-.68-.25s0,0,0-.05,0-.06,0-.06l.46,0,.59,0,.53-.06.45,0s0,0,0,.06S79.46,137.83,79.45,137.83ZM91,149c-.55-.2-1.29-.48-2.18-.87h4.36C92.29,148.55,91.55,148.83,91,149Zm2.64-5.61H93c-.28,0-.48,0-.61,0l-.59,0-.52,0s0,0,0-.06,0-.06,0-.06a1,1,0,0,0,.36,0,.19.19,0,0,0,.11-.2,1.41,1.41,0,0,0-.2-.55l-.66-1.3H88.53l-.37.85a1.15,1.15,0,0,0-.12.52.64.64,0,0,0,.25.54,1,1,0,0,0,.66.19s0,0,0,.06,0,.06,0,.06l-.5,0-.64,0-.63,0h-.32l-1.73.08c-.14,0-.42-.24-.82-.74a23.4,23.4,0,0,1-1.5-2.09l-.23,0h-.53l.1,2.14a1.44,1.44,0,0,0,.06.44.31.31,0,0,0,.2.17,1.43,1.43,0,0,0,.45,0s0,0,0,.06,0,.06,0,.06h-.51l-.73,0-.71,0c-.13,0-.3,0-.52,0,0,0,0,0,0,0s0-.06,0-.06a1.4,1.4,0,0,0,.45-.07.3.3,0,0,0,.18-.2,1,1,0,0,0,0-.43l-.19-4.49a1.29,1.29,0,0,0-.07-.42.32.32,0,0,0-.2-.18,1.37,1.37,0,0,0-.45,0s0,0,0,0,0-.06,0-.06l.52,0h.71c.21,0,.44,0,.68-.05l.32,0,.42,0a2.54,2.54,0,0,1,1.38.27,1,1,0,0,1,.52.89,1.64,1.64,0,0,1-.25,1,2.16,2.16,0,0,1-.74.73c.55.75,1,1.34,1.37,1.76a5.25,5.25,0,0,0,1,.92,1.43,1.43,0,0,0,.73.27.81.81,0,0,0,.32-.11,1.21,1.21,0,0,0,.37-.4,7.19,7.19,0,0,0,.43-.85L90,137.34s0,0,.09,0,.08,0,.09,0l2.44,4.76a5.24,5.24,0,0,0,.57,1,.65.65,0,0,0,.47.26,0,0,0,0,1,0,.05S93.67,143.42,93.64,143.42Zm7.11-5.7a.71.71,0,0,0-.62.28,1.39,1.39,0,0,0-.25.81l-.17,5a0,0,0,0,1,0,0,.08.08,0,0,1-.07,0l-4.36-5.33-.13,3.77a1.45,1.45,0,0,0,.18.82.71.71,0,0,0,.58.32s0,0,0,.06,0,.06,0,.06l-.42,0-.52,0H93.85s0,0,0-.06,0-.06,0-.06a.81.81,0,0,0,.68-.28,1.28,1.28,0,0,0,.28-.8l.14-4.1a2.56,2.56,0,0,0-.53-.5.93.93,0,0,0-.47-.15s0,0,0-.06,0,0,0,0l.41,0,.37,0,.74,0a1.8,1.8,0,0,1,.33,0,.12.12,0,0,1,.11,0,1.15,1.15,0,0,1,.13.17l.22.31,3.23,4,.1-3.13a1.37,1.37,0,0,0-.18-.83.71.71,0,0,0-.58-.32s0,0,0-.06,0-.06,0-.06l.42,0,.52,0h1s0,0,0,.06S100.77,137.72,100.75,137.72Zm6,1c0,.42-.09.76-.11,1,0,0,0,0,0,0s0,0,0,0a2,2,0,0,0-.47-1.16,1.39,1.39,0,0,0-1-.44.5.5,0,0,0-.38.09.85.85,0,0,0-.12.46l-.32,4.46a1.16,1.16,0,0,0,0,.44.38.38,0,0,0,.21.2,2.27,2.27,0,0,0,.52.08s0,0,0,.06,0,.06,0,.06l-.55-.05-.8-.07-.78-.05-.57,0s0,0,0-.06,0,0,0,0a2.68,2.68,0,0,0,.52,0,.36.36,0,0,0,.25-.17,1.07,1.07,0,0,0,.09-.43l.32-4.48a.78.78,0,0,0,0-.45.43.43,0,0,0-.35-.14c-.77-.06-1.35.4-1.76,1.38a0,0,0,0,1-.06,0s0,0,0,0c0-.25.1-.59.16-1s.1-.72.12-.92c0,0,0,0,0,0s0,0,0,.06.17.22.54.25c.55.06,1.2.11,1.94.17.38,0,.78.05,1.21.06l.66,0a2.25,2.25,0,0,0,.54,0,.29.29,0,0,0,.23-.18.06.06,0,0,1,.06,0s.06,0,.06,0C106.87,138,106.82,138.3,106.77,138.73Zm5.06,1.21s0,0-.06,0a0,0,0,0,1-.06,0,1.5,1.5,0,0,0-.43-.89,1.64,1.64,0,0,0-.94-.37l-.29,0a.61.61,0,0,0-.43.08.52.52,0,0,0-.18.37l-.21,2,.8.09a1.55,1.55,0,0,0,.88-.11.59.59,0,0,0,.36-.51s0,0,0,0,.06,0,.05,0l-.1.86,0,.47c0,.22,0,.39,0,.52s0,0-.06,0-.06,0-.06,0a.74.74,0,0,0-.23-.65,1.41,1.41,0,0,0-.85-.32l-.8-.08-.23,2.17a.68.68,0,0,0,.07.43.38.38,0,0,0,.32.17l.32,0a2.06,2.06,0,0,0,1.23-.19,1.73,1.73,0,0,0,.77-.88s0,0,0,0l0,0,0,0a11.53,11.53,0,0,0-.24,1.36.16.16,0,0,1,0,.11s-.06,0-.12,0l-4.26-.45s0,0,0-.06,0-.06,0-.06a1.63,1.63,0,0,0,.45,0,.28.28,0,0,0,.21-.17,1.84,1.84,0,0,0,.1-.42l.46-4.47a1.51,1.51,0,0,0,0-.43.32.32,0,0,0-.17-.21,1.34,1.34,0,0,0-.44-.09s0,0,0-.07,0-.05,0-.05l4.09.43c.07,0,.1,0,.09.09Zm4.16,3.3a.65.65,0,0,1-.21.41.58.58,0,0,1-.44.09.6.6,0,0,1-.41-.22.56.56,0,0,1-.09-.45.54.54,0,0,1,.21-.38.56.56,0,0,1,.45-.09.57.57,0,0,1,.4.2A.63.63,0,0,1,116,143.24Zm7.75,1.46a1.5,1.5,0,0,1-.45.85,1.94,1.94,0,0,1-.9.5,2.7,2.7,0,0,1-1.17,0l-.61-.14-.32-.08-.44-.08-.69-.11-.52-.08a0,0,0,0,1,0-.06s0-.06,0-.06a1.08,1.08,0,0,0,.43,0,.31.31,0,0,0,.23-.15,1,1,0,0,0,.14-.41l.77-4.42a.76.76,0,0,0,0-.55.81.81,0,0,0-.52-.23s0,0,0-.06,0-.05,0-.05l.5.09.7.15a4.8,4.8,0,0,0,.56.06l.29,0,.33,0a2.49,2.49,0,0,1,1.29.55,1,1,0,0,1,.32,1,1.29,1.29,0,0,1-.44.78,2,2,0,0,1-1,.43,2.23,2.23,0,0,1,1.18.76A1.45,1.45,0,0,1,123.74,144.7Zm6.92,3.24-.58-.15-.6-.14-.58-.11-.52-.09s0,0,0-.06,0-.06,0,0a.93.93,0,0,0,.36,0,.19.19,0,0,0,.15-.16,1.44,1.44,0,0,0-.08-.58l-.37-1.42-2.33-.49-.55.75a1.18,1.18,0,0,0-.23.48.62.62,0,0,0,.13.58,1.06,1.06,0,0,0,.61.33s0,0,0,.07,0,.05-.06.05l-.49-.13-.62-.15-.62-.11-.53-.09s0,0,0-.07,0,0,0,0a.83.83,0,0,0,.47,0,1.32,1.32,0,0,0,.44-.31,6.6,6.6,0,0,0,.6-.74l3-4.09s0,0,.09,0,.08,0,.08,0l1.38,5.17a5.92,5.92,0,0,0,.35,1.05.62.62,0,0,0,.41.35s0,0,0,.07S130.69,147.94,130.66,147.94Zm6.6,1.61s0,.06,0,0l-1.67-.42c-.14,0-.33-.35-.58-.94s-.53-1.41-.84-2.44l-.22,0c-.24-.07-.41-.11-.51-.15l-.53,2.08a1.39,1.39,0,0,0-.06.44.3.3,0,0,0,.14.22,1.25,1.25,0,0,0,.43.16s0,0,0,.06,0,.06,0,.05l-.49-.13-.71-.19-.69-.17A4.37,4.37,0,0,1,131,148s0,0,0-.06,0,0,0,0a1.45,1.45,0,0,0,.45.06.28.28,0,0,0,.23-.13,1.28,1.28,0,0,0,.16-.41l1.1-4.35a1.31,1.31,0,0,0,.06-.43.33.33,0,0,0-.14-.23,1.85,1.85,0,0,0-.42-.16s0,0,0-.06,0-.06,0-.05l.49.13.68.2.68.14.31.06.41.09a2.42,2.42,0,0,1,1.25.65,1,1,0,0,1,.24,1,1.68,1.68,0,0,1-.51.86,2.18,2.18,0,0,1-.93.48c.31.88.59,1.58.82,2.09a5.52,5.52,0,0,0,.66,1.16,1.35,1.35,0,0,0,.7.48A.08.08,0,0,1,137.26,149.55Z"/><path class="cls-1" d="M135.41,143.38a.84.84,0,0,0-.58-.46.83.83,0,0,0-.57,0,.64.64,0,0,0-.28.43l-.5,2a3.25,3.25,0,0,0,.53.18,1,1,0,0,0,.87-.11,1.62,1.62,0,0,0,.48-.92A1.9,1.9,0,0,0,135.41,143.38Z"/><path class="cls-1" d="M61,160.91l-19.47-3L37.14,146.7q-6.8,2.16-13.36,4.83l14.27,6.26v0l-5.17,11.24h0A156.7,156.7,0,0,1,61,160.91Z"/><path class="cls-1" d="M121,160.91l19.47-3,4.35-11.17q6.79,2.16,13.36,4.83L144,157.79v0l5.17,11.24h0A156.7,156.7,0,0,0,121,160.91Z"/><path class="cls-1" d="M65,159l-1.35-6.36q-8,1.34-15.78,3.43Z"/><path class="cls-1" d="M117,159l1.35-6.36q8,1.34,15.78,3.43Z"/><path class="cls-1" d="M86.1,56.29a2,2,0,0,0-2,.11,5.17,5.17,0,0,0-2.23,3.23,2,2,0,0,0,.6,1.87,2.11,2.11,0,0,0,1.43.44,7.27,7.27,0,0,0,1.24-.18l.22,0a4.53,4.53,0,0,1,1.34-.11.89.89,0,0,0,.35.79,1.32,1.32,0,0,0,1,.35.41.41,0,0,0,.14.3.46.46,0,0,0,.48,0l.22-.14,9.5,6.78a.79.79,0,0,0,1.19-.26A1,1,0,0,0,99.35,68l-9.51-6.49h0a.47.47,0,0,0-.21-.43.4.4,0,0,0-.34,0,1.29,1.29,0,0,0-.65-.76,1,1,0,0,0-.92-.1,4,4,0,0,1-.37-1.3,1.7,1.7,0,0,1,0-.22A6.33,6.33,0,0,0,87,57.48,2.19,2.19,0,0,0,86.1,56.29Zm.17,2.06a.3.3,0,0,1-.12.26.19.19,0,0,1-.2,0,.18.18,0,0,0-.22.05l-1,1.4a.18.18,0,0,0,0,.23.19.19,0,0,1,.06.2.31.31,0,0,1-.21.19c-.7.08-1.18-.08-1.41-.47a2.43,2.43,0,0,1,2.2-3.06C85.82,57.26,86.13,57.67,86.27,58.35Z"/><path class="cls-1" d="M99.66,57c.67.92-.28,2.87-1.82,4a9.07,9.07,0,0,1-1.4.91,5.67,5.67,0,0,1-1.92.3,3.45,3.45,0,0,0-1.83.83c-.3.2-.61.39-.9.6l-8.26,6.13c-.1.07-.87.29-1.12-.06s.11-1.13.22-1.21l8.41-6c.81-.57,1.88-1.08,2.26-2a6.27,6.27,0,0,1,2.13-2.88C97,56.54,99,56.1,99.66,57Z"/><path class="cls-1" d="M47,143.3a.8.8,0,0,0-.73-.12.81.81,0,0,0-.5.27.65.65,0,0,0,0,.51l.51,2a5.51,5.51,0,0,0,.55-.1,1,1,0,0,0,.71-.51,1.59,1.59,0,0,0,0-1A1.88,1.88,0,0,0,47,143.3Z"/><polygon class="cls-1" points="68.48 142.37 70.58 142.12 69.21 140.05 68.48 142.37"/><path class="cls-1" d="M83.32,138a.82.82,0,0,0-.68-.27.83.83,0,0,0-.55.17.64.64,0,0,0-.15.49l.09,2.06a3.47,3.47,0,0,0,.57,0,1,1,0,0,0,.79-.35,1.62,1.62,0,0,0,.21-1A1.91,1.91,0,0,0,83.32,138Z"/><polygon class="cls-1" points="88.66 140.95 90.77 140.94 89.64 138.74 88.66 140.95"/><path class="cls-1" d="M122.19,142.38a1.6,1.6,0,0,0,.44-.91,1.28,1.28,0,0,0-.1-.87.86.86,0,0,0-.64-.4.49.49,0,0,0-.4.06.87.87,0,0,0-.19.47l-.31,1.81.38.08A.88.88,0,0,0,122.19,142.38Z"/><path class="cls-1" d="M121.43,142.9a3.32,3.32,0,0,0-.5-.07l-.4,2.3a.62.62,0,0,0,0,.47.81.81,0,0,0,.52.22,1.14,1.14,0,0,0,1.48-1.08,1.89,1.89,0,0,0-.15-1.23A1.32,1.32,0,0,0,121.43,142.9Z"/><polygon class="cls-1" points="126.32 144.47 128.39 144.91 127.75 142.51 126.32 144.47"/></g></g></g></svg>