<svg xmlns="http://www.w3.org/2000/svg" viewBox="0 0 36.74 91.51"><defs><style>.cls-1{fill:#d8d8d8;}</style></defs><g id="Capa_2" data-name="Capa 2"><g id="Imágenes"><path class="cls-1" d="M7.22,2.15a1.67,1.67,0,0,0-1.34-.58,2.11,2.11,0,0,0-2,2.28,2.1,2.1,0,0,0,2,2.28,1.69,1.69,0,0,0,1.46-.76l1.3,1A3.09,3.09,0,0,1,6,7.57,3.59,3.59,0,0,1,2.21,3.85,3.59,3.59,0,0,1,6,.13a3,3,0,0,1,2.39,1Z"/><path class="cls-1" d="M10.2,2.41a.92.92,0,1,1-.92.92A.92.92,0,0,1,10.2,2.41Zm0,3.2a.92.92,0,1,1-.92.92A.92.92,0,0,1,10.2,5.61Z"/><path class="cls-1" d="M0,12.31H2.36L4,16.93H4l1.64-4.62H8v7.08H6.44V14h0L4.56,19.39H3.37L1.58,14h0v5.43H0Z"/><path class="cls-1" d="M10.2,14.41a.92.92,0,1,1-.92.92A.92.92,0,0,1,10.2,14.41Zm0,3.2a.92.92,0,1,1-.92.92A.92.92,0,0,1,10.2,17.61Z"/><path class="cls-1" d="M5.62,28.37,3,24.31H4.9L6.4,27,8,24.31H9.84L7.18,28.37v3H5.62Z"/><path class="cls-1" d="M10.2,26.41a.92.92,0,1,1-.92.92A.92.92,0,0,1,10.2,26.41Zm0,3.2a.92.92,0,1,1-.92.92A.92.92,0,0,1,10.2,29.61Z"/><path class="cls-1" d="M2.28,36.31H3.84v2.94l2.75-2.94h2L5.48,39.6,8.9,43.39H6.72L3.84,40v3.36H2.28Z"/><path class="cls-1" d="M10.2,38.41a.92.92,0,1,1-.92.92A.92.92,0,0,1,10.2,38.41Zm0,3.2a.92.92,0,1,1-.92.92A.92.92,0,0,1,10.2,41.61Z"/><path class="cls-1" d="M3,60.31H5.7c1.45,0,2.67.5,2.67,2.15A1.82,1.82,0,0,1,6.84,64.4l1.8,3H6.77L5.29,64.56H4.52v2.83H3Zm1.56,2.93h.92c.57,0,1.31,0,1.31-.79s-.64-.82-1.21-.82h-1Z"/><path class="cls-1" d="M10.2,62.41a.92.92,0,1,1-.92.92A.92.92,0,0,1,10.2,62.41Zm0,3.2a.92.92,0,1,1-.92.92A.92.92,0,0,1,10.2,65.61Z"/><path class="cls-1" d="M8.07,78.89a6.35,6.35,0,0,1-3,.68,3.72,3.72,0,1,1,0-7.44A4,4,0,0,1,7.92,73l-1.1,1.2a2.18,2.18,0,0,0-1.72-.67,2.28,2.28,0,0,0,0,4.56,3.05,3.05,0,0,0,1.47-.35V76.63H5.3V75.19H8.07Z"/><path class="cls-1" d="M10.2,74.41a.92.92,0,1,1-.92.92A.92.92,0,0,1,10.2,74.41Zm0,3.2a.92.92,0,1,1-.92.92A.92.92,0,0,1,10.2,77.61Z"/><path class="cls-1" d="M3,84.31H5.6c1.24,0,2.59.26,2.59,1.8A1.59,1.59,0,0,1,7,87.67v0a1.7,1.7,0,0,1,1.55,1.73c0,1.48-1.4,2-2.66,2H3Zm1.56,2.83H5.65c.48,0,1-.2,1-.77s-.56-.74-1-.74H4.52Zm0,2.93h1.4c.49,0,1-.21,1-.83s-.75-.78-1.26-.78H4.52Z"/><path class="cls-1" d="M10.2,86.41a.92.92,0,1,1-.92.92A.92.92,0,0,1,10.2,86.41Zm0,3.2a.92.92,0,1,1-.92.92A.92.92,0,0,1,10.2,89.61Z"/><path class="cls-1" d="M19.72,3.35h.37c.84,0,1.55-.36,1.55-1.3A1.15,1.15,0,0,0,20.33.85,1.5,1.5,0,0,0,19,1.63l-.63-.32a2.1,2.1,0,0,1,2-1.12A1.87,1.87,0,0,1,22.36,2a1.74,1.74,0,0,1-1.2,1.62l0,0a1.77,1.77,0,0,1,1.36,1.8,2.06,2.06,0,0,1-2.26,2,2.18,2.18,0,0,1-2.23-1.43l.76-.23a1.41,1.41,0,0,0,1.53,1,1.41,1.41,0,0,0,1.48-1.4C21.83,4.38,21,4,20,4h-.31Z"/><path class="cls-1" d="M25.1,3.62A1.66,1.66,0,0,1,24,2a2,2,0,0,1,4,0,1.66,1.66,0,0,1-1.06,1.58v0A1.83,1.83,0,0,1,28.26,5.5a2.09,2.09,0,0,1-2.24,2,2.09,2.09,0,0,1-2.24-2A1.83,1.83,0,0,1,25.1,3.64ZM26,4A1.42,1.42,0,0,0,24.5,5.4a1.52,1.52,0,0,0,3,0A1.42,1.42,0,0,0,26,4Zm0-3.1A1.22,1.22,0,0,0,24.76,2.1a1.26,1.26,0,0,0,2.52,0A1.22,1.22,0,0,0,26,.85Z"/><path class="cls-1" d="M30.94,3.69a1.74,1.74,0,0,1-1.76-1.75,1.76,1.76,0,0,1,3.52,0A1.74,1.74,0,0,1,30.94,3.69Zm0-2.9A1.15,1.15,0,1,0,32.1,1.94,1.15,1.15,0,0,0,30.94.79ZM31,7.7l-.52-.27L35,0l.5.27Zm4-.19a1.75,1.75,0,1,1,1.75-1.75A1.74,1.74,0,0,1,35,7.51Zm0-2.9a1.15,1.15,0,1,0,1.15,1.15A1.15,1.15,0,0,0,35,4.61Z"/><path class="cls-1" d="M19.72,15.35h.37c.84,0,1.55-.36,1.55-1.3a1.15,1.15,0,0,0-1.31-1.2,1.5,1.5,0,0,0-1.35.78l-.63-.32a2.1,2.1,0,0,1,2-1.12A1.87,1.87,0,0,1,22.36,14a1.74,1.74,0,0,1-1.2,1.62l0,0a1.77,1.77,0,0,1,1.36,1.8,2.06,2.06,0,0,1-2.26,2,2.18,2.18,0,0,1-2.23-1.43l.76-.23a1.41,1.41,0,0,0,1.53,1,1.41,1.41,0,0,0,1.48-1.4C21.83,16.38,21,16,20,16h-.31Z"/><path class="cls-1" d="M28.42,15.85c0,1.57-.37,3.66-2.4,3.66s-2.4-2.09-2.4-3.66S24,12.19,26,12.19,28.42,14.28,28.42,15.85Zm-4.08,0c0,1.12.14,3,1.68,3s1.68-1.88,1.68-3-.14-3-1.68-3S24.34,14.73,24.34,15.85Z"/><path class="cls-1" d="M30.94,15.69a1.75,1.75,0,1,1,1.76-1.75A1.74,1.74,0,0,1,30.94,15.69Zm0-2.9a1.15,1.15,0,1,0,1.16,1.15A1.15,1.15,0,0,0,30.94,12.79Zm0,6.91-.52-.27L35,12l.5.27Zm4-.19a1.75,1.75,0,1,1,1.75-1.75A1.74,1.74,0,0,1,35,19.51Zm0-2.9a1.15,1.15,0,1,0,1.15,1.15A1.15,1.15,0,0,0,35,16.61Z"/><path class="cls-1" d="M19.72,27.35h.37c.84,0,1.55-.36,1.55-1.3a1.15,1.15,0,0,0-1.31-1.2,1.5,1.5,0,0,0-1.35.78l-.63-.32a2.1,2.1,0,0,1,2-1.12A1.87,1.87,0,0,1,22.36,26a1.74,1.74,0,0,1-1.2,1.62l0,0a1.77,1.77,0,0,1,1.36,1.8,2.06,2.06,0,0,1-2.26,2,2.18,2.18,0,0,1-2.23-1.43l.76-.23a1.41,1.41,0,0,0,1.53,1,1.41,1.41,0,0,0,1.48-1.4C21.83,28.38,21,28,20,28h-.31Z"/><path class="cls-1" d="M28.42,27.85c0,1.57-.37,3.66-2.4,3.66s-2.4-2.09-2.4-3.66S24,24.19,26,24.19,28.42,26.28,28.42,27.85Zm-4.08,0c0,1.12.14,3,1.68,3s1.68-1.88,1.68-3-.14-3-1.68-3S24.34,26.73,24.34,27.85Z"/><path class="cls-1" d="M30.94,27.69a1.75,1.75,0,1,1,1.76-1.75A1.74,1.74,0,0,1,30.94,27.69Zm0-2.9a1.15,1.15,0,1,0,1.16,1.15A1.15,1.15,0,0,0,30.94,24.79Zm0,6.91-.52-.27L35,24l.5.27Zm4-.19a1.75,1.75,0,1,1,1.75-1.75A1.74,1.74,0,0,1,35,31.51Zm0-2.9a1.15,1.15,0,1,0,1.15,1.15A1.15,1.15,0,0,0,35,28.61Z"/><path class="cls-1" d="M21.32,40.35l0,0a2,2,0,0,1-1,.24,2.12,2.12,0,0,1-2.16-2.19,2.16,2.16,0,0,1,2.3-2.19,2.16,2.16,0,0,1,2.3,2.19,3.41,3.41,0,0,1-.61,1.9l-1.91,3.11h-.85Zm-.86-3.5A1.53,1.53,0,1,0,22,38.38,1.49,1.49,0,0,0,20.46,36.85Z"/><path class="cls-1" d="M25.38,39.69a1.75,1.75,0,1,1,1.76-1.75A1.74,1.74,0,0,1,25.38,39.69Zm0-2.9a1.15,1.15,0,1,0,1.16,1.15A1.15,1.15,0,0,0,25.38,36.79Zm0,6.91-.52-.27L29.4,36l.51.27Zm4-.19a1.75,1.75,0,1,1,1.75-1.75A1.74,1.74,0,0,1,29.43,43.51Zm0-2.9a1.15,1.15,0,1,0,1.15,1.15A1.15,1.15,0,0,0,29.43,40.61Z"/><path class="cls-1" d="M21.16,67.39h-.72V61.21l-1.27,1.12-.45-.54,1.8-1.48h.64Z"/><path class="cls-1" d="M25.16,63.35l0,0a2,2,0,0,1,1-.24,2.12,2.12,0,0,1,2.16,2.19A2.16,2.16,0,0,1,26,67.51a2.16,2.16,0,0,1-2.3-2.19,3.41,3.41,0,0,1,.61-1.9l1.91-3.11h.85Zm.86,3.5a1.53,1.53,0,1,0-1.58-1.53A1.49,1.49,0,0,0,26,66.85Z"/><path class="cls-1" d="M34,63.85c0,1.57-.37,3.66-2.4,3.66s-2.4-2.09-2.4-3.66.37-3.66,2.4-3.66S34,62.28,34,63.85Zm-4.08,0c0,1.12.14,3,1.68,3s1.68-1.88,1.68-3-.14-3-1.68-3S29.9,62.73,29.9,63.85Z"/><path class="cls-1" d="M21.16,79.39h-.72V73.21l-1.27,1.12-.45-.54,1.8-1.48h.64Z"/><path class="cls-1" d="M25.16,75.35l0,0a2,2,0,0,1,1-.24,2.12,2.12,0,0,1,2.16,2.19A2.16,2.16,0,0,1,26,79.51a2.16,2.16,0,0,1-2.3-2.19,3.41,3.41,0,0,1,.61-1.9l1.91-3.11h.85Zm.86,3.5a1.53,1.53,0,1,0-1.58-1.53A1.49,1.49,0,0,0,26,78.85Z"/><path class="cls-1" d="M34,75.85c0,1.57-.37,3.66-2.4,3.66s-2.4-2.09-2.4-3.66.37-3.66,2.4-3.66S34,74.28,34,75.85Zm-4.08,0c0,1.12.14,3,1.68,3s1.68-1.88,1.68-3-.14-3-1.68-3S29.9,74.73,29.9,75.85Z"/><path class="cls-1" d="M21.16,91.39h-.72V85.21l-1.27,1.12-.45-.54,1.8-1.48h.64Z"/><path class="cls-1" d="M25.16,87.35l0,0a2,2,0,0,1,1-.24,2.12,2.12,0,0,1,2.16,2.19A2.16,2.16,0,0,1,26,91.51a2.16,2.16,0,0,1-2.3-2.19,3.41,3.41,0,0,1,.61-1.9l1.91-3.11h.85Zm.86,3.5a1.53,1.53,0,1,0-1.58-1.53A1.49,1.49,0,0,0,26,90.85Z"/><path class="cls-1" d="M34,87.85c0,1.57-.37,3.66-2.4,3.66s-2.4-2.09-2.4-3.66.37-3.66,2.4-3.66S34,86.28,34,87.85Zm-4.08,0c0,1.12.14,3,1.68,3s1.68-1.88,1.68-3-.14-3-1.68-3S29.9,86.73,29.9,87.85Z"/></g></g></svg>