<svg xmlns="http://www.w3.org/2000/svg" viewBox="0 0 17.93 17.77"><defs><style>.cls-1{fill:#2d2d2d;}</style></defs><g id="Capa_2" data-name="Capa 2"><g id="header"><path class="cls-1" d="M9,14.23A5.35,5.35,0,1,0,3.62,8.89,5.35,5.35,0,0,0,9,14.23ZM4.91,8.89a4.06,4.06,0,1,1,4.06,4A4.06,4.06,0,0,1,4.91,8.89Z"/><path class="cls-1" d="M14.3,17.77H3.63A3.64,3.64,0,0,1,0,14.14V3.63A3.64,3.64,0,0,1,3.63,0H14.3a3.64,3.64,0,0,1,3.63,3.63V14.14A3.64,3.64,0,0,1,14.3,17.77ZM3.63,1.32A2.32,2.32,0,0,0,1.32,3.63V14.14a2.31,2.31,0,0,0,2.31,2.3H14.3a2.31,2.31,0,0,0,2.31-2.3V3.63A2.32,2.32,0,0,0,14.3,1.32Z"/><path class="cls-1" d="M14.39,2.93a.84.84,0,1,0,0,1.68.84.84,0,0,0,0-1.68Z"/></g></g></svg>