<svg xmlns="http://www.w3.org/2000/svg" viewBox="0 0 222.96 55.58"><defs><style>.cls-1{fill:gray;}</style></defs><title>identificador-footer</title><g id="Capa_2" data-name="Capa 2"><g id="Fondo"><path class="cls-1" d="M33.37,38.06a9.75,9.75,0,0,0,5.21-1.38A21.43,21.43,0,0,0,43,25.44c-.13.18-.25.37-.4.55-3.16,3.91-7.49,5.57-12.07,1.91C28.38,33.73,29.88,37.81,33.37,38.06Z"/><path class="cls-1" d="M31.54,25.24c-.16.42-.41.75-.5,1.08,3.17,2.08,5.83-.75,7.66-3.16,2.08-2.75,3.5-6.08,2.58-6.82C40,15.25,34.54,19.08,31.54,25.24Z"/><path class="cls-1" d="M31.38,8.76C28.3,14.34,22.05,25,18.81,31.9c-1.83,3.74-1.92,6.41.33,6.24,1.81-.11,4-2.15,5.92-4.82a15.17,15.17,0,0,1,1.74-9.66C31,15.39,37.52,12,40.79,13.8a21.57,21.57,0,0,0-7.73-8.51A26.8,26.8,0,0,1,31.38,8.76Z"/><path class="cls-1" d="M33.62,40c-3.6.07-6.17-1.45-7.57-3.88-2,2.29-4.77,4-7.32,3.88-3.5-.17-5.25-2.16-5.25-5.16a13.6,13.6,0,0,1-6.29,4.72,21.47,21.47,0,0,0,28.47.24A12.81,12.81,0,0,1,33.62,40Z"/><path class="cls-1" d="M15.31,28c3.75-7.16,4.75-11.24,2.83-11.32s-6.74,4-10.32,9.74C4.33,32,3.58,37.64,6.16,37.64S12.23,33.9,15.31,28Z"/><path class="cls-1" d="M3.58,23.83C8.66,16.34,13.9,13.42,17.14,13.42c2.67,0,3.92,2,3.92,4.41,2.44-4.65,5.57-10.36,8-14.51A21.52,21.52,0,0,0,.86,29.48,20.25,20.25,0,0,1,3.58,23.83Z"/><path class="cls-1" d="M209.89,8.18a13.06,13.06,0,0,0-11.47,19.31c-1.53,3.64-3.6,6.46-5.67,6.65-1.91.25-3.08-2.24-2.41-5.9s3.33-8.24,5.91-12.15c1.66-2.42-.42-5.08-1.84-6.33-.66-.5-1.08-.25-1.83.42A14.87,14.87,0,0,1,186,14.09c1.16-4.41,1.25-8.49-.83-8.08-2.58.42-7.74,10-2.67,11.24-2.66,10.49-8.32,19.22-12.15,19.89-2.58.42-4-3.41-2.49-8.49,1.74-5.74,4.66-12.4,6.57-17.06a37.83,37.83,0,0,1,4.58-.67c.91-.08,1.25-.41.75-1.08a4.49,4.49,0,0,0-4.16-1.74c1.08-3.58.83-5.83-.09-7.5-.5-.83-1.16-.83-1.58.17a58,58,0,0,0-3.83,8.57,35.08,35.08,0,0,1-5.24.92c-.92.08-1.17.66-.5,1.41a5,5,0,0,0,4.33,1.25,148.83,148.83,0,0,0-5,14.48,13.43,13.43,0,0,0-.29,6.4c-1.44,2.63-3.07,4.61-4.7,4.92-2.33.42-3.08-2.58-1.91-6.49,1-3.58,3.49-8.74,4.49-11.73,1.17-3.58-1.25-6.5-3.41-6.5s-6.08,4.08-8.41,7.66c.42-2.41.17-4.58-1-6.07-.41-.59-1-.59-1.33.16-3.24,6.49-7,16.06-7.74,20.31-.09.46-.15.89-.19,1.3-2.12,2.61-4.77,4.7-7.88,4.94-3.41.33-5.49-3.58-4.24-9.74,4.91,3,9,.75,11.65-3.49,2.24-3.58,2.24-7.58.91-9a12.62,12.62,0,0,0-4.24-2.83c-3.5-1.41-9.57,2.83-12.65,11.65a15.4,15.4,0,0,0-.54,9.41c-1.64,3.11-3.57,5.55-5.45,5.9-2.33.5-2.92-2.16-1.75-6.07,1.08-3.5,3.66-8.74,4.66-11.82,1.08-3.41.16-6.16-.92-7.16-.66-.58-1.08-.41-1.58.59-1.75,3.08-3,7.74-6.16,14.81-2.66,6.08-5.66,11-8.15,11.15-1.5,0-2-2.24-1.09-5.57a67.64,67.64,0,0,1,3.75-10.07c1.83-4,1.75-6.91.08-8.82a1,1,0,0,0-1.66.24,67.44,67.44,0,0,0-6.66,17.56,16.85,16.85,0,0,0-.29,3.2c-2.14,2.85-5,5.29-8.36,5.71-3.83.5-5.91-4.66-3.33-12.4,2.08-6.24,6.32-11,7.57-10.24.92.59-.58,3.58-1,6-.58,3.07.58,4.82,2.25,5.4.83.34,1.08.17,1.25-.66.83-3.66,3-7.41,1.24-9.9a9.23,9.23,0,0,0-4-3.17c-3.41-1.5-9.49,2.83-12.48,11.49a15.61,15.61,0,0,0-.6,9.29c-1.6,3.28-3.5,5.9-5.4,6.27-2.33.42-3.08-2.58-1.91-6.49,1-3.58,3.5-8.74,4.49-11.74,1.17-3.57-1.24-6.49-3.41-6.49s-6,4.08-8.4,7.66c.41-2.41.16-4.58-1-6.08-.42-.58-1-.58-1.33.17-3.25,6.49-7,16.06-7.74,20.31a12.9,12.9,0,0,0-.2,1.41c-2.11,2.55-4.73,4.59-7.79,4.83-3.42.25-5.5-3.58-4.25-9.74,4.91,3,9,.75,11.65-3.49,2.25-3.58,2.25-7.58.92-9a12.66,12.66,0,0,0-4.25-2.83c-3.49-1.42-9.57,2.83-12.65,11.65s.84,16.48,9,15.23A15.25,15.25,0,0,0,55,51.85a4.24,4.24,0,0,0,1.39,2c.67.5,1,.17,1.17-.42,1.91-6.4,3.91-13,7.16-17.56,3.49-5,7-7.32,7.65-7.15,1.17.33-3.58,7.9-4.82,14.48-1.09,5.82.66,9.65,6.15,8.9,2.84-.38,5.58-2.66,7.28-5.41,1.69,2.32,4.47,3.56,8.12,3a15.82,15.82,0,0,0,8.45-4.47A4,4,0,0,0,101.78,48c3.67-.17,6.58-3.91,8.58-7.32,0,3.82,2,6.24,6.16,5.66,2.77-.37,5.37-2.48,7.13-5.08,1.71,2.27,4.48,3.46,8.1,2.91a15.1,15.1,0,0,0,7.73-3.66,4.24,4.24,0,0,0,1.42,2.08c.67.5,1,.17,1.17-.42,1.91-6.4,3.91-13,7.15-17.56,3.5-5,7-7.32,7.66-7.15,1.17.33-3.58,7.9-4.83,14.48-1.08,5.82.67,9.65,6.16,8.9a10.47,10.47,0,0,0,6.43-4.19A5.58,5.58,0,0,0,170,39.05c6.74-.91,12.15-11.48,15.06-21.72a16.15,16.15,0,0,0,7.49-3.49c-2.33,3.41-5.66,8.74-6.4,13.23-.92,5.33,1.58,9.57,6.49,9.07,3.07-.35,6.07-2.86,7.55-6.14a13.06,13.06,0,1,0,9.67-21.82ZM127.83,30c2.17-6.49,7-11.06,8.49-10.15,1,.58,0,4.08-1.66,7.07-1.5,2.67-3.75,5.75-7.16,4.25A9.34,9.34,0,0,1,127.83,30ZM43.36,41.22c2.16-6.49,7-11.07,8.49-10.15,1,.58,0,4.07-1.67,7.07C48.69,40.8,46.36,44,43,42.38A7.48,7.48,0,0,1,43.36,41.22Z"/></g></g></svg>