<?xml version="1.0" encoding="utf-8"?>
<!-- Generator: Adobe Illustrator 25.2.1, SVG Export Plug-In . SVG Version: 6.00 Build 0)  -->
<svg version="1.1" id="Layer_1" xmlns="http://www.w3.org/2000/svg" xmlns:xlink="http://www.w3.org/1999/xlink" x="0px" y="0px"
	 viewBox="0 0 492 492" style="enable-background:new 0 0 492 492;" xml:space="preserve">
<g>
	<g>
		<path d="M392.7,296.8l-135-135c-3.1-3.1-7.3-4.8-11.8-4.8c-4.4,0-8.6,1.7-11.7,4.8L99.3,296.7c-3.1,3.1-4.8,7.3-4.8,11.7
			s1.7,8.6,4.8,11.7l9.9,9.9c3.1,3.1,7.3,4.8,11.7,4.8s8.6-1.7,11.7-4.8l113.2-113.2l113.3,113.4c3.1,3.1,7.3,4.8,11.7,4.8
			c4.4,0,8.6-1.7,11.7-4.8l9.9-9.9C399.1,313.8,399.1,303.3,392.7,296.8z"/>
	</g>
</g>
</svg>
