<svg xmlns="http://www.w3.org/2000/svg" viewBox="0 0 167.29 75.4"><defs><style>.cls-1{fill:#fff;}</style></defs><g id="Capa_2" data-name="Capa 2"><g id="Textos"><path class="cls-1" d="M32.55,28.66l0,0-.08-.08-.3-.3,0,0c-.26-.28-.5-.57-.74-.87l0,0c-.24-.3-.46-.6-.67-.92l0,0q-.16-.24-.3-.48l0,0-.27-.47,0,0-.26-.49,0-.07c-.16-.32-.31-.65-.45-1a.37.37,0,0,0-.05-.11c-.07-.17-.13-.34-.19-.51l0,0-.15-.45-.05-.14L28.69,22l0-.1-.12-.48s0,0,0-.06-.08-.34-.11-.52l0-.12-.09-.54A15.49,15.49,0,0,1,31.05,8.59c.12-.16.23-.32.36-.47s.18-.22.27-.33l.09-.12.35-.39,0,0c.11-.12.23-.24.34-.37a.47.47,0,0,0,0-.1c0-.17.08-.75-1.62-1.65-.43-.23-2.41-1-2.41-1A17.8,17.8,0,0,1,28.94,6a9.2,9.2,0,0,1-.08,3.38,3.22,3.22,0,0,1-.69,1.17,5.78,5.78,0,0,1-2.89,1.73A7,7,0,0,1,22.13,12a6.62,6.62,0,0,1-2.44-2,4,4,0,0,1-.76-1.63,11.39,11.39,0,0,1,.08-4c-.52.21-1.49.61-2.09.93a11,11,0,0,0-1.69,1,27.33,27.33,0,0,0-2.34,2.12S12,9.47,11.62,10.09a18,18,0,0,0-1.52,3.15h0l-.22.91h0s0,.07,0,.12l0,.07,0,.08a1,1,0,0,0,0,.17s0,0,0,.06l0,.13,0,.07,0,.13s0,.06,0,.08l0,.12a.29.29,0,0,0,0,.09l-.06.21c-.11.45-.23,1-.37,1.46-.09.35-.18.7-.28,1.06,0,.09-.05.18-.07.27l-.15.55c0,.09-.05.18-.07.27s-.1.37-.16.55l-.15.54c-.07.26-.15.52-.23.78L8,21.22c-.06.17-.11.33-.16.49-.2.64-.39,1.21-.57,1.66a40.45,40.45,0,0,0-2,5.47,12,12,0,0,0-.16,3.53s.8-.73,1.54-.26a3.4,3.4,0,0,1,1.51,2.26,3.87,3.87,0,0,1-.78,2.13,6,6,0,0,0,2,1.19,5.17,5.17,0,0,0,2.74.16,10,10,0,0,0,2.43-.75,6.45,6.45,0,0,0,1.84-.94c2-1.46,4.83-4.21,6.82-5a22.92,22.92,0,0,1,8.3-1.25,1.19,1.19,0,0,0,1-1.2m-16.28-3a1.55,1.55,0,0,1-.55.26,2,2,0,0,1-2.32-1.38l-.1-.32A4.3,4.3,0,0,0,11.53,22a2,2,0,0,1-.8-2.58,1.67,1.67,0,0,1,2.43-.55,8.48,8.48,0,0,1,2.15,1.95,8.38,8.38,0,0,1,1.39,2.56l.11.32a1.76,1.76,0,0,1-.54,2"/><path class="cls-1" d="M61.82,27.88a9.23,9.23,0,0,0-.69-2l-.05-.09-.2-.39-.05-.09c-.08-.16-.16-.31-.23-.47h0c-.08-.15-.15-.3-.21-.44l-.06-.13a3.09,3.09,0,0,1-.14-.32l-.06-.12c-.06-.14-.12-.28-.17-.42-.18-.45-.37-1-.57-1.66l-.15-.49c0-.08-.05-.17-.08-.25-.07-.26-.15-.52-.23-.78l-.15-.54-.15-.55c0-.09-.05-.18-.08-.27l-.15-.54a2.29,2.29,0,0,0-.07-.28c-.09-.36-.19-.71-.28-1.06-.13-.52-.26-1-.37-1.46,0-.1,0-.19-.07-.29l0-.06-.06-.24v0l-.06-.27h0a2,2,0,0,1-.05-.24h0l-.26-1.1h0a14.13,14.13,0,0,0-1.26-2.74C53.45,9.72,49.93,9,47,9.78s-4.67,3.67-6.9,6.17a7.61,7.61,0,0,1-4.49,2.24,11.52,11.52,0,0,1-4.4-.59,14.68,14.68,0,0,1,1.14,3.95c-.08,1.39-.37,3.12-1,3.23l.17.28.15.25.19.29.16.23.21.29c0,.08.11.15.16.22s.15.2.23.29a1.63,1.63,0,0,0,.17.2,3.47,3.47,0,0,0,.25.29,1.54,1.54,0,0,0,.17.19l.26.29a1.37,1.37,0,0,1,.17.17l.35.33a1.07,1.07,0,0,0,.16.14c.12.12.25.22.37.33.27.22.53.44.82.64,2.51,1.82,6.22.92,9.28,1.19s5.9,2.38,6.69,4.35c.39,1,2.13,1.85,3.8,1.87,1.05,0,3.32-.84,3.32-1.5a4.24,4.24,0,0,1-.41-1.22,1.64,1.64,0,0,1,.63-1.52,2.7,2.7,0,0,1,2.83,0,6.09,6.09,0,0,0,.29-4.52m-6.76-5.62c-.25.24-1.1-.08-2-.05a3.59,3.59,0,0,0-2,.74c-.87.68-1.46,1.92-1.7,2-2.74.8-6.31.36-10.14-1.7a6.18,6.18,0,0,1-2.6-2.85c3.71,0,3,.46,7-1.93a14.53,14.53,0,0,1,4-2.13,18.68,18.68,0,0,1,5.23-.3,7,7,0,0,0-2.12-.65c-1.35-.19-3,0-2.75-.14,3-1.46,5.55-1.39,6.89-.26,1.69,1.42,2.2,5.35.15,7.28"/><path class="cls-1" d="M37.47,1.44a6.48,6.48,0,0,1,3.65.91,16,16,0,0,1,2.58-.22A15.62,15.62,0,0,1,58.49,12.79h0l1.35,5.5c.06.08,1.3,4.1,1.81,5.31.37.86,1.87,3.62,2,4.94a9.26,9.26,0,0,1-.09,2.55c-.18,1.13-.29,1.2,0,1.73a27.43,27.43,0,0,1,2,6.08c1,5.9.63,7.66-.16,11.5-1.09,5.36-5,13.14-13.48,18.45a32.26,32.26,0,0,1-15.52,5c-1.19,0-3.8.09-3.8.09l-1.72-.11-1-.11-1.17-.15-1.14-.18L26,73.11l-1.2-.3c-.4-.07-1-.31-1.43-.41L22.08,72c-.39-.1-.74-.31-1.13-.42-.19-.06-.62-.28-.81-.34l-.9-.4-.71-.33c-.19-.07-.48-.26-.66-.34l-.57-.3a6.22,6.22,0,0,1-.56-.32L16,69.06l-.91-.57c-.19-.09-.79-.55-1-.66a9.79,9.79,0,0,1-1.4-1s-1.58-1.3-2.17-1.85A12.05,12.05,0,0,1,9,63.32l-.74-.87c-.53-.69-.76-.93-.76-.93l-.65-.87a6.18,6.18,0,0,0-.42-.59l-.3-.46-.44-.68c-.24-.32-.4-.76-.63-1.08l-.29-.53-.37-.72L4.09,56c-.11-.17-.17-.41-.27-.59l-.42-1C3.3,54.27,3,53.21,2.88,53l-.42-1.39s-.67-1.25-1-6.29a26.21,26.21,0,0,1,.15-3.94,27.81,27.81,0,0,1,.77-4.21,17,17,0,0,1,.74-2.51c.3-.74.51-1.23.65-1.55-.38-.84-.3-1.39-.26-3.08a7.93,7.93,0,0,1,.23-1.67,35.14,35.14,0,0,1,1.49-4.14L7,19.49,8.7,12.91v-.06l0-.06h0A15.63,15.63,0,0,1,23.52,2.13a16.85,16.85,0,0,1,4.89.69,16.45,16.45,0,0,1,3.46,1.67,7.73,7.73,0,0,1,3.64-2.76,6.08,6.08,0,0,1,2-.29m0-1.44A7.38,7.38,0,0,0,35,.38a9.73,9.73,0,0,0-3.51,2.25,17.43,17.43,0,0,0-2.67-1.17A18.09,18.09,0,0,0,23.52.7,17,17,0,0,0,7.37,12.33h0l0,.05,0,.06v.1l-1.69,6.5L3.89,23.72a32.32,32.32,0,0,0-1.56,4.41A9,9,0,0,0,2.07,30c0,.23,0,.43,0,.61a7.51,7.51,0,0,0,.17,2.45c-.13.3-.27.66-.44,1.06A17.53,17.53,0,0,0,1,36.9c-.17.79-.27,1.2-.34,1.47a15.89,15.89,0,0,0-.3,1.77c0,.28-.09.63-.15,1.07A27.24,27.24,0,0,0,0,45.45c.29,4.42.83,6.13,1.08,6.7l.4,1.3,0,.12,0,.07.16.47a9,9,0,0,0,.35,1l.4.94,0,.07,0,.06a.66.66,0,0,1,0,.11,3.7,3.7,0,0,0,.22.47l.24.5v0h0l.37.73h0v0l.29.53,0,.08.05.07a3.88,3.88,0,0,1,.2.34,4.53,4.53,0,0,0,.42.71l.41.64v0h0l.3.46,0,.07.06.06.29.44,0,0,0,0,.65.87.06.08,0,0s.23.26.66.82l0,0,0,0c.27.3.6.69.7.81A19.08,19.08,0,0,0,9.54,66h0c.57.53,1.95,1.66,2.19,1.87A13.94,13.94,0,0,0,13.3,69l.21.14a6.51,6.51,0,0,0,.84.56l.85.54h0l.77.46.06,0,.06,0,.09.06a4.48,4.48,0,0,0,.47.26l.5.26.06,0,.05,0,.16.08a4,4,0,0,0,.51.26l.65.31h0l.91.41.07,0,.07,0,.24.1a4.36,4.36,0,0,0,.61.25h0l.37.14a4.65,4.65,0,0,0,.73.28l1.29.43H23l.05,0,.48.14a8.83,8.83,0,0,0,1,.28l1.17.28h0l1.47.3h.06l1.14.19h.05l1.17.15h.05l.28,0,.77.08h0l1.73.12h.12c.11,0,2.64,0,3.83-.1a34,34,0,0,0,16.14-5.18l.08-.05a32.61,32.61,0,0,0,9.93-9.63,28.29,28.29,0,0,0,4.2-9.75c.84-4.09,1.14-6,.17-12a28.23,28.23,0,0,0-2.14-6.57,2.23,2.23,0,0,1,0-.23c0-.15.06-.33.09-.56a10.41,10.41,0,0,0,.11-2.87,15.41,15.41,0,0,0-1.7-4.6L63,23c-.31-.73-1-2.75-1.36-4-.21-.64-.32-1-.4-1.22l-1.32-5.41,0,0v-.05h0A17,17,0,0,0,41.46.85a9.68,9.68,0,0,0-4-.85"/><path class="cls-1" d="M58,37.41a9.8,9.8,0,0,1-5,.26,4.88,4.88,0,0,1-2.13-1.05c-.7-.52-.73-1.4-2.4-3.28-1-1.12-3.79-1.77-3.79-1.77S44,31.42,43,31.32a10.15,10.15,0,0,0-2,.08,3.25,3.25,0,0,0-.67.14,5.86,5.86,0,0,0-1.17.47,8.58,8.58,0,0,0-1.94,1.39A17.44,17.44,0,0,1,34.11,36a26.81,26.81,0,0,1-2.37,1.45,14.58,14.58,0,0,1-2.28,1.07,16.13,16.13,0,0,1-2.67.78c-.41.09-.93.2-1.52.29l-1,.13-1.43.11c-.64,0-1.34,0-1.88,0a5.62,5.62,0,0,0-3.49.88C17,41,20,42.41,20,42.41a39.38,39.38,0,0,0-4-.34,4.42,4.42,0,0,0-.47,3.52c.13.65,4.28,1.34,4.28,1.34s-2.72.23-2.67.83,2.89,1.64,3.3,1.71c5.19.89,12.93-.68,14.62-1.21a51.12,51.12,0,0,0,7.6-3,4.64,4.64,0,0,0,.87-.66h0c.13-.16.47-.48.47-.48l.54-.51.55-.5s.47-.42.8-.65.61-.49.85-.64l.37-.23.27-.14.19-.09.2-.09.19-.07a5.32,5.32,0,0,1,.83-.22,5.71,5.71,0,0,1,.88-.07s1.14,0,1.21.24c.21.72-1.6,2.19-1.6,2.19s1.7-1.12,2.22-1.6.9.16,1.27.56a4.88,4.88,0,0,1,.67.83,1.75,1.75,0,0,1-.49,2.25,7.33,7.33,0,0,1-1.8,1.37c.57.09,3.71-3.07,2.54.79a11.69,11.69,0,0,1-2,2.79,31.91,31.91,0,0,1-3.17,2.9,31.16,31.16,0,0,1-6.6,3.9,27.88,27.88,0,0,1-8.55,2.22c-3,.34-4.69.08-5.88.29-.17,0,.52,1.39.52,1.39a10.35,10.35,0,0,0-1.8-1.52c-2.07-.13-4,.55-1.93,3.6.33.47-2-1.8-2.14-1.42-.73,2.37.67,5.92,1.43,7a8.59,8.59,0,0,0,4.56,2.87c3.8,1.19,11.77.59,14.24-.22,10.66-3.48,13.49-7,17.58-12.41a23.5,23.5,0,0,0,3.88-9c1.6-7.53-.43-13-1.88-15.22A22.53,22.53,0,0,1,58,37.41"/><path class="cls-1" d="M92.25,33.51c1,0,1.5.55,1.5,1.64v20a1.88,1.88,0,0,1-.33,1.27,1.48,1.48,0,0,1-1.11.36,1.89,1.89,0,0,1-1.56-.64,2.88,2.88,0,0,1-.54-1.89v-8.6H79.49v9A2.23,2.23,0,0,1,79,56.31a2.09,2.09,0,0,1-1.55.49c-1,0-1.5-.54-1.5-1.63v-20a1.91,1.91,0,0,1,.33-1.28,1.48,1.48,0,0,1,1.11-.36,1.9,1.9,0,0,1,1.56.64A2.88,2.88,0,0,1,79.49,36v7.82H90.21V35.64A2.25,2.25,0,0,1,90.7,34a2.09,2.09,0,0,1,1.55-.49"/><path class="cls-1" d="M109.3,53.71l-.1,0a6.32,6.32,0,0,1-5.79,3.12,6.72,6.72,0,0,1-2.15-.31,4.27,4.27,0,0,1-1.55-.89,3.57,3.57,0,0,1-.94-1.4,5,5,0,0,1-.32-1.82,6.35,6.35,0,0,1,.36-2.1,4.45,4.45,0,0,1,1.3-1.85,6.92,6.92,0,0,1,2.53-1.32,14.15,14.15,0,0,1,4.09-.49h2.41V45.7a8.51,8.51,0,0,0-.19-1.9,3.21,3.21,0,0,0-.59-1.26,2.25,2.25,0,0,0-1-.7,4.7,4.7,0,0,0-1.49-.21A3.82,3.82,0,0,0,103,43a2.87,2.87,0,0,1-2,1.15,1.09,1.09,0,0,1-.86-.32,1.12,1.12,0,0,1-.3-.8,1.45,1.45,0,0,1,.6-1.13,5.09,5.09,0,0,1,1.54-.86,12.25,12.25,0,0,1,2.15-.55,16.23,16.23,0,0,1,2.42-.19,9.87,9.87,0,0,1,2.95.37,4.38,4.38,0,0,1,1.87,1.11,4.17,4.17,0,0,1,1,1.85,11.19,11.19,0,0,1,.28,2.62v9a2,2,0,0,1-.28,1.17,1.16,1.16,0,0,1-1,.37,1.69,1.69,0,0,1-1.54-.73,4.53,4.53,0,0,1-.46-2.36M109.17,48h-1.91c-3.59,0-5.39,1.3-5.39,3.92,0,1.8.95,2.7,2.86,2.7a4.72,4.72,0,0,0,1.39-.24,5,5,0,0,0,1.45-.72,4.12,4.12,0,0,0,1.14-1.21,3.06,3.06,0,0,0,.46-1.69Z"/><path class="cls-1" d="M117.61,55.26V41.72a1.54,1.54,0,0,1,.32-1.1,1.58,1.58,0,0,1,1.09-.31,1.67,1.67,0,0,1,1.43.71,3.6,3.6,0,0,1,.51,2.12v.22H121a6.39,6.39,0,0,1,2.31-2.22,6.83,6.83,0,0,1,3.43-.83q4.64,0,4.63,5v10a2,2,0,0,1-.27,1.17,1.21,1.21,0,0,1-1,.37,1.94,1.94,0,0,1-1.61-.62A3.36,3.36,0,0,1,128,54.1V45.88q0-3.39-2.79-3.39a3.83,3.83,0,0,0-1.46.31,4.63,4.63,0,0,0-1.34.83,4.45,4.45,0,0,0-1,1.21,2.87,2.87,0,0,0-.38,1.44v8.19a4.58,4.58,0,0,1-.12,1.16,1.45,1.45,0,0,1-.36.71,1.33,1.33,0,0,1-.65.36,3.94,3.94,0,0,1-1,.1,1.21,1.21,0,0,1-1-.37,2,2,0,0,1-.27-1.17"/><path class="cls-1" d="M149.71,42,144,56.55c-.21.53-.45,1.09-.7,1.67a16.77,16.77,0,0,1-.84,1.7,15.22,15.22,0,0,1-1,1.58,9.43,9.43,0,0,1-1.19,1.31,5.33,5.33,0,0,1-1.39.9,3.92,3.92,0,0,1-1.6.33,1.83,1.83,0,0,1-1.13-.35,1,1,0,0,1-.46-.84c0-1,.6-1.47,1.78-1.47a4.24,4.24,0,0,0,1.56-.26,3,3,0,0,0,1.12-.78A5.13,5.13,0,0,0,141,59a17.8,17.8,0,0,0,.7-1.92L135.19,42a2.6,2.6,0,0,1-.13-.36,1.56,1.56,0,0,1-.05-.4c0-.58.41-.88,1.22-.88a2.51,2.51,0,0,1,1.54.54,3.81,3.81,0,0,1,1.16,1.66l4.3,10.75h.17l2-5.76c.17-.49.38-1.16.64-2s.55-1.88.9-3.11a4.25,4.25,0,0,1,.67-1.51,1.46,1.46,0,0,1,1.24-.56c.69,0,1,.25,1,.76a2.65,2.65,0,0,1-.16.88"/><path class="cls-1" d="M156.91,43v8.22q0,3.39,2.79,3.39a3.85,3.85,0,0,0,1.46-.3,5,5,0,0,0,1.34-.83,4.61,4.61,0,0,0,1-1.21,2.83,2.83,0,0,0,.38-1.45V42.67a4.79,4.79,0,0,1,.12-1.19,1.63,1.63,0,0,1,.37-.72,1.33,1.33,0,0,1,.65-.35,3.91,3.91,0,0,1,1-.1,1.22,1.22,0,0,1,1,.38,2,2,0,0,1,.27,1.16V55.39a1.53,1.53,0,0,1-.32,1.09,1.48,1.48,0,0,1-1.09.32c-1.3,0-1.94-.94-1.94-2.82v-.23h-.07A6.24,6.24,0,0,1,161.54,56a6.86,6.86,0,0,1-3.41.82q-4.63,0-4.63-4.95v-10a2,2,0,0,1,.27-1.16,1.22,1.22,0,0,1,1-.38,1.93,1.93,0,0,1,1.6.62,3.31,3.31,0,0,1,.5,2.08"/></g></g></svg>