<svg xmlns="http://www.w3.org/2000/svg" viewBox="0 0 215.53 283.93"><defs><style>.cls-1{fill:#fff;}.cls-2{font-size:72.8px;font-family:Marmelad-Regular, Marmelad;}.cls-2,.cls-3{fill:#1c1c1b;}</style></defs><g id="Capa_2" data-name="Capa 2"><g id="Textos"><path class="cls-1" d="M112.79,43.93a20.1,20.1,0,0,0,11.75-5.88c5.84-6.56,10.61-14,18.09-16.17s16.83-.18,23.17,1.87a37.54,37.54,0,0,1,3.3,7.18h0c0,.12.28,1.2.69,2.87v0c0,.21.1.42.16.64v0c.06.22.12.46.18.7a.24.24,0,0,0,0,.08l.15.64a.75.75,0,0,1,0,.16c.07.25.13.5.2.77.29,1.17.62,2.46,1,3.82.24.9.48,1.84.74,2.78.06.24.12.47.19.71.12.48.25,1,.38,1.43.07.24.13.48.2.72.13.47.26.95.4,1.42s.26,1,.4,1.41c.2.7.4,1.39.6,2,.07.23.13.45.2.67.13.44.27.86.4,1.28.52,1.67,1,3.17,1.5,4.36l.44,1.09.15.33.37.84c0,.11.1.21.15.33l.55,1.14h0l.61,1.22.13.25c.18.34.35.68.54,1,0,.07.08.14.11.22a24.8,24.8,0,0,1,1.81,5.36c1.86,7.07-.46,11.35-.76,11.85a7,7,0,0,0-7.42-.07,4.32,4.32,0,0,0-1.64,4,11.31,11.31,0,0,0,1.08,3.2c0,1.74-5.94,4-8.71,3.94-4.38-.06-8.93-2.38-9.95-4.91-2.09-5.15-9.47-10.71-17.55-11.41s-17.74,1.66-24.32-3.11c-.74-.53-1.45-1.1-2.14-1.67l-1-.85-.42-.39-.9-.87c-.15-.15-.3-.29-.44-.44l-.7-.75-.45-.5c-.22-.24-.44-.5-.65-.75L105,66c-.21-.25-.41-.51-.6-.76s-.29-.38-.43-.58l-.55-.75-.41-.62-.5-.75c-.13-.22-.27-.44-.4-.67l-.44-.73c1.6-.29,2.37-4.83,2.56-8.45.15-3-3-10.37-3-10.37a30,30,0,0,0,11.53,1.57"/><path class="cls-1" d="M57.5,93.47c-1.64,1-4.67,1.56-6.36,2-3.14.77-5,0-7.19-.43s-5.28-3.1-5.28-3.1,2.18-2.85,2-5.59c-.14-2.59-2.56-5-4-5.93-1.94-1.23-4,.68-4,.68a32,32,0,0,1,.43-9.25c1.31-5.49,4.22-11.63,5.28-14.32.46-1.19,1-2.69,1.5-4.36.13-.42.26-.84.39-1.28.07-.22.14-.44.2-.67.2-.66.4-1.35.61-2,.13-.46.26-.93.4-1.41l.39-1.42c.07-.24.14-.48.2-.72l.39-1.43c.06-.24.12-.47.19-.71.25-.94.5-1.88.73-2.78l1-3.82c0-.19.09-.37.13-.55s0-.17.07-.25,0-.2.07-.3l.06-.23c0-.11.05-.22.08-.33s0-.12.05-.18a3.59,3.59,0,0,1,.08-.35l0-.15c0-.15.07-.3.11-.44a1.89,1.89,0,0,0,.05-.23,1.05,1.05,0,0,0,0-.19c0-.1,0-.21.08-.31v0c.34-1.39.55-2.27.58-2.38h0a48.18,48.18,0,0,1,4-8.26c1-1.63,3.35-4.49,3.35-4.49a70.08,70.08,0,0,1,6.11-5.55,32,32,0,0,1,4.43-2.72c1.57-.83,4.13-1.88,5.5-2.44a.65.65,0,0,1,0-.1c1.38-.48,1-.34,0,.1C69.05,8.3,68,14.26,69,18.1a10.39,10.39,0,0,0,2,4.26,17.36,17.36,0,0,0,6.4,5.22,17.74,17.74,0,0,0,8.25.94c.55-.07,5.12-1.41,7.58-4.53A8.37,8.37,0,0,0,95,20.92c.83-2,.46-7.11.2-8.85A50.13,50.13,0,0,0,94.12,7s5.19,2,6.32,2.64c4.46,2.38,4.32,3.89,4.26,4.33l-.14.28c-.31.32-.61.64-.91,1l-.1.11c-.31.34-.61.68-.9,1l-.25.3-.72.88c-.31.4-.62.81-.92,1.22a40.68,40.68,0,0,0-7.25,30.45c.08.47.17.94.26,1.41l.06.31c.09.46.19.92.3,1.37l0,.14c.11.43.22.85.34,1.28,0,.09,0,.17.07.26.13.45.26.89.4,1.34l.12.35c.12.39.27.78.41,1.17l0,.09c.16.45.33.89.51,1.33,0,.1.09.2.13.3.36.87.75,1.72,1.17,2.56l.1.18c.21.43.44.86.67,1.28a.25.25,0,0,1,0,.07q.34.63.72,1.23l.06.11c.26.42.52.84.79,1.24l.07.12c.55.82,1.13,1.63,1.74,2.41l.09.12c.61.79,1.26,1.55,1.93,2.29l.08.09c.21.23.51.52.78.79l.22.21a1.17,1.17,0,0,1,.05.11c.33.71-1,3.19-2.71,3.14-6.92-.19-16.47,1-21.77,3.27S67.47,87.18,62.33,91a16.09,16.09,0,0,1-4.83,2.45"/><text class="cls-2" transform="translate(0 267.9)">Hanyu</text><path class="cls-3" d="M62,63.59a4.18,4.18,0,0,1-1.44.69,5.28,5.28,0,0,1-6.06-3.61l-.29-.84a11.23,11.23,0,0,0-4.63-5.91,5.33,5.33,0,0,1-2.1-6.76,4.37,4.37,0,0,1,6.37-1.44,22.55,22.55,0,0,1,9.28,11.82l.28.84A4.58,4.58,0,0,1,62,63.59"/><path class="cls-3" d="M115.52,49.67c9.71.09,7.94,1.22,18.35-5.05.42-.25,5.9-4.45,10.41-5.58,6-1.49,13.7-.78,13.7-.78a18.56,18.56,0,0,0-5.55-1.73c-3.54-.48-7.71-.09-7.19-.34,7.8-3.83,14.54-3.65,18-.69,4.44,3.72,5.76,14,.4,19.08-.67.63-2.9-.22-5.18-.14a9.39,9.39,0,0,0-5.15,2c-2.3,1.78-3.84,5-4.47,5.2-7.16,2.09-16.54.94-26.58-4.46a16.05,16.05,0,0,1-6.79-7.47"/><path class="cls-3" d="M191.13,98.18c-.82-5.1-4.08-14.18-5.16-15.93-.86-1.39-.57-1.57-.1-4.54a23.67,23.67,0,0,0,.23-6.66c-.26-3.48-4.18-10.7-5.14-12.95-1.35-3.17-4.61-13.72-4.76-13.92l-3.53-14.41h0v0A40.89,40.89,0,0,0,133.92,1.83h0a40.35,40.35,0,0,0-6.77.57c-1-1.31-9-3.61-14.71-1.62-4.65,1.62-9,5.79-9.53,7.23h0a43.76,43.76,0,0,0-9.08-4.39A44.52,44.52,0,0,0,81,1.83,40.87,40.87,0,0,0,42.27,29.74v0h0l0,.15,0,.15L37.7,47.32,33.08,59.79s-3.38,8-3.9,10.86A19.63,19.63,0,0,0,28.57,75c-.1,4.42-.3,5.87.69,8.06-.37.83-.92,2.12-1.7,4.06a41.34,41.34,0,0,0-1.94,6.59c-1.55,7.1-.85,2.74-2,11a69.19,69.19,0,0,0-.39,10.33c.88,13.2,2.62,16.47,2.62,16.47l1.12,3.65c.24.47,1.09,3.26,1.36,3.72l1.1,2.61c.25.46.41,1.09.7,1.54l.7,1.46,1,1.89.76,1.39c.62.85,1,2,1.66,2.82l1.15,1.8.8,1.2c.35.4,1.09,1.54,1.09,1.54l1.71,2.29s.6.63,2,2.44c.87,1,1.93,2.27,1.93,2.27A35.15,35.15,0,0,0,47,166.45c1.54,1.44,5.68,4.83,5.68,4.83A27.3,27.3,0,0,0,56.32,174c.44.29,2,1.49,2.52,1.71l2.38,1.5,2,1.2c.47.21,1,.63,1.46.81l1.49.8c.48.2,1.25.71,1.75.88l1.85.89,2.36,1.05c.5.15,1.61.72,2.12.87,1,.29,1.94.85,3,1.12L80.7,186c1,.26,2.71.89,3.75,1.08l3.14.77,3.86.78,3,.49,3.07.39c.64.07,2.2.23,2.72.27l4.52.31s6.84-.11,9.94-.25a84.53,84.53,0,0,0,40.67-13.15c22.12-13.91,32.48-34.3,35.35-48.35,2.06-10.08,2.9-14.68.42-30.16M112.79,43.93a20.1,20.1,0,0,0,11.75-5.88c5.84-6.56,10.61-14,18.09-16.17s16.83-.18,23.17,1.87a37.54,37.54,0,0,1,3.3,7.18h0c0,.12.28,1.2.69,2.87v0c0,.21.1.42.16.64v0c.06.22.12.46.18.7a.24.24,0,0,0,0,.08l.15.64a.75.75,0,0,1,0,.16c.07.25.13.5.2.77.29,1.17.62,2.46,1,3.82.24.9.48,1.84.74,2.78.06.24.12.47.19.71.12.48.25,1,.38,1.43.07.24.13.48.2.72.13.47.26.95.4,1.42s.26,1,.4,1.41c.2.7.4,1.39.6,2,.07.23.13.45.2.67.13.44.27.86.4,1.28.52,1.67,1,3.17,1.5,4.36l.44,1.09.15.33.37.84c0,.11.1.21.15.33l.55,1.14h0l.61,1.22.13.25c.18.34.35.68.54,1,0,.07.08.14.11.22a24.8,24.8,0,0,1,1.81,5.36c1.86,7.07-.46,11.35-.76,11.85a7,7,0,0,0-7.42-.07,4.32,4.32,0,0,0-1.64,4,11.31,11.31,0,0,0,1.08,3.2c0,1.74-5.94,4-8.71,3.94-4.38-.06-8.93-2.38-9.95-4.91-2.09-5.15-9.47-10.71-17.55-11.41s-17.74,1.66-24.32-3.11c-.74-.53-1.45-1.1-2.14-1.67l-1-.85-.42-.39-.9-.87c-.15-.15-.3-.29-.44-.44l-.7-.75-.45-.5c-.22-.24-.44-.5-.65-.75L105,66c-.21-.25-.41-.51-.6-.76s-.29-.38-.43-.58l-.55-.75-.41-.62-.5-.75c-.13-.22-.27-.44-.4-.67l-.44-.73c1.6-.29,2.37-4.83,2.56-8.45.15-3-3-10.37-3-10.37a30,30,0,0,0,11.53,1.57M102.07,62.65h0M57.5,93.47c-1.64,1-4.67,1.56-6.36,2-3.14.77-5,0-7.19-.43s-5.28-3.1-5.28-3.1,2.18-2.85,2-5.59c-.14-2.59-2.56-5-4-5.93-1.94-1.23-4,.68-4,.68a32,32,0,0,1,.43-9.25c1.31-5.49,4.22-11.63,5.28-14.32.46-1.19,1-2.69,1.5-4.36.13-.42.26-.84.39-1.28.07-.22.14-.44.2-.67.2-.66.4-1.35.61-2,.13-.46.26-.93.4-1.41l.39-1.42c.07-.24.14-.48.2-.72l.39-1.43c.06-.24.12-.47.19-.71.25-.94.5-1.88.73-2.78l1-3.82c0-.19.09-.37.13-.55s0-.17.07-.25,0-.2.07-.3l.06-.23c0-.11.05-.22.08-.33s0-.12.05-.18a3.59,3.59,0,0,1,.08-.35l0-.15c0-.15.07-.3.11-.44a1.89,1.89,0,0,0,.05-.23,1.05,1.05,0,0,0,0-.19c0-.1,0-.21.08-.31v0c.34-1.39.55-2.27.58-2.38h0a48.18,48.18,0,0,1,4-8.26c1-1.63,3.35-4.49,3.35-4.49a70.08,70.08,0,0,1,6.11-5.55,32,32,0,0,1,4.43-2.72c1.57-.83,4.13-1.88,5.5-2.44a.65.65,0,0,1,0-.1c1.38-.48,1-.34,0,.1C69.05,8.3,68,14.26,69,18.1a10.39,10.39,0,0,0,2,4.26,17.36,17.36,0,0,0,6.4,5.22,17.74,17.74,0,0,0,8.25.94c.55-.07,5.12-1.41,7.58-4.53A8.37,8.37,0,0,0,95,20.92c.83-2,.46-7.11.2-8.85A50.13,50.13,0,0,0,94.12,7s5.19,2,6.32,2.64c4.46,2.38,4.32,3.89,4.26,4.33l-.14.28c-.31.32-.61.64-.91,1l-.1.11c-.31.34-.61.68-.9,1l-.25.3-.72.88c-.31.4-.62.81-.92,1.22a40.68,40.68,0,0,0-7.25,30.45c.08.47.17.94.26,1.41l.06.31c.09.46.19.92.3,1.37l0,.14c.11.43.22.85.34,1.28,0,.09,0,.17.07.26.13.45.26.89.4,1.34l.12.35c.12.39.27.78.41,1.17l0,.09c.16.45.33.89.51,1.33,0,.1.09.2.13.3.36.87.75,1.72,1.17,2.56l.1.18c.21.43.44.86.67,1.28a.25.25,0,0,1,0,.07q.34.63.72,1.23l.06.11c.26.42.52.84.79,1.24l.07.12c.55.82,1.13,1.63,1.74,2.41l.09.12c.61.79,1.26,1.55,1.93,2.29l.08.09c.21.23.51.52.78.79l.22.21a1.17,1.17,0,0,1,.05.11c.33.71-1,3.19-2.71,3.14-6.92-.19-16.47,1-21.77,3.27S67.47,87.18,62.33,91a16.09,16.09,0,0,1-4.83,2.45m129,33.53a61.67,61.67,0,0,1-10.16,23.65c-10.72,14.2-18.15,23.42-46.08,32.54-6.48,2.12-27.36,3.68-37.31.57-2.45-.77-8.31-2.52-12-7.53-2-2.69-5.65-12-3.73-18.2.31-1,6.46,4.94,5.61,3.72-5.54-8-.38-9.78,5.06-9.43.78.05,4.73,4,4.73,4s-1.83-3.55-1.38-3.63c3.13-.56,7.62.11,15.42-.75a73.74,73.74,0,0,0,22.39-5.83,81.62,81.62,0,0,0,17.3-10.23,84.59,84.59,0,0,0,8.32-7.59c2.37-2.59,4.86-5.93,5.29-7.33,3.07-10.09-5.18-1.82-6.65-2.07a19.71,19.71,0,0,0,4.72-3.57,4.61,4.61,0,0,0,1.27-5.9,14,14,0,0,0-1.76-2.19c-1-1-2.3-2.4-3.32-1.46-1.37,1.26-5.83,4.19-5.83,4.19s4.75-3.86,4.22-5.74c-.21-.73-3.08-.62-3.18-.62a12.35,12.35,0,0,0-2.31.17,15.13,15.13,0,0,0-2.17.57l-.5.21-.54.21-.48.25a5.09,5.09,0,0,0-.71.36c-.32.19-.74.47-1,.62-.64.39-1.42,1.09-2.23,1.66s-2.1,1.71-2.1,1.71l-1.43,1.3L134.57,112s-.89.85-1.24,1.26l-.08.09.08-.09h0A12.92,12.92,0,0,1,131,115a133.32,133.32,0,0,1-19.9,7.75c-4.43,1.4-24.72,5.51-38.34,3.18-1-.18-8.5-2.82-8.64-4.5s7-2.16,7-2.16-10.89-1.81-11.23-3.53c-.77-3.84-.42-6.8,1.23-9.2.24-.35,10.52.88,10.52.88s-7.88-3.62-6.62-4.39c3.87-2.35,6-2.22,9.16-2.29,1.42,0,3.25,0,4.92-.14,1.45-.09,3.76-.28,3.76-.28s1.84-.21,2.7-.34c1.55-.23,2.92-.53,4-.76a45.78,45.78,0,0,0,7-2,38.76,38.76,0,0,0,6-2.81c1.07-.59,4.71-2.69,6.22-3.81,6.6-4.9,6.13-5,8-6.75a22.77,22.77,0,0,1,5.09-3.64,16.44,16.44,0,0,1,3.05-1.25,8.23,8.23,0,0,1,1.78-.35,27.23,27.23,0,0,1,5.25-.22c2.7.26,4.63.65,4.63.65s7.3,1.7,9.92,4.66c4.37,4.92,4.46,7.23,6.3,8.59A12.79,12.79,0,0,0,158.38,95a25.68,25.68,0,0,0,13.1-.69c2.81-1,10.06-7.18,10.06-7.18,3.81,5.91,9.12,20.16,4.94,39.91"/><path class="cls-1" d="M186.48,127a61.67,61.67,0,0,1-10.16,23.65c-10.72,14.2-18.15,23.42-46.08,32.54-6.48,2.12-27.36,3.68-37.31.57-2.45-.77-8.31-2.52-12-7.53-2-2.69-5.65-12-3.73-18.2.31-1,6.46,4.94,5.61,3.72-5.54-8-.38-9.78,5.06-9.43.78.05,4.73,4,4.73,4s-1.83-3.55-1.38-3.63c3.13-.56,7.62.11,15.42-.75a73.74,73.74,0,0,0,22.39-5.83,81.62,81.62,0,0,0,17.3-10.23,84.59,84.59,0,0,0,8.32-7.59c2.37-2.59,4.86-5.93,5.29-7.33,3.07-10.09-5.18-1.82-6.65-2.07a19.71,19.71,0,0,0,4.72-3.57,4.61,4.61,0,0,0,1.27-5.9,14,14,0,0,0-1.76-2.19c-1-1-2.3-2.4-3.32-1.46-1.37,1.26-5.83,4.19-5.83,4.19s4.75-3.86,4.22-5.74c-.21-.73-3.08-.62-3.18-.62a12.35,12.35,0,0,0-2.31.17,15.13,15.13,0,0,0-2.17.57l-.5.21-.54.21-.48.25a5.09,5.09,0,0,0-.71.36c-.32.19-.74.47-1,.62-.64.39-1.42,1.09-2.23,1.66s-2.1,1.71-2.1,1.71l-1.43,1.3L134.57,112s-.89.85-1.24,1.26l-.08.09.08-.09h0A12.92,12.92,0,0,1,131,115a133.32,133.32,0,0,1-19.9,7.75c-4.43,1.4-24.72,5.51-38.34,3.18-1-.18-8.5-2.82-8.64-4.5s7-2.16,7-2.16-10.89-1.81-11.23-3.53c-.77-3.84-.42-6.8,1.23-9.2.24-.35,10.52.88,10.52.88s-7.88-3.62-6.62-4.39c3.87-2.35,6-2.22,9.16-2.29,1.42,0,3.25,0,4.92-.14,1.45-.09,3.76-.28,3.76-.28s1.84-.21,2.7-.34c1.55-.23,2.92-.53,4-.76a45.78,45.78,0,0,0,7-2,38.76,38.76,0,0,0,6-2.81c1.07-.59,4.71-2.69,6.22-3.81,6.6-4.9,6.13-5,8-6.75a22.77,22.77,0,0,1,5.09-3.64,16.44,16.44,0,0,1,3.05-1.25,8.23,8.23,0,0,1,1.78-.35,27.23,27.23,0,0,1,5.25-.22c2.7.26,4.63.65,4.63.65s7.3,1.7,9.92,4.66c4.37,4.92,4.46,7.23,6.3,8.59A12.79,12.79,0,0,0,158.38,95a25.68,25.68,0,0,0,13.1-.69c2.81-1,10.06-7.18,10.06-7.18,3.81,5.91,9.12,20.16,4.94,39.91"/></g></g></svg>