<svg xmlns="http://www.w3.org/2000/svg" viewBox="0 0 1653.23 642.77"><defs><style>.cls-1{fill:#7f7f7f;}.cls-2{fill:#fff;}</style></defs><g id="Capa_2" data-name="Capa 2"><g id="Capa_3" data-name="Capa 3"><path class="cls-1" d="M321.39,642.77a316.86,316.86,0,0,1-124.8-25.46A325.15,325.15,0,0,1,25.46,446.18a318.55,318.55,0,0,1,0-249.58A325.12,325.12,0,0,1,196.59,25.46,320.29,320.29,0,0,1,507.2,59.16,46,46,0,1,1,454,134.23,228.16,228.16,0,0,0,321.39,92C194.9,92,92,194.9,92,321.39S194.9,550.77,321.39,550.77s229.38-102.9,229.38-229.38a46,46,0,0,1,92,0,316.81,316.81,0,0,1-25.46,124.79A325.15,325.15,0,0,1,446.18,617.31,316.81,316.81,0,0,1,321.39,642.77Z"/><path class="cls-2" d="M321.39,592.94h0a46,46,0,0,1,38.3-45.37c93.28-15.74,167.61-88,186.45-180.18H321.39a46,46,0,0,1-46-46V96.63C183.18,115.47,110.94,189.8,95.2,283.08a46,46,0,0,1-45.36,38.31h0A46,46,0,0,1,4.42,267.88,321.18,321.18,0,0,1,321.28,0a46,46,0,0,1,46.11,46V275.39H596.77a46,46,0,0,1,46,46.1A321.29,321.29,0,0,1,374.9,638.35,46,46,0,0,1,321.39,592.94Z"/><path class="cls-2" d="M837.3,92a12.48,12.48,0,0,1,4.83,1,9.74,9.74,0,0,1,4,3.13l70,105.71-8.62-.26L978.24,96.18q3.13-4.7,8.36-4.17a9.58,9.58,0,0,1,9.39,9.65V264.79a9.8,9.8,0,0,1-9.92,9.92,9.89,9.89,0,0,1-7.3-2.87,9.58,9.58,0,0,1-2.87-7V120.46l6,1L919,217a10.54,10.54,0,0,1-3.4,3,8.92,8.92,0,0,1-4.43,1.17,9.2,9.2,0,0,1-4.31-1.17,10,10,0,0,1-3.52-3L841,121.24l5.22-5.74V264.79a10.12,10.12,0,0,1-2.61,7,9.46,9.46,0,0,1-13.57,0,10.07,10.07,0,0,1-2.61-7V101.66a9.23,9.23,0,0,1,2.87-6.78A9.54,9.54,0,0,1,837.3,92Z"/><path class="cls-2" d="M1047.93,120.72q-6.27,0-9.27-2.61t-3-7.83v-3.14q0-5.48,3.27-8t9.26-2.48c4,0,7,.88,9,2.61s3,4.36,3,7.83v3.14c0,3.65-1,6.31-3.13,8S1051.93,120.72,1047.93,120.72Zm9.92,144.07a9.8,9.8,0,0,1-9.92,9.92,9.19,9.19,0,0,1-6.92-2.87,9.87,9.87,0,0,1-2.74-7V147.86a9.62,9.62,0,0,1,2.87-7.05,9.31,9.31,0,0,1,6.79-2.87,9.49,9.49,0,0,1,7.18,2.87,9.87,9.87,0,0,1,2.74,7.05Z"/><path class="cls-2" d="M1151.55,136.9a56.07,56.07,0,0,1,21,3.91,62.4,62.4,0,0,1,17,9.92,53.39,53.39,0,0,1,11.35,12.79q4.19,6.79,4.18,12.79l-5-4.18v-23a9.8,9.8,0,0,1,2.74-7,9.93,9.93,0,0,1,14,0,10.13,10.13,0,0,1,2.61,7V263q0,21.41-8.88,35.63a55.43,55.43,0,0,1-23.88,21.27q-15,7-33.8,7.05a93.37,93.37,0,0,1-34.58-7.44q-7.18-3.27-9-6.4c-2.26-1.91-3.56-3.83-3.91-5.74a6.3,6.3,0,0,1,1.3-5.22q2.61-3.39,6.14-2.87a50.67,50.67,0,0,1,9.26,2.61q2.35.78,7.18,2.61a73.22,73.22,0,0,0,11.22,3.13,64.44,64.44,0,0,0,12.92,1.31q22.44,0,34.58-12t12.14-32.1V240.25l2.87,1.31a37.63,37.63,0,0,1-6.78,14.35,51.41,51.41,0,0,1-12,11.36,57.82,57.82,0,0,1-32.36,10.05,60.11,60.11,0,0,1-32.76-9.14,65.45,65.45,0,0,1-23-24.92q-8.47-15.8-8.48-36.15t8.48-36.28a64.34,64.34,0,0,1,23-24.93A60.33,60.33,0,0,1,1151.55,136.9Zm2.34,18a44.84,44.84,0,0,0-24.53,6.78,46.52,46.52,0,0,0-16.7,18.53q-6,11.75-6,26.89a57.58,57.58,0,0,0,6,26.62,47.42,47.42,0,0,0,16.7,18.66,44.19,44.19,0,0,0,24.53,6.92,44.81,44.81,0,0,0,24.41-6.66,47.61,47.61,0,0,0,16.83-18.53,57,57,0,0,0,6.27-27q0-15.41-6.27-27.15a47.86,47.86,0,0,0-16.83-18.4A44.89,44.89,0,0,0,1153.89,154.91Z"/><path class="cls-2" d="M1357.47,140.55a9.37,9.37,0,0,1,9.66,9.66V222q0,26.37-14.75,40.59t-40.58,14.22q-25.59,0-40.33-14.22T1256.73,222V150.21a9.15,9.15,0,0,1,2.87-6.92,9.51,9.51,0,0,1,6.78-2.74,9.74,9.74,0,0,1,7.18,2.74,9.38,9.38,0,0,1,2.74,6.92V222q0,18.28,9.27,27.54t26.23,9.27q17.22,0,26.62-9.27t9.4-27.54V150.21a9.37,9.37,0,0,1,9.65-9.66Z"/><path class="cls-2" d="M1466.83,277.32q-20.62,0-36.15-8.75a62.56,62.56,0,0,1-24.27-24.27q-8.75-15.53-8.74-35.89,0-22.71,9-38.63t23.23-24.4a58.42,58.42,0,0,1,30.41-8.48,60.55,60.55,0,0,1,23,4.44A61.57,61.57,0,0,1,1502.85,154a62.23,62.23,0,0,1,13.83,20,67.8,67.8,0,0,1,5.48,26.62,8.47,8.47,0,0,1-2.87,6.53,9.75,9.75,0,0,1-6.78,2.61H1408.89L1404.71,193h101l-3.92,3.4v-5.75a35.32,35.32,0,0,0-7.3-18.92,42.7,42.7,0,0,0-15.27-12.26,43.19,43.19,0,0,0-18.92-4.31,45.31,45.31,0,0,0-15.66,2.87,39.94,39.94,0,0,0-14.23,9.13,44.5,44.5,0,0,0-10.18,16.19q-3.78,9.91-3.78,23.75,0,15.13,6.13,26.88A46.19,46.19,0,0,0,1440,252.52q11.22,6.79,26.36,6.79a50.06,50.06,0,0,0,16-2.35,43.36,43.36,0,0,0,12-6.14,65.71,65.71,0,0,0,8.74-7.69,10.4,10.4,0,0,1,6.26-2.35,7.61,7.61,0,0,1,5.75,2.48,8,8,0,0,1,2.34,5.61,9.38,9.38,0,0,1-3.65,7.31,65.37,65.37,0,0,1-20,14.87A59,59,0,0,1,1466.83,277.32Z"/><path class="cls-2" d="M1574.36,264.79a9.8,9.8,0,0,1-9.92,9.92,9.15,9.15,0,0,1-6.91-2.87,9.83,9.83,0,0,1-2.74-7V91.48a9.8,9.8,0,0,1,9.91-9.91,9.14,9.14,0,0,1,6.92,2.87,9.79,9.79,0,0,1,2.74,7Z"/><path class="cls-2" d="M921.4,553.11a96.64,96.64,0,0,1-37.2-7,92.13,92.13,0,0,1-30-19.84,89.66,89.66,0,0,1-20-29.88,101.78,101.78,0,0,1,0-74.39,89.76,89.76,0,0,1,20-29.88,92.13,92.13,0,0,1,30-19.84,96.65,96.65,0,0,1,37.2-7.05,107.22,107.22,0,0,1,26.1,3.14,79.91,79.91,0,0,1,22.7,9.39,8.69,8.69,0,0,1,3.53,3.53,9.85,9.85,0,0,1-1.7,11.61,9,9,0,0,1-6.52,2.87,7.89,7.89,0,0,1-2.74-.52c-1-.35-1.88-.69-2.74-1a86.49,86.49,0,0,0-18-7.05,78.81,78.81,0,0,0-20.62-2.61q-21.15,0-37.72,9.92a72,72,0,0,0-26.1,26.75q-9.52,16.83-9.52,38t9.52,38.11A70.65,70.65,0,0,0,883.68,524q16.58,9.79,37.72,9.79a85.64,85.64,0,0,0,22.18-3,72.83,72.83,0,0,0,19.32-8l-1.57,6V472.47l3.91,3.65H924a9.8,9.8,0,0,1-7-2.74,9.77,9.77,0,0,1,0-13.83,9.8,9.8,0,0,1,7-2.74h48a9,9,0,0,1,7.05,2.87,9.73,9.73,0,0,1,2.61,6.78V527.8a9.18,9.18,0,0,1-1.31,5,13.47,13.47,0,0,1-3.39,3.65,109.56,109.56,0,0,1-26,12.14A96.48,96.48,0,0,1,921.4,553.11Z"/><path class="cls-2" d="M1141.94,483.17q0,20.1-8.87,36a66.7,66.7,0,0,1-116.54,0q-9-15.91-9-36,0-20.37,9-36.28a67.14,67.14,0,0,1,24.27-25.06,68.34,68.34,0,0,1,68.25,0,66.58,66.58,0,0,1,24,25.06Q1141.94,462.81,1141.94,483.17Zm-19.31,0q0-15.41-6.27-27.15a48.2,48.2,0,0,0-17.09-18.53,47.31,47.31,0,0,0-48.81,0,48.22,48.22,0,0,0-17.1,18.53q-6.25,11.75-6.26,27.15,0,15.13,6.26,26.75a48.42,48.42,0,0,0,17.1,18.4,47.31,47.31,0,0,0,48.81,0,48.4,48.4,0,0,0,17.09-18.4Q1122.63,498.31,1122.63,483.17Zm-49.86-79.35a5.43,5.43,0,0,1-3.39-1.56,5,5,0,0,1-1.83-3.92,7.64,7.64,0,0,1,1.57-3.91l15.66-25.32a20.73,20.73,0,0,1,4-4.83,8.5,8.5,0,0,1,5.87-2.22c3.3,0,5.78.88,7.44,2.61a9.48,9.48,0,0,1,2.48,6.79,7.83,7.83,0,0,1-.92,3.78,32.64,32.64,0,0,1-2.22,3.53l-19.83,20.88a12.37,12.37,0,0,1-4.05,3.13A11.15,11.15,0,0,1,1072.77,403.82Z"/><path class="cls-2" d="M1235.9,414.26q17.47,0,28.71,8.88t14.87,25.31l-3.65.26,1.57-4.43q3.12-7.57,10.83-14.49A64.06,64.06,0,0,1,1306,418.57a51.51,51.51,0,0,1,20.48-4.31q17,0,27,7.31a39.93,39.93,0,0,1,14.35,19.58,82.35,82.35,0,0,1,4.31,27.4v72a9.79,9.79,0,0,1-2.74,7,9.77,9.77,0,0,1-13.83,0,9.79,9.79,0,0,1-2.74-7V469.33a55.36,55.36,0,0,0-3-18.79,27.41,27.41,0,0,0-9.91-13.31q-6.93-5-18.67-5a41,41,0,0,0-19.83,5,40.1,40.1,0,0,0-14.62,13.31,33.55,33.55,0,0,0-5.48,18.79v71.26a9.79,9.79,0,0,1-2.74,7,9.77,9.77,0,0,1-13.83,0,9.79,9.79,0,0,1-2.74-7v-72a55.64,55.64,0,0,0-2.87-18.4,26.47,26.47,0,0,0-9.53-13q-6.66-4.83-18.4-4.83a39.79,39.79,0,0,0-19.32,4.83,38.77,38.77,0,0,0-14.22,13,33,33,0,0,0-5.35,18.4v72a9.8,9.8,0,0,1-9.92,9.91,9.11,9.11,0,0,1-6.91-2.87,9.79,9.79,0,0,1-2.74-7V426a9.15,9.15,0,0,1,2.87-6.92,9.47,9.47,0,0,1,6.78-2.74,9.7,9.7,0,0,1,7.18,2.74,9.38,9.38,0,0,1,2.74,6.92v21.14l-6.26,7.31a37.6,37.6,0,0,1,5.35-14.36,56.08,56.08,0,0,1,26.49-22.31A47.08,47.08,0,0,1,1235.9,414.26Z"/><path class="cls-2" d="M1472.1,553.11q-20.62,0-36.15-8.74a62.63,62.63,0,0,1-24.27-24.27q-8.75-15.53-8.74-35.89,0-22.71,9-38.63t23.23-24.4a58.4,58.4,0,0,1,30.41-8.48,60.74,60.74,0,0,1,23,4.43A61.25,61.25,0,0,1,1522,449.76a67.8,67.8,0,0,1,5.48,26.62,8.47,8.47,0,0,1-2.87,6.53,9.75,9.75,0,0,1-6.78,2.61H1414.16L1410,468.81h101l-3.92,3.39v-5.74a35.29,35.29,0,0,0-7.3-18.92,42.62,42.62,0,0,0-15.27-12.27,43.35,43.35,0,0,0-18.92-4.3,45.08,45.08,0,0,0-15.66,2.87,39.81,39.81,0,0,0-14.23,9.13,44.46,44.46,0,0,0-10.18,16.18q-3.78,9.93-3.78,23.76,0,15.13,6.13,26.88a46.19,46.19,0,0,0,17.36,18.53q11.22,6.79,26.36,6.78a50.07,50.07,0,0,0,16.05-2.34,43.36,43.36,0,0,0,12-6.14,65,65,0,0,0,8.74-7.7,10.46,10.46,0,0,1,6.26-2.35,7.64,7.64,0,0,1,5.75,2.48,8,8,0,0,1,2.34,5.62,9.35,9.35,0,0,1-3.65,7.3,65.39,65.39,0,0,1-20,14.88A59,59,0,0,1,1472.1,553.11Z"/><path class="cls-2" d="M1643.32,532.5a8.9,8.9,0,0,1,9.13,9.13,8.51,8.51,0,0,1-2.61,6.26,8.8,8.8,0,0,1-6.52,2.61h-84.57a8.33,8.33,0,0,1-6.92-3.13,9.8,9.8,0,0,1-2.47-6,25.42,25.42,0,0,1,.78-3.92,12.32,12.32,0,0,1,2.09-3.91l76-103.36.52,2.87h-64.47a9,9,0,0,1-6.65-2.74,8.72,8.72,0,0,1-2.74-6.39,8.24,8.24,0,0,1,2.74-6.4,9.55,9.55,0,0,1,6.65-2.47h79.87a8.62,8.62,0,0,1,6.52,2.74,9.61,9.61,0,0,1,2.61,6.91,24.08,24.08,0,0,1-.78,3.27,12.74,12.74,0,0,1-2.09,3.78l-74.91,102-2.34-1.3Z"/></g></g></svg>