<?xml version="1.0" encoding="utf-8"?>
<!-- Generator: Adobe Illustrator 24.3.0, SVG Export Plug-In . SVG Version: 6.00 Build 0)  -->
<svg version="1.1" id="Capa_1" xmlns="http://www.w3.org/2000/svg" xmlns:xlink="http://www.w3.org/1999/xlink" x="0px" y="0px"
	 viewBox="0 0 1007.5 391.7" style="enable-background:new 0 0 1007.5 391.7;" xml:space="preserve">
<style type="text/css">
	.st0{fill:#BD8C56;}
	.st1{fill:#FFFFFF;}
</style>
<g id="Capa_2_1_">
	<g id="Textos">
		<path class="st0" d="M195.9,391.7c-26.1,0-52-5.3-76.1-15.5c-46.9-20-84.2-57.4-104.3-104.3c-20.7-48.6-20.7-103.5,0-152.1
			c20-46.9,57.4-84.2,104.3-104.3C182.2-11,253.8-3.2,309.1,36c12.6,8.9,15.6,26.4,6.7,39.1c-8.9,12.6-26.4,15.6-39.1,6.7l0,0
			C253.1,65,224.8,56,195.9,56.1c-77.1,0-139.8,62.7-139.8,139.8s62.7,139.8,139.8,139.8S335.7,273,335.7,195.9
			c0-15.5,12.6-28,28-28s28,12.6,28,28c0,26.1-5.3,52-15.5,76.1c-20,46.9-57.4,84.3-104.3,104.3C247.9,386.5,222,391.8,195.9,391.7z
			"/>
		<path class="st1" d="M195.9,361.4L195.9,361.4c0-13.7,9.9-25.4,23.4-27.6c56.9-9.7,101.9-53.3,113.6-109.8h-137
			c-15.5,0-28-12.5-28-28v-137C111.3,70.6,67.7,115.7,58,172.5c-2.3,13.5-14,23.4-27.6,23.3l0,0c-15.5,0-28-12.5-28-28
			c0-1.6,0.1-3.1,0.4-4.7C18.6,69,100.2,0,195.8,0c15.5,0,28.1,12.5,28.1,28v139.8h139.8c15.5,0,28,12.6,28,28.1
			c0,95.6-69,177.2-163.2,193.1c-15.3,2.5-29.7-7.8-32.2-23C196,364.5,195.9,362.9,195.9,361.4z"/>
		<path class="st1" d="M510.3,56.1c1,0,2,0.2,2.9,0.6c1,0.4,1.8,1.1,2.5,1.9l42.6,64.4l-5.2-0.2l43.1-64.3c1-1.8,3-2.8,5.1-2.5
			c3.2,0.1,5.8,2.7,5.7,5.9c0,0,0,0,0,0v99.4c0,3.3-2.7,6-6,6c-1.7,0.1-3.3-0.6-4.5-1.8c-1.2-1.1-1.8-2.7-1.8-4.3v-88l3.7,0.6
			l-38.3,58.2c-0.5,0.8-1.3,1.4-2.1,1.8c-0.8,0.5-1.8,0.7-2.7,0.7c-0.9,0-1.8-0.3-2.6-0.7c-0.9-0.4-1.6-1.1-2.2-1.8l-38-58.4
			l3.2-3.5v91c0,1.6-0.5,3.1-1.6,4.3c-2.2,2.3-5.9,2.3-8.1,0.1c0,0-0.1-0.1-0.1-0.1c-1.1-1.2-1.6-2.7-1.6-4.3V62
			c0-1.6,0.6-3.1,1.7-4.2C507.1,56.7,508.7,56,510.3,56.1z"/>
		<path class="st1" d="M638.6,73.6c-2.5,0-4.4-0.5-5.6-1.6c-1.3-1.2-2-3-1.8-4.8v-1.9c0-2.2,0.7-3.8,2-4.8c1.7-1.1,3.7-1.6,5.7-1.5
			c2-0.1,3.9,0.4,5.5,1.6c1.3,1.2,2,3,1.8,4.8v1.9c0,2.2-0.6,3.8-1.9,4.8C642.6,73.2,640.6,73.7,638.6,73.6z M644.7,161.4
			c0,3.3-2.7,6-6,6c0,0,0,0-0.1,0c-1.6,0-3.1-0.6-4.2-1.8c-1.1-1.1-1.7-2.7-1.7-4.3V90.1c0-1.6,0.6-3.2,1.8-4.3
			c1.1-1.1,2.6-1.8,4.1-1.8c1.6-0.1,3.2,0.6,4.4,1.8c1.1,1.2,1.7,2.7,1.7,4.3L644.7,161.4z"/>
		<path class="st1" d="M701.8,83.4c4.4,0,8.7,0.8,12.8,2.4c3.7,1.4,7.2,3.5,10.3,6c2.7,2.2,5,4.8,6.9,7.8c1.6,2.3,2.4,5,2.5,7.8
			l-3-2.6v-14c0-1.6,0.6-3.1,1.7-4.3c1.1-1.2,2.6-1.8,4.2-1.8c1.6-0.1,3.2,0.6,4.3,1.8c1.1,1.2,1.6,2.7,1.6,4.3v69.3
			c0,8.7-1.8,15.9-5.4,21.7c-3.5,5.7-8.5,10.2-14.6,13c-6.5,2.9-13.5,4.4-20.6,4.3c-3.6,0-7.3-0.4-10.8-1.2c-3.5-0.7-7-1.8-10.3-3.3
			c-2.9-1.3-4.8-2.6-5.5-3.9c-1.2-0.9-2-2.1-2.4-3.5c-0.3-2.4,1.3-4.6,3.7-4.9c0.3,0,0.6-0.1,0.9,0c1.9,0.3,3.8,0.9,5.6,1.6
			c1,0.3,2.4,0.8,4.4,1.6c2.2,0.8,4.5,1.5,6.8,1.9c2.6,0.5,5.2,0.8,7.9,0.8c9.1,0,16.1-2.4,21.1-7.3s7.4-11.4,7.4-19.6v-15l1.8,0.8
			c-0.7,3.2-2.1,6.2-4.1,8.8c-2.1,2.7-4.5,5-7.3,6.9c-5.8,3.9-12.7,6.1-19.7,6.1c-7.1,0.1-14-1.8-20-5.6c-5.9-3.7-10.7-9-14-15.2
			c-3.5-6.8-5.3-14.3-5.2-22c-0.1-7.7,1.6-15.3,5.2-22.1c3.2-6.2,8.1-11.5,14-15.2C687.9,85.2,694.8,83.3,701.8,83.4z M703.2,94.4
			c-5.3-0.1-10.5,1.3-15,4.1c-4.4,2.8-7.9,6.7-10.2,11.3c-2.5,5.1-3.8,10.7-3.7,16.4c-0.1,5.6,1.2,11.2,3.7,16.2
			c2.3,4.6,5.8,8.6,10.2,11.4c4.5,2.9,9.7,4.3,15,4.2c5.2,0.1,10.4-1.3,14.9-4c4.4-2.8,7.9-6.7,10.3-11.3c2.6-5.1,3.9-10.7,3.8-16.5
			c0.1-5.7-1.2-11.4-3.8-16.5c-2.4-4.6-5.9-8.5-10.3-11.2C713.6,95.7,708.5,94.3,703.2,94.4L703.2,94.4z"/>
		<path class="st1" d="M827.3,85.7c3.2-0.1,5.8,2.4,5.9,5.5c0,0.1,0,0.2,0,0.3v43.7c0,10.7-3,19-9,24.7c-6,5.8-14.2,8.7-24.7,8.7
			c-10.4,0-18.6-2.9-24.6-8.7c-6-5.8-9-14-9-24.7V91.5c0-1.6,0.6-3.1,1.8-4.2c1.1-1.1,2.6-1.7,4.1-1.7c1.6-0.1,3.2,0.5,4.4,1.7
			c1.1,1.1,1.7,2.6,1.7,4.2v43.7c0,7.4,1.9,13,5.7,16.8c3.8,3.8,9.1,5.6,16,5.6c7,0,12.4-1.9,16.2-5.6c3.8-3.8,5.7-9.4,5.7-16.8
			V91.5c-0.1-3.2,2.4-5.8,5.5-5.9C827,85.7,827.2,85.7,827.3,85.7L827.3,85.7z"/>
		<path class="st1" d="M893.9,169c-7.7,0.2-15.3-1.7-22-5.3c-6.2-3.5-11.3-8.6-14.8-14.8c-3.7-6.7-5.5-14.2-5.4-21.9
			c0-9.2,1.8-17.1,5.5-23.5c3.3-6.1,8.2-11.2,14.2-14.9c5.6-3.4,12-5.2,18.6-5.2c4.8,0,9.6,0.9,14,2.7c9.1,3.7,16.4,10.8,20.3,19.9
			c2.2,5.1,3.3,10.6,3.3,16.2c0,1.5-0.6,3-1.8,4c-1.1,1-2.6,1.6-4.1,1.6h-63.2l-2.5-10.2h61.5l-2.4,2.1v-3.5
			c-0.3-4.2-1.9-8.2-4.5-11.5c-2.5-3.2-5.7-5.7-9.3-7.5c-3.6-1.7-7.5-2.6-11.5-2.6c-3.3,0-6.5,0.6-9.5,1.8c-3.3,1.2-6.2,3.1-8.7,5.6
			c-2.8,2.8-4.9,6.2-6.2,9.9c-1.6,4.6-2.4,9.6-2.3,14.5c-0.1,5.7,1.2,11.3,3.7,16.4c2.4,4.7,6.1,8.6,10.6,11.3
			c7.9,4.3,17.2,5.3,25.8,2.7c2.6-0.9,5.1-2.1,7.3-3.7c1.9-1.4,3.7-3,5.3-4.7c1.1-0.9,2.4-1.4,3.8-1.4c1.3,0,2.6,0.5,3.5,1.5
			c0.9,0.9,1.4,2.1,1.4,3.4c0,1.7-0.8,3.4-2.2,4.4c-3.4,3.8-7.6,6.9-12.2,9.1C905.3,167.8,899.7,169.1,893.9,169z"/>
		<path class="st1" d="M959.5,161.4c0,3.3-2.7,6-6,6c0,0,0,0-0.1,0c-1.6,0-3.1-0.6-4.2-1.8c-1.1-1.1-1.7-2.7-1.7-4.3V55.8
			c0-3.3,2.7-6,6-6c1.6,0,3.1,0.6,4.2,1.8c1.1,1.2,1.7,2.7,1.7,4.3L959.5,161.4z"/>
		<path class="st1" d="M561.5,337.1c-7.8,0.1-15.5-1.4-22.7-4.3c-6.8-2.8-13-6.9-18.3-12.1c-5.2-5.2-9.4-11.4-12.2-18.2
			c-5.7-14.6-5.7-30.8,0-45.3c2.8-6.8,6.9-13,12.2-18.2c5.2-5.2,11.5-9.3,18.3-12.1c7.2-2.9,14.9-4.4,22.7-4.3
			c5.4,0,10.7,0.6,15.9,1.9c4.9,1.2,9.6,3.1,13.8,5.7c0.9,0.5,1.7,1.2,2.2,2.1c1.3,2.3,0.9,5.2-1,7.1c-1,1.1-2.5,1.7-4,1.8
			c-0.6,0-1.1-0.1-1.7-0.3c-0.6-0.2-1.1-0.4-1.7-0.6c-3.5-1.8-7.2-3.3-11-4.3c-4.1-1.1-8.3-1.6-12.6-1.6c-16.1-0.3-31,8.3-38.9,22.4
			c-3.9,7.1-5.9,15.1-5.8,23.1c-0.1,8.1,1.9,16.1,5.8,23.2c3.7,6.8,9.2,12.4,15.9,16.3c7,4.1,14.9,6.1,23,6c4.6,0,9.1-0.6,13.5-1.8
			c4.1-1,8.1-2.7,11.8-4.9l-1,3.7v-34.4l2.4,2.2h-25.1c-1.6,0-3.1-0.6-4.3-1.7c-2.3-2.3-2.3-6.1,0-8.4c1.2-1.1,2.7-1.7,4.3-1.7h29.3
			c1.6-0.1,3.2,0.6,4.3,1.8c1,1.1,1.6,2.6,1.6,4.1v37.4c0,1.1-0.2,2.1-0.8,3c-0.5,0.9-1.3,1.6-2.1,2.2c-4.9,3.1-10.3,5.6-15.8,7.4
			C573.7,336.2,567.7,337.1,561.5,337.1z"/>
		<path class="st1" d="M695.9,294.5c0.1,7.7-1.7,15.3-5.4,22c-10.9,19.6-35.7,26.6-55.3,15.7c-6.6-3.7-12-9.1-15.7-15.7
			c-7.3-13.8-7.3-30.3,0-44.1c3.5-6.3,8.6-11.6,14.8-15.3c12.9-7.4,28.7-7.4,41.6,0c6.1,3.7,11.2,9,14.6,15.3
			C694.2,279.2,696.1,286.8,695.9,294.5z M684.2,294.5c0.1-5.7-1.2-11.4-3.8-16.5c-2.4-4.6-6-8.5-10.4-11.3
			c-9.2-5.5-20.6-5.5-29.8,0c-4.4,2.8-8,6.7-10.4,11.3c-2.6,5.1-3.9,10.8-3.8,16.5c-0.1,5.7,1.2,11.3,3.8,16.3
			c2.4,4.6,6,8.5,10.4,11.2c9.1,5.5,20.6,5.5,29.8,0c4.4-2.8,8-6.6,10.4-11.2C683,305.8,684.3,300.1,684.2,294.5z M653.8,246.1
			c-0.8-0.1-1.5-0.4-2.1-0.9c-0.7-0.6-1.1-1.5-1.1-2.4c0.1-0.9,0.4-1.7,1-2.4l9.5-15.4c0.7-1.1,1.5-2.1,2.5-2.9
			c1-0.9,2.3-1.4,3.6-1.4c1.7-0.1,3.3,0.5,4.5,1.6c1,1.1,1.6,2.6,1.5,4.1c0,0.8-0.2,1.6-0.6,2.3c-0.4,0.7-0.9,1.5-1.3,2.1
			l-12.1,12.7c-0.7,0.8-1.5,1.5-2.5,1.9C655.8,245.9,654.8,246.1,653.8,246.1z"/>
		<path class="st1" d="M753.2,252.5c7.1,0,12.9,1.8,17.5,5.4c4.6,3.6,7.6,8.7,9.1,15.4l-2.2,0.2l1-2.7c1.5-3.4,3.8-6.4,6.6-8.8
			c3.2-2.9,6.9-5.2,10.8-6.8c3.9-1.7,8.2-2.6,12.5-2.6c6.9,0,12.4,1.5,16.5,4.5c4.1,3,7.1,7.1,8.8,11.9c1.8,5.4,2.7,11,2.6,16.7
			v43.9c0,1.6-0.6,3.1-1.7,4.3c-2.3,2.3-6.1,2.3-8.4,0c-1.1-1.2-1.7-2.7-1.7-4.3V286c0.1-3.9-0.6-7.8-1.8-11.5
			c-1.1-3.3-3.2-6.1-6-8.1c-2.8-2-6.6-3-11.4-3c-4.2,0-8.4,1-12.1,3c-3.6,1.9-6.7,4.7-8.9,8.1c-2.3,3.4-3.5,7.4-3.4,11.5v43.4
			c0,1.6-0.6,3.1-1.7,4.3c-2.3,2.3-6.1,2.3-8.4,0c-1.1-1.2-1.7-2.7-1.7-4.3v-43.9c0.1-3.8-0.5-7.6-1.8-11.2c-1.1-3.2-3.1-6-5.8-8
			c-2.7-2-6.4-2.9-11.2-2.9c-4.1,0-8.2,1-11.8,2.9c-3.5,1.9-6.5,4.6-8.7,8c-2.2,3.3-3.3,7.2-3.3,11.2v43.9c0,3.3-2.7,6-6,6
			c-1.6,0-3.1-0.6-4.2-1.8c-1.1-1.2-1.7-2.7-1.7-4.3v-69.8c0-1.6,0.6-3.1,1.8-4.2c1.1-1.1,2.6-1.7,4.1-1.7c1.6-0.1,3.2,0.5,4.4,1.7
			c1.1,1.1,1.7,2.6,1.7,4.2v12.9l-3.9,4.5c0.5-3.1,1.6-6.1,3.3-8.8c3.8-6.1,9.5-10.9,16.2-13.6C745.7,253.2,749.4,252.5,753.2,252.5
			z"/>
		<path class="st1" d="M897.1,337.1c-7.7,0.2-15.3-1.7-22-5.3c-6.2-3.4-11.4-8.6-14.8-14.8c-3.7-6.7-5.5-14.3-5.3-21.9
			c0-9.2,1.8-17.1,5.5-23.5c3.3-6.1,8.2-11.2,14.2-14.9c5.6-3.4,12-5.2,18.5-5.2c4.8,0,9.6,0.9,14,2.7c9.1,3.7,16.5,10.8,20.4,19.9
			c2.2,5.1,3.3,10.6,3.3,16.2c0,1.5-0.6,3-1.8,4c-1.1,1-2.6,1.6-4.1,1.6h-63.2l-2.5-10.2h61.5l-2.4,2.1v-3.5
			c-0.3-4.2-1.9-8.2-4.5-11.6c-2.5-3.2-5.7-5.7-9.3-7.5c-3.6-1.7-7.5-2.6-11.5-2.6c-3.3,0-6.5,0.6-9.5,1.8c-3.2,1.2-6.2,3.1-8.6,5.6
			c-2.8,2.8-4.9,6.2-6.2,9.9c-1.6,4.6-2.4,9.6-2.3,14.5c-0.1,5.7,1.2,11.3,3.7,16.4c2.4,4.7,6,8.6,10.5,11.3
			c7.9,4.3,17.2,5.3,25.8,2.7c2.6-0.9,5.1-2.1,7.3-3.7c1.9-1.4,3.7-3,5.3-4.7c1.1-0.9,2.4-1.4,3.8-1.4c1.3,0,2.6,0.5,3.5,1.5
			c0.9,0.9,1.4,2.1,1.4,3.4c0,1.7-0.8,3.4-2.2,4.5c-3.4,3.8-7.6,6.8-12.2,9.1C908.5,335.8,902.9,337.1,897.1,337.1z"/>
		<path class="st1" d="M1001.5,324.5c3-0.1,5.5,2.3,5.6,5.3c0,0.1,0,0.2,0,0.3c0,1.4-0.6,2.8-1.6,3.8c-1.1,1.1-2.5,1.6-4,1.6H950
			c-1.6,0.1-3.2-0.6-4.2-1.9c-0.9-1-1.4-2.3-1.5-3.7c0.1-0.8,0.3-1.6,0.5-2.4c0.3-0.9,0.7-1.7,1.3-2.4l46.3-63l0.3,1.8h-39.3
			c-1.5,0-3-0.6-4-1.7c-1.1-1-1.7-2.4-1.7-3.9c0-1.5,0.6-2.9,1.7-3.9c1.1-1,2.5-1.5,4-1.5h48.7c1.5,0,3,0.6,4,1.7
			c1.1,1.1,1.6,2.7,1.6,4.2c-0.1,0.7-0.3,1.3-0.5,2c-0.3,0.8-0.7,1.6-1.3,2.3l-45.7,62.2l-1.4-0.8L1001.5,324.5z"/>
	</g>
</g>
</svg>
