<svg xmlns="http://www.w3.org/2000/svg" viewBox="0 0 110 42.77"><defs><style>.cls-1{fill:#f5911e;}.cls-2{fill:#fff;}</style></defs><g id="Capa_2" data-name="Capa 2"><g id="header"><path class="cls-1" d="M21.38,42.77a21,21,0,0,1-8.3-1.7,21.28,21.28,0,0,1-6.79-4.59,21.59,21.59,0,0,1-4.6-6.79,21.25,21.25,0,0,1,0-16.61A21.72,21.72,0,0,1,13.08,1.69,21.33,21.33,0,0,1,33.75,3.94a3.06,3.06,0,0,1-3.54,5,15.26,15.26,0,1,0,6.44,12.45,3.06,3.06,0,0,1,6.12,0,21,21,0,0,1-1.7,8.31A21.59,21.59,0,0,1,29.69,41.07,21,21,0,0,1,21.38,42.77Z"/><path class="cls-2" d="M21.38,39.45h0a3.07,3.07,0,0,1,2.55-3,15.3,15.3,0,0,0,12.41-12h-15a3.06,3.06,0,0,1-3.06-3.06V6.43a15.31,15.31,0,0,0-12,12.41,3,3,0,0,1-3,2.54h0a3.06,3.06,0,0,1-3-3.56A21.41,21.41,0,0,1,13.06,1.68,21.32,21.32,0,0,1,21.38,0a3.06,3.06,0,0,1,3.06,3.06V18.32H39.71a3.07,3.07,0,0,1,3.06,3.07,21.47,21.47,0,0,1-13.06,19.7,21,21,0,0,1-4.77,1.38A3.06,3.06,0,0,1,21.38,39.45Z"/><path class="cls-2" d="M55.71,6.12a.92.92,0,0,1,.32.07.71.71,0,0,1,.27.21l4.66,7h-.58l4.71-7a.56.56,0,0,1,.55-.28.63.63,0,0,1,.63.64V17.62a.64.64,0,0,1-.19.47.67.67,0,0,1-.47.19.7.7,0,0,1-.49-.19.68.68,0,0,1-.19-.47V8l.4.07-4.18,6.36a.74.74,0,0,1-.23.2.6.6,0,0,1-.29.08.63.63,0,0,1-.29-.08.57.57,0,0,1-.23-.2L56,8.07l.35-.39v9.94a.71.71,0,0,1-.17.47.62.62,0,0,1-.45.19.59.59,0,0,1-.45-.19.67.67,0,0,1-.18-.47V6.76a.65.65,0,0,1,.19-.45A.68.68,0,0,1,55.71,6.12Z"/><path class="cls-2" d="M69.73,8a1,1,0,0,1-.62-.17.67.67,0,0,1-.2-.52V7.13a.61.61,0,0,1,.22-.53,1,1,0,0,1,.61-.17.86.86,0,0,1,.6.18.62.62,0,0,1,.2.52v.21a.64.64,0,0,1-.21.53A1,1,0,0,1,69.73,8Zm.66,9.59a.65.65,0,0,1-.2.47.64.64,0,0,1-.46.19.63.63,0,0,1-.46-.19.64.64,0,0,1-.19-.47V9.84a.67.67,0,0,1,.19-.47.62.62,0,0,1,.46-.19.61.61,0,0,1,.47.19.63.63,0,0,1,.19.47Z"/><path class="cls-2" d="M76.62,9.11a3.83,3.83,0,0,1,1.4.26,4,4,0,0,1,1.13.66,3.45,3.45,0,0,1,.75.85,1.58,1.58,0,0,1,.28.85l-.33-.28V9.92A.63.63,0,0,1,80,9.46a.6.6,0,0,1,.46-.19.58.58,0,0,1,.47.19.63.63,0,0,1,.18.46V17.5a4.34,4.34,0,0,1-.6,2.37A3.65,3.65,0,0,1,79,21.28a5.3,5.3,0,0,1-2.25.47,5.72,5.72,0,0,1-1.18-.14,5.49,5.49,0,0,1-1.12-.35,1.35,1.35,0,0,1-.6-.43.67.67,0,0,1-.26-.38.41.41,0,0,1,.08-.35.44.44,0,0,1,.41-.19,3.3,3.3,0,0,1,.62.17l.48.18a5.13,5.13,0,0,0,.74.21,5,5,0,0,0,.86.08,3.1,3.1,0,0,0,2.3-.8,2.85,2.85,0,0,0,.81-2.13V16l.19.08a2.49,2.49,0,0,1-.45,1,3.36,3.36,0,0,1-.8.75,3.72,3.72,0,0,1-1,.5,4.07,4.07,0,0,1-3.31-.44,4.35,4.35,0,0,1-1.53-1.65,5,5,0,0,1-.56-2.41,5,5,0,0,1,.56-2.41,4.31,4.31,0,0,1,1.53-1.66A4,4,0,0,1,76.62,9.11Zm.16,1.2a3,3,0,0,0-1.64.45A3.15,3.15,0,0,0,74,12a4,4,0,0,0-.4,1.79,3.91,3.91,0,0,0,.4,1.77,3.18,3.18,0,0,0,1.11,1.24,3.18,3.18,0,0,0,3.26,0,3.18,3.18,0,0,0,1.12-1.23,4.09,4.09,0,0,0,0-3.61,3.22,3.22,0,0,0-1.12-1.22A2.94,2.94,0,0,0,76.78,10.31Z"/><path class="cls-2" d="M90.32,9.35a.62.62,0,0,1,.46.18A.65.65,0,0,1,91,10v4.78a3.55,3.55,0,0,1-1,2.7,4.28,4.28,0,0,1-5.38,0,3.59,3.59,0,0,1-1-2.7V10a.62.62,0,0,1,.19-.46.65.65,0,0,1,1.11.46v4.78a2.48,2.48,0,0,0,.62,1.83,2.36,2.36,0,0,0,1.74.62,2.4,2.4,0,0,0,1.77-.62,2.45,2.45,0,0,0,.63-1.83V10a.65.65,0,0,1,.18-.46A.63.63,0,0,1,90.32,9.35Z"/><path class="cls-2" d="M97.6,18.45a4.8,4.8,0,0,1-2.41-.58,4.18,4.18,0,0,1-1.61-1.62A4.72,4.72,0,0,1,93,13.87a5.12,5.12,0,0,1,.6-2.57,4.25,4.25,0,0,1,1.54-1.63,4,4,0,0,1,2-.56,4.12,4.12,0,0,1,1.53.29,4,4,0,0,1,1.3.85,4.09,4.09,0,0,1,.93,1.32,4.59,4.59,0,0,1,.36,1.78.56.56,0,0,1-.19.43.63.63,0,0,1-.45.17h-6.9l-.27-1.11h6.72l-.26.23v-.38a2.35,2.35,0,0,0-.49-1.26,2.79,2.79,0,0,0-1-.82,2.91,2.91,0,0,0-1.26-.29,3,3,0,0,0-1,.2,2.56,2.56,0,0,0-.94.6,2.94,2.94,0,0,0-.68,1.08,4.4,4.4,0,0,0-.25,1.58,3.84,3.84,0,0,0,.4,1.79,3.12,3.12,0,0,0,1.16,1.23,3.33,3.33,0,0,0,1.75.45,3.46,3.46,0,0,0,1.07-.15,3,3,0,0,0,.8-.41,4.3,4.3,0,0,0,.58-.51.67.67,0,0,1,.42-.16.57.57,0,0,1,.54.54.62.62,0,0,1-.25.49,4.14,4.14,0,0,1-1.32,1A3.91,3.91,0,0,1,97.6,18.45Z"/><path class="cls-2" d="M104.75,17.62a.64.64,0,0,1-.19.47.67.67,0,0,1-.47.19.64.64,0,0,1-.46-.19.67.67,0,0,1-.18-.47V6.09a.63.63,0,0,1,.19-.47.64.64,0,0,1,.47-.19.59.59,0,0,1,.46.19.66.66,0,0,1,.18.47Z"/><path class="cls-2" d="M61.31,36.8a6.33,6.33,0,0,1-2.48-.47,6,6,0,0,1-2-1.32,5.81,5.81,0,0,1-1.33-2A6.33,6.33,0,0,1,55,30.55a6.25,6.25,0,0,1,.47-2.47,5.75,5.75,0,0,1,1.33-2,6,6,0,0,1,2-1.32,6.52,6.52,0,0,1,2.48-.47,7,7,0,0,1,1.73.21,5.21,5.21,0,0,1,1.51.62.56.56,0,0,1,.24.24.67.67,0,0,1,.08.3.67.67,0,0,1-.19.47.61.61,0,0,1-.44.19l-.18,0-.18-.07a5.26,5.26,0,0,0-1.2-.47,5.09,5.09,0,0,0-1.37-.18A4.77,4.77,0,0,0,57.06,28a5.08,5.08,0,0,0-.63,2.53,5.14,5.14,0,0,0,.63,2.54,4.72,4.72,0,0,0,1.74,1.78,4.86,4.86,0,0,0,2.51.65,5.78,5.78,0,0,0,1.47-.2,5.11,5.11,0,0,0,1.29-.53l-.11.4V31.44l.26.24H61.48A.67.67,0,0,1,61,31.5a.6.6,0,0,1-.19-.46.59.59,0,0,1,.19-.46.68.68,0,0,1,.47-.19h3.2a.58.58,0,0,1,.46.2.61.61,0,0,1,.18.45v4.08a.58.58,0,0,1-.09.33,1,1,0,0,1-.22.24,7.22,7.22,0,0,1-1.73.81A6.49,6.49,0,0,1,61.31,36.8Z"/><path class="cls-2" d="M76,32.15a4.84,4.84,0,0,1-.59,2.39,4.32,4.32,0,0,1-3.87,2.26,4.35,4.35,0,0,1-3.88-2.26,4.74,4.74,0,0,1-.6-2.39,4.85,4.85,0,0,1,.6-2.42,4.43,4.43,0,0,1,1.61-1.66,4.53,4.53,0,0,1,4.54,0,4.4,4.4,0,0,1,1.6,1.66A5,5,0,0,1,76,32.15Zm-1.28,0a3.78,3.78,0,0,0-.42-1.81,3.22,3.22,0,0,0-1.14-1.23,3,3,0,0,0-1.62-.45,3,3,0,0,0-1.63.45,3.12,3.12,0,0,0-1.13,1.23,3.78,3.78,0,0,0-.42,1.81,3.69,3.69,0,0,0,.42,1.78,3.16,3.16,0,0,0,1.13,1.22,3,3,0,0,0,1.63.45,3,3,0,0,0,1.62-.45,3.26,3.26,0,0,0,1.14-1.22A3.69,3.69,0,0,0,74.7,32.15Zm-3.32-5.28a.37.37,0,0,1-.23-.11A.31.31,0,0,1,71,26.5a.54.54,0,0,1,.11-.26l1-1.68a1.35,1.35,0,0,1,.27-.32.56.56,0,0,1,.39-.15.66.66,0,0,1,.49.17.65.65,0,0,1,.17.46.54.54,0,0,1-.06.25,2.22,2.22,0,0,1-.15.23L72,26.59a.9.9,0,0,1-.27.21A.71.71,0,0,1,71.38,26.87Z"/><path class="cls-2" d="M82.23,27.56a3,3,0,0,1,1.91.59,2.86,2.86,0,0,1,1,1.69l-.24,0,.1-.3a2.72,2.72,0,0,1,.72-1,4.29,4.29,0,0,1,1.19-.75,3.43,3.43,0,0,1,1.36-.29,3,3,0,0,1,1.8.49,2.67,2.67,0,0,1,1,1.3,5.53,5.53,0,0,1,.29,1.83V36a.67.67,0,0,1-.18.47.62.62,0,0,1-.46.19.59.59,0,0,1-.46-.19A.64.64,0,0,1,90,36V31.23a3.53,3.53,0,0,0-.2-1.25,1.79,1.79,0,0,0-.66-.89,2.07,2.07,0,0,0-1.24-.33,2.75,2.75,0,0,0-1.32.33,2.68,2.68,0,0,0-1,.89,2.26,2.26,0,0,0-.37,1.25V36a.67.67,0,0,1-.18.47.59.59,0,0,1-.46.19.6.6,0,0,1-.46-.19A.67.67,0,0,1,84,36V31.18A3.65,3.65,0,0,0,83.78,30a1.81,1.81,0,0,0-.64-.87,2.06,2.06,0,0,0-1.22-.32,2.74,2.74,0,0,0-1.29.32,2.71,2.71,0,0,0-.94.87,2.19,2.19,0,0,0-.36,1.23V36a.64.64,0,0,1-.19.47.63.63,0,0,1-.47.19.6.6,0,0,1-.46-.19A.67.67,0,0,1,78,36V28.35a.59.59,0,0,1,.19-.46.65.65,0,0,1,1.11.46v1.4l-.41.49a2.44,2.44,0,0,1,.35-1,3.72,3.72,0,0,1,.74-.86,3.53,3.53,0,0,1,1-.62A3.13,3.13,0,0,1,82.23,27.56Z"/><path class="cls-2" d="M98,36.8a4.8,4.8,0,0,1-2.41-.58,4.22,4.22,0,0,1-1.61-1.61,4.78,4.78,0,0,1-.58-2.39,5.12,5.12,0,0,1,.6-2.57A4.33,4.33,0,0,1,95.49,28a4,4,0,0,1,2-.56,4.08,4.08,0,0,1,3.76,2.47,4.51,4.51,0,0,1,.36,1.77.54.54,0,0,1-.19.43.63.63,0,0,1-.45.17h-6.9l-.27-1.11h6.72l-.26.23V31a2.35,2.35,0,0,0-.49-1.26,2.79,2.79,0,0,0-1-.82,2.9,2.9,0,0,0-1.26-.28,3,3,0,0,0-1,.19,2.64,2.64,0,0,0-.94.6,2.94,2.94,0,0,0-.68,1.08,4.4,4.4,0,0,0-.25,1.58A3.72,3.72,0,0,0,95,33.92a3,3,0,0,0,1.15,1.23,3.33,3.33,0,0,0,1.75.45A3.41,3.41,0,0,0,99,35.45a2.86,2.86,0,0,0,.8-.41,4.3,4.3,0,0,0,.58-.51.67.67,0,0,1,.42-.16.57.57,0,0,1,.54.54.62.62,0,0,1-.25.49,4.31,4.31,0,0,1-1.32,1A4,4,0,0,1,98,36.8Z"/><path class="cls-2" d="M109.34,35.43a.64.64,0,0,1,.44.17A.62.62,0,0,1,110,36a.61.61,0,0,1-.17.42.64.64,0,0,1-.44.17h-5.63a.56.56,0,0,1-.46-.21.64.64,0,0,1-.16-.4,2,2,0,0,1,0-.26.74.74,0,0,1,.14-.26l5-6.88,0,.19h-4.29a.6.6,0,0,1-.44-.18.55.55,0,0,1-.19-.42.53.53,0,0,1,.19-.43.63.63,0,0,1,.44-.16h5.31a.59.59,0,0,1,.44.18.65.65,0,0,1,.17.46,2.25,2.25,0,0,1,0,.22.93.93,0,0,1-.14.25l-5,6.79-.16-.09Z"/></g></g></svg>