<?xml version="1.0" encoding="utf-8"?>
<!-- Generator: Adobe Illustrator 23.0.0, SVG Export Plug-In . SVG Version: 6.00 Build 0)  -->
<svg version="1.1" xmlns="http://www.w3.org/2000/svg" xmlns:xlink="http://www.w3.org/1999/xlink" x="0px" y="0px"
	 viewBox="0 0 1172 1260.64" style="enable-background:new 0 0 1172 1260.64;" xml:space="preserve">
<style type="text/css">
	.st0{display:none;}
	.st1{display:inline;opacity:0.12;}
	.st2{fill:#FFFFFF;}
</style>
<g id="Capa_1" class="st0">
	<g class="st1">
		<g>
			<path d="M275.41,777.9v-9.55h39.8V589.74c0-7-4.78-9.55-12.42-9.55h-27.38v-9.55h27.38c19.74,0,39.48-2.87,59.22-4.46v202.17
				h38.52v9.55H275.41z"/>
			<path d="M511,669.33c29.61,4.78,66.86,20.06,66.86,55.71c0,29.93-26.11,57.63-84.69,57.63c-58.58,0-84.69-27.7-84.69-57.63
				c0-35.66,37.25-50.94,66.86-55.71v-0.64c-35.98-7.96-59.22-21.01-59.22-50.62c0-36.29,44.89-51.9,77.05-51.9
				c30.56,0,77.05,15.6,77.05,51.9c0,33.75-31.84,46.16-58.58,50.62L511,669.33z M462.29,742.88c0,23.88,9.87,31.52,30.88,31.52
				c21.01,0,30.88-7.64,30.88-31.52v-34.07c-0.32-6.69-6.05-33.11-30.88-33.11c-24.83,0-30.88,26.42-30.88,33.11V742.88z
				 M468.34,639.4c0,20.69,10.82,25.79,24.83,25.79c14.01,0,24.83-5.09,24.83-25.79v-36.93c0-19.42-6.05-28.02-24.83-28.02
				c-18.78,0-24.83,8.6-24.83,28.02V639.4z"/>
			<path d="M613.19,777.9v-9.55h39.8V589.74c0-7-4.78-9.55-12.42-9.55h-27.38v-9.55h27.38c19.74,0,39.48-2.87,59.22-4.46v202.17
				h38.52v9.55H613.19z"/>
			<path d="M937.29,671.88c0,47.76-33.11,110.79-85.64,110.79c-52.53,0-85.64-63.04-85.64-110.79c0-45.85,34.7-105.7,85.64-105.7
				C902.59,566.18,937.29,626.03,937.29,671.88z M881.26,615.53c0-36.29-13.37-41.07-29.61-41.07s-29.29,4.78-29.61,41.07v113.34
				c-0.32,34.38,11.14,45.53,29.61,45.53s29.61-11.14,29.61-45.53V615.53z"/>
		</g>
		<g>
			<path d="M275.41,776.68v-9.55h39.8V588.53c0-7-4.78-9.55-12.42-9.55h-27.38v-9.55h27.38c19.74,0,39.48-2.87,59.22-4.46v202.17
				h38.52v9.55H275.41z"/>
			<path d="M511,668.12c29.61,4.78,66.86,20.06,66.86,55.71c0,29.93-26.11,57.63-84.69,57.63c-58.58,0-84.69-27.7-84.69-57.63
				c0-35.66,37.25-50.94,66.86-55.71v-0.64c-35.98-7.96-59.22-21.01-59.22-50.62c0-36.29,44.89-51.9,77.05-51.9
				c30.56,0,77.05,15.6,77.05,51.9c0,33.75-31.84,46.16-58.58,50.62L511,668.12z M462.29,741.66c0,23.88,9.87,31.52,30.88,31.52
				c21.01,0,30.88-7.64,30.88-31.52V707.6c-0.32-6.69-6.05-33.11-30.88-33.11c-24.83,0-30.88,26.42-30.88,33.11V741.66z
				 M468.34,638.19c0,20.69,10.82,25.79,24.83,25.79c14.01,0,24.83-5.09,24.83-25.79v-36.93c0-19.42-6.05-28.02-24.83-28.02
				c-18.78,0-24.83,8.6-24.83,28.02V638.19z"/>
			<path d="M613.19,776.68v-9.55h39.8V588.53c0-7-4.78-9.55-12.42-9.55h-27.38v-9.55h27.38c19.74,0,39.48-2.87,59.22-4.46v202.17
				h38.52v9.55H613.19z"/>
			<path d="M937.29,670.67c0,47.76-33.11,110.79-85.64,110.79c-52.53,0-85.64-63.04-85.64-110.79c0-45.85,34.7-105.7,85.64-105.7
				C902.59,564.97,937.29,624.82,937.29,670.67z M881.26,614.31c0-36.29-13.37-41.07-29.61-41.07s-29.29,4.78-29.61,41.07v113.34
				c-0.32,34.38,11.14,45.53,29.61,45.53s29.61-11.14,29.61-45.53V614.31z"/>
		</g>
		<g>
			<path d="M327.12,1002.13c-0.34-0.09-0.66-0.2-0.98-0.35c-0.08-0.04-0.16-0.06-0.24-0.11c-0.37-0.2-0.7-0.44-1.01-0.72
				c-0.08-0.07-0.14-0.15-0.22-0.22c-0.23-0.23-0.44-0.49-0.63-0.76c-0.07-0.1-0.13-0.19-0.19-0.29c-0.22-0.37-0.4-0.76-0.53-1.19
				l-18.43-54.88l-95.78,29.19l74.83,25.76c1.38,0.63,2.42,1.82,2.86,3.27c0.44,1.45,0.24,3.02-0.55,4.31l-42.98,70.21l178.09-54.27
				l-94.05-19.87C327.24,1002.19,327.18,1002.15,327.12,1002.13z"/>
		</g>
		<g>
			<path d="M745.81,1022.2l177.68,54.15l-42.98-70.21c-0.79-1.29-0.99-2.86-0.55-4.31c0.44-1.45,1.48-2.64,2.86-3.27l74.83-25.76
				l-90.47-27.57l-17.96,53.26c-0.13,0.43-0.32,0.83-0.54,1.2c-0.04,0.07-0.07,0.13-0.12,0.2c-0.23,0.35-0.49,0.67-0.79,0.95
				c-0.05,0.05-0.11,0.1-0.17,0.15c-0.32,0.28-0.67,0.53-1.05,0.73c-0.02,0.01-0.04,0.01-0.05,0.02c-0.39,0.19-0.8,0.33-1.22,0.43
				c-0.04,0.01-0.07,0.03-0.11,0.04L745.81,1022.2z"/>
		</g>
		<g>
			<path d="M820.69,996.33c-26.01-6.56-52.17-12.03-78.41-16.4l-10.44,34.27L820.69,996.33z"/>
		</g>
		<g>
			<path d="M424.76,980.84c-24.56,4.24-49.05,9.46-73.4,15.61l83.54,17.65L424.76,980.84z"/>
		</g>
		<path d="M409.6,304.37c1.32,0,2.58-0.18,3.75-0.56c15.45-5.03,16.37-47.9,16.37-47.9s-14.87,15.07-26.23,19.16
			c-8.13,2.92-22.53,3.34-30.08,3.34c-3,0-4.92-0.07-4.92-0.07S393.59,304.37,409.6,304.37z"/>
		<path d="M484.67,282.26c1.17,0,2.3-0.16,3.39-0.52c15.45-5.03,18.67-49.77,18.67-49.77s-13.89,15.1-26.96,19.62
			c-6,2.08-13.35,2.64-19.53,2.64c-7.27,0-12.95-0.78-12.95-0.78S469.18,282.26,484.67,282.26z"/>
		<path d="M551.2,256.97c0.53,0,1.07-0.04,1.6-0.11c16.09-2.24,22.1-58.76,22.1-58.76s-13.3,29.83-25.04,32.26
			c-1.85,0.38-3.86,0.54-5.94,0.54c-11.06,0-23.9-4.59-23.9-4.59S535.62,256.97,551.2,256.97z"/>
		<path d="M758.59,303.81c1.18,0.38,2.44,0.56,3.75,0.56c16.01,0,41.11-26.02,41.11-26.02s-1.92,0.07-4.92,0.07
			c-7.55,0-21.95-0.42-30.08-3.34c-11.37-4.09-26.23-19.16-26.23-19.16S743.14,298.78,758.59,303.81z"/>
		<path d="M683.89,281.75c1.08,0.35,2.22,0.52,3.39,0.52c15.49,0,37.38-28.8,37.38-28.8s-5.67,0.78-12.95,0.78
			c-6.18,0-13.53-0.56-19.53-2.64c-13.07-4.52-26.96-19.62-26.96-19.62S668.44,276.72,683.89,281.75z"/>
		<path d="M626.03,256.86c0.53,0.07,1.07,0.11,1.6,0.11c15.58,0,31.18-30.66,31.18-30.66s-12.84,4.59-23.9,4.59
			c-2.07,0-4.09-0.16-5.94-0.54c-11.73-2.43-29.84-30.74-29.84-30.74S609.93,254.62,626.03,256.86z"/>
		<path d="M585.97,309.5c109.3,0,196.3,31.37,206.23,72.76l19.11-98.08l-0.88,0.91c-0.28,0.29-6.84,7.06-15.54,13.9
			c-12.92,10.15-23.56,15.09-32.55,15.09c-2.37,0-4.65-0.35-6.76-1.04c-10.17-3.31-16.88-14.18-20.51-33.25
			c-1.62-8.52-2.23-16.62-2.44-20.78l-0.25,0.33c-0.24,0.32-6,7.87-13.84,15.49c-11.87,11.54-22.1,17.14-31.26,17.14
			c-2.21,0-4.36-0.33-6.39-0.99c-10.01-3.26-17.06-14.32-21.58-33.81c-0.83-3.6-1.49-7.12-2.02-10.33
			c-0.17,0.23-0.34,0.46-0.52,0.69c-9.69,12.71-19.5,19.15-29.15,19.15c-0.98,0-1.97-0.07-2.94-0.2
			c-10.92-1.52-19.61-12.96-27.35-35.98c-4.86-14.46-7.63-28.41-7.74-29L586.16,184l-1.61,15.13c-0.06,0.6-1.61,14.94-5.24,29.81
			c-5.86,24.03-13.86,35.96-25.17,37.53c-0.97,0.13-1.96,0.2-2.94,0.2c-9.65,0-19.45-6.44-29.15-19.15
			c-2.43-3.18-4.53-6.34-6.22-9.06c-0.54,4.64-1.53,11.53-3.19,18.7c-4.51,19.49-11.57,30.55-21.58,33.81
			c-2.03,0.66-4.18,0.99-6.39,0.99c-9.17,0-19.39-5.61-31.26-17.14c-7.84-7.62-13.6-15.17-13.84-15.49l-0.25-0.33
			c-0.22,4.16-0.82,12.27-2.44,20.78c-3.63,19.06-10.34,29.94-20.51,33.25c-2.11,0.69-4.39,1.04-6.76,1.04
			c-8.99,0-19.64-4.93-32.55-15.09c-8.7-6.84-15.27-13.62-15.54-13.9l-0.93-0.97l18.8,100.08
			C387.02,341.85,474.97,309.5,585.97,309.5z"/>
		<path d="M363.16,493.69l93.96-45.02l131.18-62.85l127.68,62.48l92.76,45.39c0.73,12.27,1.2,24.22,1.43,35.86h24.25
			c-0.23-12.25-0.71-24.68-1.46-37.31l-0.84-14.13l-12.71-6.22l-72.77-35.61c26.13-12.78,41.67-28.75,41.67-46.1
			c0-41.89-90.59-75.84-202.35-75.84s-202.35,33.95-202.35,75.84c0,17.51,15.84,33.63,42.43,46.46l-73.37,35.15l-12.89,6.17
			l-0.85,14.27c-0.75,12.62-1.23,25.05-1.45,37.3h24.25C361.97,517.91,362.43,505.96,363.16,493.69z"/>
		<path d="M873.2,897.55c-44.12-12.06-88.55-21.32-133.15-27.78c13.29-17.11,25.23-35.64,35.81-55.48h-27.71
			c-11.46,19.84-23.79,36.98-36.33,51.77c-41.74-4.92-83.61-7.39-125.54-7.39c-41.43,0-82.81,2.42-124.06,7.23
			c-12.75-14.76-25.27-31.84-36.93-51.6h-27.85c10.74,19.77,22.88,38.23,36.36,55.3c-45.04,6.46-89.9,15.79-134.45,27.97
			l32.69,92.98c67.63-18.33,136.38-29.36,205.04-32.93c25.63,13.91,43.6,18.82,45.03,19.2l6.25,1.65l6.25-1.68
			c1.4-0.38,18.89-5.25,43.86-19.01c67.66,3.74,135.39,14.71,202.03,32.77L873.2,897.55z"/>
		<path class="st2" d="M376.4,943.21c0.05,0.2,0.04,0.31-0.03,0.32l-8.82,2.13c-0.73,0.18-2.4-0.81-5.02-2.96
			c-2.62-2.15-5.9-5.24-9.86-9.29c-0.26,0.1-0.63,0.21-1.13,0.33c-1.29,0.31-2.2,0.51-2.74,0.61l2.65,10.96
			c0.25,1.03,0.51,1.75,0.79,2.17c0.28,0.42,0.68,0.66,1.19,0.71c0.52,0.05,1.31-0.05,2.37-0.31c0.07-0.02,0.12,0.08,0.17,0.27
			s0.04,0.31-0.03,0.32c-1.09,0.26-1.95,0.46-2.59,0.57l-3.78,0.86l-3.61,0.92c-0.65,0.19-1.54,0.43-2.67,0.7
			c-0.1,0.02-0.17-0.06-0.22-0.26c-0.05-0.2-0.02-0.31,0.08-0.33c1.06-0.26,1.81-0.52,2.25-0.81c0.44-0.28,0.69-0.68,0.76-1.21
			c0.07-0.52-0.02-1.28-0.26-2.27l-5.55-22.95c-0.24-0.99-0.5-1.7-0.78-2.12c-0.28-0.42-0.69-0.67-1.23-0.73s-1.32,0.03-2.35,0.28
			c-0.07,0.02-0.12-0.08-0.17-0.27c-0.05-0.2-0.04-0.3,0.03-0.32l2.64-0.59c1.54-0.3,2.75-0.56,3.64-0.78c1.12-0.27,2.28-0.6,3.48-1
			c0.42-0.14,0.95-0.3,1.59-0.49c0.64-0.19,1.35-0.38,2.14-0.57c3.01-0.73,5.47-0.74,7.39-0.03c1.92,0.71,3.12,2.05,3.6,4.04
			c0.44,1.82,0.34,3.58-0.29,5.29c-0.64,1.71-1.67,3.21-3.11,4.5c3.6,3.33,6.57,5.9,8.9,7.71c2.33,1.82,4.31,3.07,5.95,3.76
			c1.64,0.69,3.11,0.87,4.44,0.55C376.29,942.92,376.35,943.01,376.4,943.21z M351.39,932.46c1.92-0.46,3.17-1.33,3.75-2.61
			c0.58-1.28,0.59-3.11,0.01-5.49c-0.66-2.71-1.5-4.48-2.54-5.31c-1.04-0.83-2.3-1.07-3.79-0.71c-1.32,0.32-2.2,0.79-2.65,1.43
			c-0.44,0.63-0.52,1.53-0.24,2.68l2.54,10.51C349.3,932.9,350.27,932.73,351.39,932.46z"/>
		<path class="st2" d="M398.92,930.52c0.1-0.02,0.2-0.01,0.29,0.02c0.09,0.03,0.14,0.07,0.15,0.1c0.21,2.67,0.53,5.06,0.98,7.19
			c0.06,0.27,0.05,0.47-0.03,0.61c-0.08,0.14-0.26,0.24-0.56,0.3l-22.07,4.6c-0.1,0.02-0.17-0.07-0.21-0.27
			c-0.04-0.2-0.01-0.31,0.09-0.33c1.06-0.22,1.82-0.47,2.27-0.73c0.45-0.27,0.7-0.66,0.77-1.18c0.07-0.52-0.01-1.28-0.21-2.27
			l-4.82-23.12c-0.21-1-0.44-1.71-0.71-2.14c-0.26-0.43-0.66-0.69-1.2-0.77c-0.54-0.08-1.32-0.01-2.35,0.2
			c-0.1,0.02-0.17-0.07-0.21-0.27c-0.04-0.2-0.01-0.31,0.09-0.33l21.17-4.41c0.33-0.07,0.53,0.05,0.59,0.34l1.48,6.62
			c0.01,0.07-0.07,0.14-0.24,0.21c-0.18,0.07-0.29,0.06-0.35-0.03c-0.94-1.82-2.13-3.06-3.59-3.73c-1.46-0.67-3.22-0.79-5.28-0.36
			l-1.5,0.31c-1,0.21-1.69,0.58-2.06,1.11s-0.47,1.24-0.28,2.14l2.12,10.18l4.14-0.86c1.93-0.4,3.34-1.04,4.24-1.92
			c0.89-0.88,1.21-1.92,0.96-3.12c-0.02-0.1,0.06-0.17,0.24-0.21c0.18-0.04,0.29-0.01,0.31,0.09l0.89,4.5l0.55,2.39
			c0.3,1.12,0.52,2.01,0.66,2.67c0.01,0.07-0.08,0.12-0.28,0.16c-0.2,0.04-0.31,0.03-0.32-0.04c-0.28-1.36-1.03-2.33-2.24-2.89
			c-1.21-0.56-2.8-0.64-4.76-0.23l-4.09,0.85l2.35,11.28c0.2,0.97,0.53,1.64,1,2.03c0.46,0.39,1.09,0.5,1.89,0.33l1.65-0.34
			c2.6-0.54,4.56-1.51,5.91-2.9c1.34-1.39,2.15-3.28,2.42-5.66C398.73,930.59,398.79,930.55,398.92,930.52z"/>
		<path class="st2" d="M408.47,913.24c0.79,0.83,1.7,1.51,2.73,2.05c1.03,0.54,2.4,1.17,4.13,1.9c1.87,0.77,3.37,1.46,4.52,2.09
			c1.15,0.62,2.18,1.45,3.09,2.47c0.91,1.03,1.5,2.29,1.77,3.8c0.31,1.74,0.12,3.37-0.57,4.9c-0.69,1.52-1.8,2.81-3.32,3.86
			c-1.52,1.05-3.3,1.76-5.34,2.13c-1.51,0.27-3.12,0.34-4.83,0.22c-1.71-0.12-2.9-0.38-3.56-0.78c-0.19-0.1-0.34-0.21-0.44-0.31
			c-0.1-0.1-0.18-0.29-0.23-0.55l-1.59-7.95l-0.01-0.05c-0.02-0.13,0.05-0.22,0.21-0.27c0.16-0.05,0.27-0.01,0.33,0.12
			c1.37,1.86,2.55,3.36,3.53,4.49c0.98,1.14,2.14,2.09,3.47,2.85c1.33,0.76,2.73,1.01,4.2,0.75c1.34-0.24,2.38-0.8,3.12-1.68
			c0.74-0.88,0.95-2.18,0.64-3.92c-0.27-1.47-0.82-2.7-1.67-3.69c-0.85-0.99-1.81-1.78-2.89-2.38c-1.08-0.6-2.53-1.29-4.36-2.06
			c-1.79-0.75-3.2-1.41-4.22-1.99c-1.02-0.58-1.94-1.33-2.76-2.25c-0.82-0.92-1.36-2.09-1.61-3.49c-0.32-1.77-0.08-3.36,0.72-4.77
			c0.8-1.41,1.95-2.54,3.45-3.42c1.5-0.87,3.14-1.47,4.91-1.79c1.17-0.21,2.38-0.32,3.62-0.32c1.24,0,2.26,0.08,3.05,0.25
			c0.33,0.08,0.55,0.19,0.68,0.32c0.13,0.13,0.21,0.32,0.25,0.55l1.33,7.38c0.02,0.1-0.05,0.19-0.21,0.27
			c-0.16,0.08-0.26,0.07-0.31-0.02l-0.57-0.88c-1.22-1.96-2.52-3.57-3.9-4.84c-1.39-1.27-3.08-1.73-5.09-1.36
			c-1.34,0.24-2.37,0.82-3.08,1.75c-0.71,0.92-0.94,2.12-0.67,3.59C407.18,911.4,407.68,912.42,408.47,913.24z"/>
		<path class="st2" d="M427.79,910.48c-0.02,0.11-0.11,0.16-0.28,0.17c-0.17,0.01-0.26-0.04-0.28-0.14
			c-0.07-1.37-0.18-3.13-0.33-5.29c-0.15-2.16-0.31-3.78-0.47-4.85c-0.02-0.17,0.05-0.27,0.24-0.29c0.18-0.03,0.29,0.04,0.31,0.21
			c0.11,0.74,1.12,0.97,3.04,0.68c2.91-0.33,6.29-0.79,10.16-1.36c1.98-0.3,4.08-0.64,6.29-1.04l3.42-0.56
			c1.28-0.19,2.2-0.41,2.76-0.67c0.56-0.25,0.89-0.65,0.98-1.18c0.01-0.14,0.11-0.22,0.3-0.25c0.18-0.03,0.29,0.03,0.31,0.16
			c0.05,1.02,0.18,2.65,0.4,4.89c0.21,2.24,0.42,4.03,0.62,5.37c0.02,0.1-0.06,0.16-0.23,0.19c-0.17,0.03-0.28-0.01-0.33-0.11
			c-0.89-2.51-2.12-4.32-3.69-5.4c-1.57-1.09-3.37-1.48-5.38-1.18c-0.98,0.15-1.59,0.45-1.85,0.92c-0.26,0.47-0.3,1.29-0.12,2.47
			l3.47,23.25c0.16,1.04,0.37,1.78,0.64,2.22c0.27,0.44,0.71,0.7,1.3,0.79c0.6,0.08,1.52,0.03,2.76-0.15
			c0.1-0.02,0.17,0.08,0.2,0.28c0.03,0.2,0,0.31-0.11,0.33c-1.21,0.18-2.17,0.31-2.88,0.38l-4.19,0.57l-4.08,0.66
			c-0.7,0.14-1.67,0.3-2.92,0.49c-0.1,0.01-0.17-0.08-0.2-0.28s0.01-0.31,0.11-0.33c1.21-0.18,2.1-0.4,2.66-0.66
			c0.56-0.26,0.92-0.64,1.06-1.16s0.14-1.29-0.01-2.29L438,903.95c-0.17-1.14-0.44-1.89-0.8-2.25c-0.36-0.36-1.02-0.47-1.96-0.33
			C431.24,901.97,428.75,905,427.79,910.48z"/>
		<path class="st2" d="M493.74,924.45c0.02,0.2-0.05,0.31-0.22,0.33c-0.68,0.08-1.73,0.17-3.15,0.27c-1.49,0.11-2.56,0.2-3.2,0.27
			c-0.84,0.1-1.87,0.25-3.08,0.46c-1.14,0.2-2.05,0.34-2.72,0.42c-0.14,0.02-0.21-0.08-0.24-0.28c-0.02-0.2,0.03-0.31,0.17-0.33
			c0.88-0.1,1.5-0.27,1.87-0.5c0.37-0.23,0.52-0.58,0.47-1.06c-0.07-0.57-0.52-1.5-1.35-2.77l-4.25-6.44l-12.46,1.46l-1.46,4.64
			c-0.32,1.03-0.44,1.97-0.34,2.81c0.14,1.22,0.68,2.11,1.62,2.69c0.94,0.58,2.14,0.78,3.59,0.61c0.17-0.02,0.27,0.07,0.29,0.27
			c0.02,0.2-0.05,0.31-0.22,0.33c-0.61,0.07-1.49,0.14-2.65,0.21c-1.29,0.08-2.41,0.18-3.35,0.29c-0.91,0.11-2.01,0.27-3.28,0.49
			c-1.14,0.2-2.06,0.34-2.77,0.43c-0.13,0.02-0.21-0.08-0.24-0.28c-0.02-0.2,0.03-0.31,0.17-0.33c0.95-0.11,1.72-0.4,2.31-0.86
			c0.6-0.46,1.16-1.23,1.68-2.3c0.52-1.07,1.11-2.64,1.76-4.7l8.16-25.45c0.06-0.11,0.2-0.18,0.44-0.21c0.27-0.03,0.43,0,0.47,0.1
			l15.58,23.44c1.46,2.26,2.64,3.8,3.52,4.62c0.88,0.82,1.75,1.18,2.59,1.08C493.62,924.16,493.72,924.25,493.74,924.45z
			 M466.07,914.81l11.04-1.29l-7.18-10.87L466.07,914.81z"/>
		<path class="st2" d="M516.79,893.16c-0.92-0.98-2.12-1.41-3.61-1.29c-0.07,0.01-0.11-0.09-0.13-0.3c-0.02-0.2,0.01-0.31,0.08-0.31
			l2.44-0.15c1.29-0.04,2.33-0.09,3.11-0.15c0.64-0.05,1.57-0.16,2.79-0.33l2.33-0.24c0.07-0.01,0.11,0.09,0.13,0.3
			c0.02,0.2-0.01,0.31-0.08,0.31c-1.32,0.11-2.31,0.72-2.97,1.83c-0.66,1.11-0.92,2.58-0.77,4.41l1.15,14.13
			c0.19,2.37-0.16,4.5-1.07,6.38c-0.9,1.88-2.28,3.38-4.11,4.5c-1.84,1.12-4.01,1.78-6.52,1.99c-2.51,0.2-4.77-0.09-6.77-0.88
			s-3.64-2.05-4.89-3.77c-1.25-1.72-1.97-3.8-2.17-6.25l-1.34-16.42c-0.08-1.02-0.24-1.75-0.46-2.21c-0.23-0.46-0.59-0.76-1.1-0.91
			c-0.51-0.15-1.29-0.18-2.34-0.09c-0.1,0.01-0.16-0.09-0.18-0.29s0.03-0.31,0.13-0.32l2.7-0.17c1.56-0.06,2.8-0.13,3.72-0.2
			c1.02-0.08,2.3-0.22,3.85-0.42l2.59-0.26c0.1-0.01,0.16,0.09,0.18,0.29c0.02,0.2-0.03,0.31-0.13,0.32
			c-1.05,0.08-1.81,0.25-2.29,0.49c-0.48,0.24-0.79,0.62-0.93,1.13c-0.15,0.51-0.18,1.27-0.1,2.29l1.18,14.54
			c0.33,4.03,1.37,6.95,3.12,8.75c1.75,1.8,4.08,2.58,7,2.35c2.81-0.23,4.95-1.26,6.4-3.1c1.45-1.84,2.05-4.35,1.79-7.54
			l-1.15-14.18C518.24,895.55,517.71,894.14,516.79,893.16z"/>
		<path class="st2" d="M563.03,920.21c0.01,0.2-0.02,0.31-0.09,0.31l-9.07,0.4c-0.75,0.03-2.2-1.26-4.36-3.87
			c-2.16-2.61-4.79-6.28-7.89-11.01c-0.27,0.05-0.66,0.08-1.17,0.1c-1.32,0.06-2.26,0.08-2.8,0.07l0.5,11.26
			c0.05,1.05,0.16,1.81,0.36,2.28c0.19,0.47,0.54,0.78,1.04,0.92c0.5,0.15,1.29,0.2,2.38,0.15c0.07,0,0.11,0.1,0.12,0.3
			c0.01,0.2-0.02,0.31-0.09,0.31c-1.12,0.05-2.01,0.07-2.65,0.07l-3.87,0.12l-3.72,0.21c-0.68,0.06-1.59,0.12-2.75,0.17
			c-0.1,0-0.16-0.1-0.17-0.3c-0.01-0.2,0.04-0.31,0.14-0.31c1.09-0.05,1.87-0.17,2.36-0.36c0.48-0.19,0.81-0.54,0.98-1.04
			c0.17-0.5,0.23-1.26,0.18-2.28l-1.04-23.59c-0.04-1.02-0.16-1.76-0.35-2.23c-0.19-0.47-0.54-0.78-1.06-0.95
			c-0.52-0.16-1.3-0.22-2.36-0.18c-0.07,0-0.11-0.1-0.12-0.3c-0.01-0.2,0.02-0.31,0.09-0.31l2.7-0.07c1.56,0,2.81-0.02,3.72-0.06
			c1.15-0.05,2.36-0.16,3.61-0.31c0.44-0.05,0.99-0.11,1.65-0.17c0.66-0.06,1.4-0.11,2.21-0.15c3.09-0.14,5.51,0.33,7.26,1.39
			c1.75,1.06,2.67,2.61,2.76,4.65c0.08,1.87-0.35,3.58-1.3,5.14c-0.95,1.56-2.26,2.83-3.92,3.82c2.9,3.96,5.31,7.05,7.25,9.28
			c1.94,2.23,3.64,3.84,5.11,4.83c1.47,0.99,2.89,1.46,4.25,1.4C562.98,919.91,563.02,920.01,563.03,920.21z M540.55,904.87
			c1.97-0.09,3.36-0.7,4.18-1.84c0.82-1.14,1.17-2.94,1.06-5.38c-0.12-2.78-0.62-4.69-1.48-5.7c-0.86-1.02-2.06-1.49-3.59-1.42
			c-1.36,0.06-2.32,0.36-2.87,0.89c-0.56,0.54-0.81,1.4-0.75,2.59l0.48,10.8C538.41,904.9,539.4,904.92,540.55,904.87z"/>
		<path class="st2" d="M598.92,920.01c0,0.2-0.08,0.31-0.25,0.31c-0.68,0-1.73-0.02-3.16-0.08c-1.5-0.06-2.57-0.08-3.21-0.08
			c-0.85,0-1.89,0.05-3.11,0.12c-1.16,0.08-2.07,0.12-2.75,0.12c-0.14,0-0.2-0.1-0.21-0.3s0.07-0.31,0.2-0.31
			c0.88-0.01,1.52-0.1,1.91-0.29c0.39-0.19,0.58-0.52,0.58-1c0-0.58-0.35-1.54-1.04-2.9l-3.51-6.86l-12.55,0.08l-1.96,4.45
			c-0.44,0.99-0.65,1.91-0.65,2.76c0.01,1.22,0.45,2.17,1.32,2.85c0.87,0.67,2.04,1.01,3.5,1c0.17,0,0.26,0.1,0.26,0.3
			c0,0.2-0.08,0.31-0.25,0.31c-0.61,0-1.5-0.02-2.65-0.08c-1.29-0.06-2.42-0.09-3.37-0.08c-0.92,0.01-2.02,0.05-3.31,0.12
			c-1.16,0.08-2.09,0.12-2.8,0.12c-0.14,0-0.2-0.1-0.21-0.3c0-0.2,0.07-0.31,0.2-0.31c0.95-0.01,1.75-0.21,2.39-0.6
			c0.64-0.39,1.28-1.1,1.92-2.1c0.64-1.01,1.39-2.5,2.27-4.48l10.91-24.4c0.07-0.1,0.22-0.15,0.46-0.16c0.27,0,0.42,0.05,0.46,0.15
			l12.91,25.01c1.21,2.41,2.2,4.07,2.99,4.98c0.79,0.91,1.61,1.37,2.46,1.36C598.84,919.7,598.92,919.81,598.92,920.01z
			 M572.48,907.37l11.12-0.07l-5.94-11.59L572.48,907.37z"/>
		<path class="st2" d="M636.31,889.96c-0.01,0.2-0.04,0.3-0.11,0.3c-1.36-0.04-2.45,0.46-3.26,1.5c-0.82,1.04-1.25,2.47-1.31,4.27
			l-0.85,26.1c0,0.1-0.08,0.17-0.24,0.2c-0.15,0.03-0.26,0.01-0.33-0.06l-23.02-28l-0.65,19.83c-0.06,1.8,0.27,3.24,0.98,4.32
			c0.71,1.08,1.73,1.64,3.06,1.68c0.07,0,0.1,0.11,0.09,0.31c-0.01,0.2-0.04,0.3-0.11,0.3c-0.95-0.03-1.68-0.07-2.19-0.12
			l-2.75-0.14l-3.16-0.05c-0.58,0.01-1.41,0-2.5-0.03c-0.1,0-0.15-0.11-0.14-0.31c0.01-0.2,0.06-0.3,0.16-0.3
			c1.5,0.05,2.69-0.44,3.59-1.46c0.9-1.02,1.38-2.44,1.44-4.24l0.7-21.56c-1.08-1.26-2.01-2.13-2.8-2.62
			c-0.78-0.48-1.6-0.74-2.45-0.77c-0.07,0-0.1-0.11-0.09-0.31c0.01-0.2,0.04-0.3,0.11-0.3l2.14,0.12c0.44,0.05,1.09,0.09,1.94,0.11
			l3.88,0.08c0.48-0.02,1.05-0.02,1.73,0c0.27,0.01,0.47,0.08,0.6,0.22c0.13,0.14,0.36,0.44,0.69,0.89c0.55,0.8,0.94,1.34,1.17,1.62
			l16.97,20.91l0.54-16.46c0.06-1.83-0.27-3.29-0.98-4.37c-0.71-1.08-1.73-1.64-3.06-1.68c-0.07,0-0.1-0.11-0.09-0.31
			s0.04-0.3,0.11-0.3l2.19,0.12c1.08,0.1,2,0.17,2.75,0.19c0.68,0.02,1.63,0.02,2.86-0.01l2.29,0.02
			C636.28,889.65,636.32,889.75,636.31,889.96z"/>
		<path class="st2" d="M639.67,898.99c-0.04,0.1-0.15,0.13-0.31,0.11c-0.17-0.03-0.25-0.09-0.24-0.2c0.23-1.35,0.5-3.09,0.82-5.23
			c0.32-2.14,0.52-3.75,0.59-4.84c0.01-0.17,0.11-0.25,0.3-0.24c0.19,0.01,0.27,0.1,0.26,0.27c-0.05,0.75,0.89,1.19,2.82,1.32
			c2.91,0.3,6.32,0.59,10.22,0.86c2,0.14,4.12,0.25,6.37,0.34l3.46,0.19c1.29,0.09,2.24,0.07,2.84-0.06
			c0.6-0.13,1.01-0.44,1.21-0.94c0.04-0.13,0.16-0.19,0.34-0.18s0.28,0.09,0.27,0.22c-0.17,1.01-0.4,2.63-0.67,4.86
			c-0.27,2.23-0.46,4.02-0.55,5.38c-0.01,0.1-0.1,0.15-0.26,0.13c-0.17-0.01-0.27-0.07-0.29-0.17c-0.33-2.65-1.14-4.67-2.44-6.07
			c-1.3-1.4-2.97-2.17-5-2.32c-0.98-0.07-1.65,0.1-2,0.5c-0.35,0.4-0.57,1.2-0.65,2.38l-1.63,23.45c-0.07,1.05-0.02,1.82,0.15,2.31
			c0.17,0.49,0.54,0.84,1.1,1.05c0.56,0.21,1.47,0.36,2.73,0.45c0.1,0.01,0.15,0.11,0.13,0.32c-0.01,0.2-0.07,0.3-0.17,0.29
			c-1.22-0.08-2.19-0.17-2.9-0.25l-4.22-0.34l-4.12-0.23c-0.71-0.02-1.7-0.07-2.96-0.15c-0.1-0.01-0.15-0.11-0.13-0.32
			c0.01-0.2,0.07-0.3,0.17-0.29c1.22,0.08,2.13,0.06,2.74-0.07c0.6-0.13,1.03-0.43,1.29-0.91c0.25-0.48,0.42-1.22,0.49-2.24
			l1.63-23.56c0.08-1.15-0.02-1.94-0.3-2.37c-0.28-0.43-0.89-0.67-1.84-0.74C644.88,891.43,641.8,893.86,639.67,898.99z"/>
		<path class="st2" d="M694.14,918.23c0.1,0.01,0.19,0.04,0.27,0.1c0.08,0.06,0.12,0.11,0.11,0.14c-0.6,2.6-1.02,4.99-1.23,7.15
			c-0.03,0.27-0.1,0.46-0.21,0.57c-0.11,0.11-0.32,0.15-0.63,0.12l-22.43-2.27c-0.1-0.01-0.14-0.12-0.12-0.32s0.08-0.3,0.18-0.29
			c1.08,0.11,1.88,0.1,2.39-0.02c0.51-0.12,0.87-0.42,1.09-0.89c0.22-0.47,0.38-1.22,0.48-2.23l2.37-23.49
			c0.1-1.01,0.09-1.77-0.03-2.26c-0.12-0.49-0.43-0.85-0.92-1.09c-0.49-0.24-1.26-0.41-2.31-0.51c-0.1-0.01-0.14-0.12-0.12-0.32
			c0.02-0.2,0.08-0.3,0.18-0.29l21.51,2.17c0.34,0.03,0.49,0.2,0.46,0.51l-0.58,6.76c-0.01,0.07-0.11,0.11-0.29,0.12
			c-0.19,0.02-0.3-0.03-0.32-0.13c-0.34-2.02-1.11-3.56-2.3-4.64c-1.19-1.08-2.83-1.72-4.93-1.93l-1.52-0.15
			c-1.02-0.1-1.78,0.04-2.3,0.43c-0.52,0.39-0.82,1.04-0.92,1.96l-1.05,10.35l4.21,0.43c1.96,0.2,3.5,0.01,4.62-0.56
			c1.12-0.57,1.74-1.46,1.86-2.68c0.01-0.1,0.11-0.14,0.29-0.13c0.19,0.02,0.27,0.08,0.26,0.18l-0.51,4.56l-0.2,2.44
			c-0.05,1.16-0.11,2.07-0.17,2.75c-0.01,0.07-0.11,0.09-0.32,0.07c-0.2-0.02-0.3-0.06-0.29-0.13c0.14-1.39-0.28-2.53-1.27-3.43
			c-0.99-0.9-2.48-1.45-4.47-1.66l-4.16-0.42l-1.16,11.47c-0.1,0.98,0.01,1.73,0.34,2.24c0.32,0.51,0.89,0.81,1.7,0.89l1.67,0.17
			c2.64,0.27,4.81-0.06,6.51-0.98c1.7-0.92,3.04-2.48,4.01-4.67C693.93,918.25,694,918.22,694.14,918.23z"/>
		<path class="st2" d="M711.24,920.56c-0.48-0.63-0.66-1.42-0.54-2.36c0.12-0.88,0.49-1.55,1.12-2.01s1.41-0.63,2.36-0.51
			c0.94,0.13,1.64,0.49,2.09,1.08c0.45,0.59,0.62,1.34,0.5,2.25c-0.13,0.98-0.49,1.7-1.09,2.17c-0.59,0.47-1.36,0.64-2.31,0.52
			C712.43,921.57,711.72,921.19,711.24,920.56z"/>
		<path class="st2" d="M756.26,920.34c1.4,1.82,1.92,3.87,1.54,6.15c-0.29,1.74-1.06,3.24-2.3,4.48c-1.24,1.24-2.82,2.12-4.73,2.65
			c-1.92,0.53-3.96,0.61-6.14,0.24c-0.94-0.16-2-0.38-3.19-0.69c-0.46-0.11-1.04-0.24-1.72-0.39c-0.68-0.15-1.44-0.29-2.28-0.43
			l-3.68-0.56c-0.68-0.08-1.58-0.21-2.72-0.4c-0.1-0.02-0.13-0.13-0.1-0.33s0.1-0.29,0.2-0.28c0.97,0.16,1.73,0.19,2.26,0.09
			c0.53-0.1,0.95-0.38,1.25-0.83c0.3-0.45,0.53-1.16,0.69-2.13l3.88-23.29c0.23-1.41,0.15-2.38-0.24-2.91
			c-0.4-0.53-1.31-0.92-2.75-1.16c-0.07-0.01-0.08-0.12-0.05-0.32c0.03-0.2,0.08-0.3,0.15-0.29l2.66,0.49
			c1.53,0.32,2.75,0.56,3.66,0.71c0.94,0.16,1.92,0.27,2.94,0.33c0.34,0.02,0.85,0.07,1.53,0.15c0.68,0.08,1.27,0.16,1.77,0.24
			c3.05,0.51,5.32,1.46,6.82,2.84c1.49,1.39,2.06,3.13,1.71,5.25c-0.27,1.61-1.04,2.98-2.31,4.11c-1.27,1.13-2.96,1.9-5.06,2.31
			C752.78,917.21,754.86,918.52,756.26,920.34z M751.71,926.72c0.43-2.58,0.15-4.73-0.84-6.45c-0.99-1.72-2.74-2.78-5.26-3.2
			c-0.97-0.16-1.85-0.27-2.63-0.33l-2.02,12.12c-0.18,1.11-0.1,1.92,0.26,2.45s1.28,0.91,2.75,1.16
			C748.37,933.2,750.95,931.28,751.71,926.72z M745.8,903.22c-0.44,0.39-0.77,1.21-0.98,2.45l-1.59,9.56l2,0.39
			c1.74,0.29,3.19-0.14,4.35-1.29c1.16-1.15,1.91-2.75,2.25-4.8c0.32-1.91,0.14-3.43-0.53-4.56s-1.8-1.83-3.38-2.09
			C746.95,902.71,746.24,902.83,745.8,903.22z"/>
		<path class="st2" d="M794.77,942.89c-0.04,0.2-0.14,0.28-0.31,0.25c-0.67-0.13-1.69-0.38-3.08-0.72c-1.45-0.36-2.5-0.61-3.13-0.73
			c-0.83-0.17-1.86-0.34-3.07-0.51c-1.15-0.16-2.05-0.31-2.72-0.44c-0.13-0.03-0.18-0.14-0.14-0.34c0.04-0.2,0.13-0.29,0.26-0.26
			c0.87,0.17,1.51,0.21,1.93,0.1c0.42-0.11,0.68-0.39,0.77-0.86c0.11-0.57-0.03-1.58-0.43-3.05l-2.04-7.43l-12.3-2.48l-2.83,3.96
			c-0.63,0.88-1.03,1.74-1.19,2.57c-0.24,1.2,0,2.22,0.71,3.06c0.72,0.84,1.79,1.4,3.22,1.69c0.17,0.03,0.23,0.15,0.19,0.35
			s-0.14,0.28-0.31,0.25c-0.6-0.12-1.46-0.33-2.58-0.62c-1.25-0.32-2.35-0.58-3.28-0.76c-0.9-0.18-1.99-0.37-3.27-0.55
			c-1.15-0.16-2.07-0.31-2.77-0.45c-0.13-0.03-0.18-0.14-0.14-0.34c0.04-0.2,0.13-0.29,0.26-0.26c0.93,0.19,1.75,0.15,2.47-0.1
			c0.71-0.26,1.48-0.81,2.31-1.67c0.83-0.86,1.87-2.16,3.13-3.92l15.65-21.67c0.09-0.09,0.25-0.11,0.48-0.06
			c0.27,0.05,0.41,0.13,0.42,0.24l7.55,27.11c0.69,2.6,1.33,4.43,1.91,5.48c0.58,1.05,1.29,1.67,2.13,1.83
			C794.75,942.58,794.81,942.69,794.77,942.89z M771.45,925.14l10.9,2.19l-3.46-12.56L771.45,925.14z"/>
		<path class="st2" d="M829.93,950.75c-0.04,0.2-0.1,0.29-0.16,0.28l-8.88-1.87c-0.73-0.16-1.82-1.76-3.26-4.83
			c-1.44-3.07-3.07-7.28-4.89-12.63c-0.27-0.02-0.66-0.09-1.16-0.19c-1.3-0.27-2.21-0.48-2.73-0.63l-2.33,11.03
			c-0.22,1.03-0.29,1.8-0.22,2.3c0.07,0.5,0.33,0.89,0.77,1.15c0.45,0.27,1.2,0.51,2.27,0.74c0.07,0.01,0.08,0.12,0.04,0.32
			c-0.04,0.2-0.1,0.29-0.16,0.28c-1.1-0.23-1.96-0.43-2.59-0.6l-3.78-0.85l-3.65-0.72c-0.67-0.11-1.57-0.28-2.71-0.52
			c-0.1-0.02-0.13-0.13-0.09-0.33s0.11-0.29,0.21-0.27c1.06,0.22,1.86,0.31,2.37,0.24c0.52-0.06,0.92-0.32,1.2-0.76
			c0.28-0.44,0.53-1.17,0.74-2.16l4.87-23.1c0.21-1,0.28-1.75,0.21-2.25c-0.07-0.5-0.33-0.9-0.79-1.18
			c-0.46-0.29-1.21-0.54-2.24-0.76c-0.07-0.01-0.08-0.12-0.04-0.32c0.04-0.2,0.1-0.29,0.16-0.28l2.63,0.61
			c1.52,0.39,2.72,0.68,3.62,0.87c1.13,0.24,2.32,0.44,3.57,0.6c0.44,0.06,0.99,0.14,1.64,0.24c0.66,0.1,1.38,0.24,2.18,0.41
			c3.03,0.64,5.26,1.69,6.68,3.16c1.43,1.47,1.93,3.2,1.51,5.19c-0.39,1.83-1.23,3.38-2.54,4.65c-1.31,1.27-2.89,2.18-4.75,2.73
			c1.82,4.55,3.39,8.15,4.71,10.79c1.32,2.64,2.57,4.63,3.75,5.95c1.18,1.33,2.43,2.13,3.77,2.41
			C829.96,950.45,829.97,950.55,829.93,950.75z M811.99,930.29c1.93,0.41,3.43,0.16,4.51-0.74c1.08-0.9,1.87-2.55,2.37-4.95
			c0.58-2.73,0.57-4.69-0.01-5.89c-0.58-1.2-1.62-1.96-3.12-2.27c-1.33-0.28-2.33-0.23-3,0.15c-0.67,0.38-1.13,1.15-1.37,2.32
			l-2.23,10.58C809.91,929.78,810.86,930.05,811.99,930.29z"/>
		<path d="M233.81,680.58c0,8.8-7.14,15.94-15.94,15.94c-8.8,0-15.94-7.14-15.94-15.94s6.8-12.25,15.94-40.44
			C233.81,666.2,233.81,671.78,233.81,680.58z"/>
		<path d="M1006.22,680.58c0,8.8-7.14,15.94-15.94,15.94c-8.8,0-15.94-7.14-15.94-15.94s6.8-12.25,15.94-40.44
			C1006.22,666.2,1006.22,671.78,1006.22,680.58z"/>
		<g>
			<path d="M570.54,438.16c-2.29-1.86-5.75-2.29-9.04-1.11c-2.58,0.93-5.17,2.69-7.68,5.23c-2.51,2.55-4.24,5.16-5.12,7.75
				c-1.13,3.3-0.65,6.76,1.24,9.02c1.74,2.08,4.32,2.86,6.18,3.16c1.93,0.3,3.9,0.24,5.81,0.18c0.35-0.01,0.7-0.02,1.05-0.03
				c1.93-0.05,4.14-0.05,6.22,0.56c-0.39,1.73,0.03,2.64,0.96,3.89c0.95,1.28,2.46,2.15,4.04,2.34c-0.08,0.55,0.07,1.09,0.43,1.51
				c0.5,0.57,1.31,0.79,2.11,0.57c0.34-0.09,0.74-0.26,1.16-0.48l37.9,38.61c1.79,1.79,3.86,1.54,5.65-0.24s1.93-4.85,0.15-6.63
				l-38.23-37.3l-0.07-0.07c0.21-0.81-0.02-1.61-0.6-2.11c-0.42-0.36-0.97-0.5-1.52-0.41c-0.21-1.58-1.1-3.08-2.39-4.01
				c-1.26-0.91-2.38-1.63-4.11-1.22c-0.58-1.85-0.68-3.83-0.65-6.21c0-0.35,0.01-0.7,0.02-1.05c0.04-1.91,0.07-3.88-0.26-5.81
				C573.47,442.44,572.65,439.87,570.54,438.16z M569.67,447.69c-0.05,0.48-0.35,0.9-0.75,1.09c-0.19,0.08-0.56,0.18-0.95-0.11
				c-0.33-0.24-0.77-0.21-1.06,0.06l-5.71,5.57c-0.29,0.28-0.32,0.72-0.09,1.06c0.28,0.4,0.17,0.76,0.08,0.95
				c-0.19,0.4-0.62,0.68-1.1,0.73c-3.23-0.18-5.33-1.32-6.06-3.28c-0.94-2.5,0.44-6.22,3.36-9.07c2.91-2.84,6.68-4.13,9.15-3.14
				C568.48,442.33,569.56,444.45,569.67,447.69z"/>
			<path d="M620.88,438.21c3.86,3.86,0.87,13.76-5.5,20.13c-1.87,1.87-3.71,3.9-5.91,5.39c-2.64,1.79-5.84,2.08-8.81,2.86
				c-3.72,0.97-5.27,2.79-7.99,5.34c-1.25,1.17-2.57,2.3-3.76,3.53c0,0-34.15,35.23-34.17,35.26c-0.41,0.41-3.87,2.02-5.32,0.57
				c-1.45-1.45-0.34-5.42,0.09-5.84c0,0,35.01-34.6,35.01-34.6c3.37-3.31,8.04-6.53,9.1-11.24c1.31-5.82,3.47-10.91,7.79-15.23
				C607.79,438,617.02,434.35,620.88,438.21z"/>
		</g>
	</g>
</g>
<g id="Capa_2">
	<path d="M812.06,275.72c-13,19.03-30.63,30.71-46.15,30.71c-4.15,0-8.14-0.83-11.86-2.58c-15.48-7.27-21.81-28.36-17.7-52.37
		c-10.66,18.04-25.81,29.44-40.34,29.44c-2.36,0-4.71-0.3-7.02-0.92c-16.51-4.46-26.43-24.11-26.58-48.48
		c-8.14,21.77-23.15,36.45-39.31,36.45c-0.42,0-0.84-0.01-1.26-0.03c-0.22-0.01-0.45-0.02-0.67-0.04c-0.13-0.01-0.27-0.01-0.4-0.02
		c0,0-0.01,0-0.01,0c0,0-0.01,0-0.01,0c-0.38-0.03-0.76-0.08-1.13-0.13c-16.13-2.38-28.16-24.87-31.99-55.86
		c-0.86-6.99-1.31-14.41-1.3-22.13c-0.07-0.41-0.12-0.83-0.19-1.24c-0.08,0.48-0.15,0.97-0.22,1.45c0.01,7.58-0.43,14.87-1.27,21.74
		c-3.81,31.08-15.86,53.66-32.03,56.02c-0.37,0.05-0.74,0.1-1.12,0.13c-0.37,0.03-0.75,0.05-1.12,0.07
		c-0.41,0.02-0.81,0.03-1.22,0.03c-16.16,0-31.18-14.69-39.32-36.47c-0.15,24.37-10.07,44.04-26.59,48.49
		c-2.31,0.62-4.66,0.92-7.02,0.92c-14.55,0-29.71-11.42-40.37-29.48c4.12,24.03-2.2,45.14-17.69,52.42
		c-3.72,1.75-7.72,2.58-11.86,2.58c-15.53,0-33.15-11.68-46.15-30.71l20.28,86.76c2.99-4.87,7.16-9.97,12.93-15.08
		c11.23-9.96,26.98-18.78,46.81-26.21c39.18-14.69,91.01-22.78,145.95-22.78c54.94,0,106.77,8.09,145.95,22.78
		c19.83,7.43,35.57,16.25,46.81,26.21c5.77,5.12,9.94,10.21,12.93,15.08L812.06,275.72L812.06,275.72z"/>
	<g>
		<path d="M759.36,292.54c2,0.94,4.14,1.39,6.55,1.39c7,0,15.07-3.82,22.69-10.38c-7.4-1.11-14.77-3.29-21.9-6.63
			c-7.12-3.35-13.49-7.63-19.07-12.62C747.37,278.12,751.65,288.92,759.36,292.54z"/>
		<path d="M692.24,267.93c1.21,0.33,2.48,0.49,3.76,0.49c7.41,0,16.02-5.46,23.4-14.45c-7.47,0.19-15.09-0.66-22.67-2.7
			c-7.59-2.05-14.62-5.15-20.98-9.09C677.91,255.83,684.02,265.71,692.24,267.93z"/>
		<path d="M621.41,255.37c0.1,0.01,0.2,0.03,0.29,0.04c0.11,0.01,0.21,0.01,0.32,0.02l0.12,0.01l0.14,0.01l0.04,0l0.1,0
			c0.22,0.01,0.45,0.02,0.67,0.02c8.06,0,16.69-7.15,23.08-18.54c-7.32,1.5-14.98,1.99-22.81,1.3c-6.21-0.55-12.18-1.82-17.85-3.69
			C610.1,247.34,616.26,254.62,621.41,255.37z"/>
		<path d="M549.13,255.47c0.21,0,0.43,0,0.65-0.01l0.1,0l0.1,0c0.13,0,0.27-0.01,0.4-0.02c0.13-0.01,0.27-0.03,0.4-0.05
			c5.16-0.76,11.32-8.03,15.91-20.82c-5.67,1.86-11.63,3.13-17.83,3.68c-7.83,0.69-15.49,0.19-22.81-1.31
			C532.44,248.32,541.07,255.47,549.13,255.47z"/>
		<path d="M476.2,268.42c1.29,0,2.55-0.17,3.76-0.49c8.23-2.22,14.34-12.1,16.5-25.75c-6.37,3.94-13.39,7.04-20.99,9.09
			c-7.58,2.05-15.2,2.9-22.67,2.7C460.18,262.96,468.78,268.42,476.2,268.42z"/>
		<path d="M412.83,292.54c7.71-3.62,11.99-14.41,11.73-28.23c-5.58,4.99-11.95,9.27-19.07,12.61c-7.12,3.35-14.49,5.52-21.9,6.63
			c7.62,6.56,15.69,10.38,22.69,10.38C408.66,293.93,410.86,293.46,412.83,292.54z"/>
	</g>
	<path d="M361.43,493.13l100.93-48.14l123.74-59.02l123.74,59.02l100.93,48.14c0.65,14.5,0.94,28.84,0.89,42.99h25.01
		c0.06-18.94-0.49-38.64-1.72-59.15l-92.5-44.11c27.42-12.85,43.83-29.14,43.83-46.88c0-41.46-89.63-75.07-200.19-75.07
		S385.9,344.51,385.9,385.97c0,17.74,16.41,34.03,43.83,46.88l-92.5,44.11c-1.23,20.51-1.78,40.22-1.72,59.15h25.01
		C360.49,521.97,360.78,507.62,361.43,493.13z"/>
	<g>
		<g>
			<path d="M225.19,785.81v-10.35h43.13V581.92c0-7.59-5.18-10.35-13.46-10.35h-29.67v-10.35h29.67c21.39,0,42.78-3.1,64.17-4.83
				v219.08h41.75v10.35H225.19z"/>
			<path d="M488.56,668.17c32.09,5.17,72.45,21.74,72.45,60.38c0,32.43-28.29,62.45-91.77,62.45c-63.48,0-91.77-30.01-91.77-62.45
				c0-38.64,40.37-55.2,72.45-60.38v-0.69c-38.98-8.63-64.17-22.77-64.17-54.86c0-39.33,48.65-56.24,83.49-56.24
				c33.12,0,83.49,16.91,83.49,56.24c0,36.57-34.5,50.03-63.48,54.86L488.56,668.17z M435.78,747.86c0,25.88,10.7,34.16,33.47,34.16
				s33.46-8.28,33.46-34.16v-36.92c-0.34-7.25-6.55-35.88-33.46-35.88s-33.47,28.63-33.47,35.88V747.86z M442.33,635.74
				c0,22.42,11.73,27.94,26.91,27.94s26.91-5.52,26.91-27.94v-40.02c0-21.04-6.56-30.36-26.91-30.36s-26.91,9.32-26.91,30.36V635.74
				z"/>
			<path d="M586.15,785.81v-10.35h43.13V581.92c0-7.59-5.17-10.35-13.46-10.35h-29.67v-10.35h29.67c21.39,0,42.78-3.1,64.17-4.83
				v219.08h41.75v10.35H586.15z"/>
			<path d="M921.75,670.93c0,51.75-35.88,120.06-92.8,120.06c-56.93,0-92.81-68.31-92.81-120.06c0-49.68,37.6-114.54,92.81-114.54
				C884.15,556.39,921.75,621.25,921.75,670.93z M861.03,609.86c0-39.33-14.49-44.51-32.08-44.51c-17.6,0-31.74,5.17-32.09,44.51
				v122.82c-0.34,37.26,12.08,49.33,32.09,49.33c20.01,0,32.08-12.08,32.08-49.33V609.86z"/>
		</g>
		<path d="M211.02,673.35c0,7.02-5.69,12.7-12.7,12.7s-12.7-5.69-12.7-12.7s12.7-37.14,12.7-37.14S211.02,666.34,211.02,673.35z"/>
		<path d="M961.17,673.35c0,7.02,5.69,12.7,12.7,12.7c7.02,0,12.7-5.69,12.7-12.7s-12.7-37.14-12.7-37.14
			S961.17,666.34,961.17,673.35z"/>
	</g>
	<g>
		<path d="M733.93,878.08c15.15-18.98,29.84-41.05,43.15-66.7h-26.9c-12.79,23.03-27.54,44.11-44.12,63.13
			c-39.62-4.54-79.6-6.83-119.79-6.83c-40.3,0-80.39,2.3-120.11,6.87c-16.59-19.03-31.35-40.12-44.15-63.16h-26.9
			c13.32,25.67,28.03,47.76,43.19,66.74c-53.35,7.59-105.97,19.28-157.47,35.05l31.94,81.89c69.13-20.64,140.44-33.33,212.75-37.88
			c34.91,22.25,60.58,29.37,60.58,29.37s25.69-7.11,60.61-29.39c72.31,4.53,143.62,17.19,212.76,37.8l31.94-81.89
			C839.9,897.33,787.28,885.65,733.93,878.08z M362.28,953.91l-9.49,2.41c-0.78,0.2-2.6-0.85-5.45-3.13
			c-2.85-2.29-6.43-5.58-10.74-9.9c-0.28,0.11-0.68,0.23-1.21,0.36c-1.39,0.35-2.37,0.58-2.95,0.69l2.99,11.78
			c0.28,1.1,0.57,1.88,0.88,2.33c0.3,0.45,0.74,0.7,1.3,0.75c0.56,0.05,1.41-0.07,2.55-0.36c0.07-0.02,0.13,0.08,0.19,0.29
			c0.05,0.21,0.05,0.33-0.03,0.35c-1.17,0.3-2.1,0.51-2.79,0.65l-4.06,0.97l-3.88,1.04c-0.7,0.22-1.66,0.48-2.87,0.78
			c-0.11,0.03-0.19-0.07-0.24-0.28c-0.05-0.21-0.03-0.33,0.08-0.36c1.14-0.29,1.94-0.59,2.41-0.89c0.47-0.31,0.74-0.75,0.8-1.31
			c0.06-0.56-0.04-1.38-0.31-2.45l-6.26-24.68c-0.27-1.07-0.56-1.83-0.86-2.28c-0.3-0.45-0.75-0.71-1.33-0.77
			c-0.58-0.06-1.43,0.05-2.53,0.33c-0.07,0.02-0.13-0.08-0.19-0.29c-0.05-0.21-0.05-0.33,0.03-0.35l2.84-0.66
			c1.65-0.34,2.96-0.64,3.92-0.88c1.21-0.31,2.46-0.68,3.75-1.12c0.45-0.15,1.02-0.33,1.71-0.55c0.68-0.21,1.45-0.42,2.31-0.64
			c3.23-0.82,5.89-0.86,7.97-0.12c2.08,0.74,3.39,2.18,3.93,4.31c0.5,1.96,0.41,3.86-0.25,5.71c-0.67,1.85-1.77,3.48-3.3,4.89
			c3.92,3.54,7.15,6.28,9.69,8.21s4.68,3.26,6.46,3.98c1.77,0.72,3.37,0.91,4.79,0.54c0.07-0.02,0.13,0.08,0.19,0.29
			C362.36,953.77,362.35,953.89,362.28,953.91z M387.94,948.24c-0.08,0.15-0.28,0.26-0.6,0.33l-23.76,5.15
			c-0.11,0.02-0.18-0.07-0.23-0.29c-0.05-0.21-0.02-0.33,0.09-0.36c1.15-0.25,1.96-0.52,2.44-0.81c0.48-0.29,0.75-0.72,0.82-1.28
			c0.07-0.56-0.02-1.38-0.25-2.45l-5.4-24.89c-0.23-1.08-0.49-1.84-0.78-2.31c-0.29-0.46-0.72-0.73-1.3-0.81
			c-0.58-0.08-1.43,0-2.54,0.24c-0.11,0.02-0.18-0.07-0.23-0.29c-0.05-0.21-0.02-0.33,0.09-0.36l22.79-4.94
			c0.36-0.08,0.57,0.04,0.64,0.37l1.66,7.13c0.02,0.07-0.07,0.15-0.26,0.23c-0.19,0.08-0.31,0.07-0.37-0.03
			c-1.02-1.95-2.33-3.29-3.91-3.99c-1.58-0.71-3.48-0.82-5.7-0.34l-1.61,0.35c-1.07,0.23-1.81,0.64-2.21,1.21
			c-0.4,0.58-0.5,1.35-0.29,2.31l2.38,10.96l4.46-0.97c2.08-0.45,3.59-1.15,4.55-2.11c0.96-0.96,1.29-2.08,1.01-3.37
			c-0.02-0.11,0.06-0.18,0.26-0.23c0.2-0.04,0.31-0.01,0.33,0.1l1,4.85l0.61,2.57c0.34,1.2,0.58,2.16,0.74,2.88
			c0.02,0.07-0.08,0.13-0.3,0.18c-0.22,0.05-0.33,0.04-0.35-0.04c-0.32-1.47-1.13-2.5-2.44-3.1s-3.02-0.67-5.14-0.21l-4.41,0.96
			l2.64,12.15c0.23,1.04,0.59,1.77,1.09,2.18c0.5,0.42,1.18,0.53,2.04,0.34l1.77-0.38c2.79-0.61,4.91-1.67,6.35-3.18
			c1.44-1.51,2.29-3.55,2.55-6.13c-0.02-0.07,0.05-0.12,0.19-0.15c0.11-0.02,0.21-0.02,0.31,0.02c0.1,0.04,0.16,0.07,0.16,0.11
			c0.25,2.87,0.62,5.46,1.12,7.75C388.03,947.87,388.02,948.09,387.94,948.24z M413.46,939.5c-0.74,1.65-1.92,3.04-3.56,4.19
			c-1.63,1.14-3.55,1.92-5.75,2.33c-1.62,0.3-3.36,0.39-5.21,0.27c-1.85-0.12-3.13-0.4-3.85-0.82c-0.21-0.11-0.37-0.22-0.48-0.33
			c-0.11-0.11-0.2-0.31-0.25-0.6l-1.76-8.57l-0.01-0.05c-0.03-0.14,0.05-0.24,0.23-0.29c0.18-0.05,0.3-0.01,0.36,0.13
			c1.49,2,2.77,3.61,3.84,4.82c1.07,1.22,2.32,2.24,3.76,3.05c1.44,0.81,2.95,1.07,4.54,0.78c1.44-0.27,2.56-0.88,3.35-1.83
			c0.79-0.95,1.02-2.36,0.67-4.24c-0.3-1.59-0.91-2.91-1.83-3.97c-0.92-1.06-1.97-1.91-3.13-2.55c-1.16-0.64-2.74-1.37-4.72-2.2
			c-1.94-0.79-3.46-1.5-4.56-2.12c-1.1-0.61-2.1-1.42-2.99-2.41c-0.89-0.99-1.48-2.24-1.76-3.76c-0.36-1.91-0.11-3.63,0.75-5.15
			c0.85-1.52,2.09-2.76,3.7-3.71c1.61-0.95,3.37-1.61,5.29-1.96c1.26-0.23,2.56-0.36,3.9-0.36c1.34-0.01,2.44,0.08,3.29,0.25
			c0.35,0.08,0.6,0.2,0.73,0.34c0.14,0.14,0.23,0.34,0.28,0.59l1.48,7.95c0.02,0.11-0.06,0.21-0.23,0.29
			c-0.17,0.09-0.28,0.08-0.34-0.02l-0.62-0.95c-1.32-2.1-2.74-3.83-4.24-5.2c-1.5-1.36-3.34-1.84-5.5-1.44
			c-1.44,0.27-2.54,0.9-3.31,1.9c-0.76,1-1,2.29-0.7,3.88c0.24,1.3,0.79,2.39,1.65,3.27c0.85,0.89,1.84,1.62,2.95,2.19
			c1.11,0.58,2.6,1.25,4.46,2.02c2.02,0.82,3.65,1.56,4.89,2.22c1.24,0.66,2.36,1.55,3.35,2.65c0.99,1.1,1.63,2.46,1.94,4.09
			C414.39,936.09,414.2,937.85,413.46,939.5z M446.53,913.56c-0.18,0.03-0.3-0.01-0.35-0.11c-0.97-2.71-2.31-4.64-4.01-5.81
			c-1.7-1.17-3.64-1.58-5.81-1.25c-1.05,0.16-1.71,0.5-1.99,1c-0.28,0.51-0.32,1.39-0.12,2.66l3.84,25.06
			c0.17,1.12,0.41,1.92,0.7,2.4c0.3,0.47,0.76,0.75,1.41,0.84s1.64,0.03,2.98-0.18c0.11-0.02,0.18,0.08,0.21,0.3
			c0.03,0.22,0,0.33-0.11,0.35c-1.3,0.2-2.34,0.34-3.11,0.42l-4.52,0.64l-4.4,0.73c-0.76,0.15-1.8,0.33-3.15,0.54
			c-0.11,0.02-0.18-0.08-0.21-0.3s0-0.33,0.11-0.35c1.3-0.2,2.26-0.44,2.87-0.72c0.61-0.28,0.99-0.7,1.14-1.26
			c0.15-0.56,0.15-1.39-0.02-2.47l-3.86-25.17c-0.19-1.23-0.48-2.04-0.87-2.43c-0.39-0.38-1.1-0.5-2.11-0.34
			c-4.31,0.66-6.98,3.95-8,9.85c-0.02,0.12-0.12,0.18-0.31,0.19c-0.18,0.01-0.28-0.04-0.3-0.15c-0.08-1.47-0.2-3.37-0.37-5.7
			c-0.17-2.33-0.35-4.07-0.52-5.23c-0.03-0.18,0.06-0.29,0.26-0.32c0.2-0.03,0.31,0.04,0.34,0.23c0.12,0.8,1.22,1.04,3.28,0.72
			c3.13-0.37,6.78-0.87,10.95-1.51c2.14-0.33,4.4-0.71,6.78-1.15l3.69-0.62c1.38-0.21,2.37-0.46,2.98-0.73
			c0.61-0.28,0.96-0.7,1.06-1.27c0.01-0.15,0.12-0.24,0.32-0.27c0.2-0.03,0.31,0.03,0.33,0.17c0.06,1.1,0.21,2.86,0.45,5.27
			c0.24,2.41,0.47,4.34,0.69,5.79C446.8,913.47,446.72,913.54,446.53,913.56z M488,933.2c-0.73,0.09-1.86,0.18-3.4,0.29
			c-1.61,0.12-2.76,0.22-3.45,0.3c-0.91,0.11-2.02,0.28-3.32,0.51c-1.23,0.22-2.21,0.37-2.94,0.46c-0.15,0.02-0.23-0.08-0.26-0.3
			c-0.03-0.22,0.03-0.34,0.18-0.35c0.95-0.11,1.62-0.29,2.01-0.54c0.39-0.25,0.56-0.63,0.5-1.14c-0.07-0.62-0.56-1.61-1.46-2.98
			l-4.59-6.93l-13.44,1.6l-1.56,5c-0.35,1.11-0.47,2.12-0.36,3.03c0.16,1.31,0.74,2.28,1.76,2.89c1.02,0.62,2.31,0.83,3.87,0.65
			c0.18-0.02,0.29,0.08,0.31,0.29c0.03,0.22-0.05,0.34-0.23,0.36c-0.66,0.08-1.61,0.16-2.85,0.23c-1.39,0.09-2.6,0.2-3.62,0.32
			c-0.98,0.12-2.16,0.29-3.54,0.53c-1.23,0.22-2.23,0.38-2.99,0.47c-0.15,0.02-0.23-0.08-0.26-0.3c-0.03-0.22,0.03-0.34,0.18-0.35
			c1.02-0.12,1.85-0.43,2.49-0.93c0.64-0.5,1.24-1.33,1.81-2.49c0.56-1.16,1.19-2.85,1.89-5.07l8.75-27.46
			c0.06-0.12,0.22-0.19,0.47-0.22c0.29-0.04,0.46,0,0.51,0.11l16.85,25.24c1.58,2.43,2.85,4.09,3.81,4.97
			c0.95,0.88,1.89,1.27,2.8,1.16c0.18-0.02,0.29,0.08,0.31,0.3C488.26,933.06,488.18,933.18,488,933.2z M520.57,896.76
			c-1.43,0.12-2.49,0.77-3.2,1.97c-0.71,1.2-0.99,2.78-0.83,4.76l1.25,15.24c0.21,2.56-0.17,4.85-1.15,6.88
			c-0.98,2.03-2.45,3.65-4.43,4.86c-1.98,1.21-4.32,1.93-7.03,2.15c-2.71,0.22-5.14-0.1-7.31-0.95c-2.17-0.85-3.92-2.21-5.27-4.07
			c-1.35-1.86-2.13-4.1-2.34-6.73l-1.45-17.71c-0.09-1.1-0.26-1.89-0.5-2.39c-0.24-0.5-0.64-0.82-1.18-0.98
			c-0.55-0.16-1.39-0.19-2.52-0.1c-0.11,0.01-0.17-0.1-0.19-0.32c-0.02-0.22,0.03-0.33,0.14-0.34l2.91-0.18
			c1.69-0.06,3.02-0.14,4.01-0.22c1.1-0.09,2.48-0.24,4.16-0.45l2.79-0.28c0.11-0.01,0.17,0.1,0.19,0.32
			c0.02,0.22-0.03,0.33-0.14,0.34c-1.13,0.09-1.96,0.27-2.47,0.53c-0.51,0.26-0.85,0.67-1,1.21c-0.16,0.55-0.19,1.37-0.1,2.46
			l1.28,15.68c0.36,4.35,1.48,7.5,3.36,9.44c1.89,1.94,4.4,2.79,7.55,2.53c3.03-0.25,5.33-1.36,6.9-3.35
			c1.57-1.99,2.21-4.7,1.93-8.13l-1.25-15.29c-0.16-1.97-0.74-3.49-1.72-4.55c-0.99-1.06-2.29-1.52-3.89-1.39
			c-0.07,0.01-0.12-0.1-0.14-0.32c-0.02-0.22,0.01-0.33,0.08-0.34l2.64-0.16c1.39-0.04,2.51-0.09,3.35-0.16
			c0.69-0.06,1.7-0.17,3.01-0.36l2.52-0.26c0.07-0.01,0.12,0.1,0.14,0.32C520.67,896.64,520.64,896.76,520.57,896.76z
			 M586.09,960.28c-3.13-1.12-7.32-2.73-12.33-4.91c4.17-0.05,8.34-0.09,12.51-0.09c4.06,0,8.11,0.03,12.16,0.09
			C593.42,957.55,589.23,959.16,586.09,960.28z M601.04,928.48c-0.73,0-1.87-0.03-3.41-0.09c-1.62-0.07-2.77-0.1-3.47-0.09
			c-0.92,0-2.03,0.05-3.35,0.13c-1.25,0.08-2.24,0.12-2.97,0.13c-0.15,0-0.22-0.11-0.22-0.33c0-0.22,0.07-0.33,0.22-0.33
			c0.95,0,1.64-0.11,2.06-0.31c0.42-0.2,0.63-0.56,0.63-1.08c0-0.62-0.38-1.67-1.12-3.13l-3.78-7.41l-13.53,0.07l-2.12,4.8
			c-0.47,1.07-0.71,2.06-0.7,2.97c0.01,1.32,0.48,2.34,1.42,3.07s2.2,1.09,3.77,1.08c0.18,0,0.28,0.11,0.28,0.33
			c0,0.22-0.09,0.33-0.27,0.33c-0.66,0-1.61-0.03-2.86-0.1c-1.39-0.07-2.6-0.1-3.63-0.09c-0.99,0-2.18,0.05-3.57,0.13
			c-0.68,0.04-1.28,0.07-1.82,0.1c0,0,0,0,0,0l-9.78,0.42c-0.81,0.04-2.37-1.36-4.69-4.17s-5.16-6.78-8.5-11.88
			c-0.29,0.05-0.71,0.09-1.26,0.11c-1.43,0.06-2.44,0.09-3.02,0.08l0.53,12.14c0.05,1.14,0.18,1.96,0.38,2.46s0.58,0.84,1.12,1
			c0.54,0.16,1.39,0.21,2.57,0.16c0.07,0,0.11,0.11,0.12,0.33c0.01,0.22-0.02,0.33-0.1,0.33c-1.21,0.05-2.16,0.08-2.86,0.07
			l-4.18,0.13l-4.01,0.23c-0.73,0.07-1.72,0.13-2.96,0.18c-0.11,0-0.17-0.1-0.18-0.32c-0.01-0.22,0.04-0.33,0.15-0.34
			c1.17-0.05,2.02-0.18,2.54-0.39c0.52-0.21,0.87-0.58,1.05-1.12c0.18-0.54,0.24-1.36,0.2-2.46l-1.1-25.44
			c-0.05-1.1-0.17-1.9-0.38-2.41c-0.21-0.5-0.59-0.85-1.15-1.02c-0.56-0.18-1.41-0.24-2.54-0.19c-0.07,0-0.11-0.11-0.12-0.33
			c-0.01-0.22,0.02-0.33,0.1-0.33l2.91-0.07c1.69,0,3.03-0.02,4.02-0.06c1.24-0.05,2.54-0.17,3.89-0.33
			c0.47-0.06,1.07-0.12,1.78-0.19s1.51-0.12,2.39-0.16c3.33-0.14,5.94,0.36,7.83,1.51c1.88,1.15,2.87,2.82,2.97,5.02
			c0.09,2.01-0.38,3.86-1.41,5.54s-2.44,3.05-4.23,4.12c3.12,4.27,5.72,7.61,7.81,10.01c2.09,2.41,3.92,4.14,5.51,5.21
			c1.44,0.97,2.83,1.45,4.17,1.49c0.69-0.08,1.3-0.28,1.81-0.6c0.69-0.42,1.39-1.18,2.08-2.27c0.69-1.08,1.51-2.69,2.45-4.83
			l11.81-26.29c0.07-0.11,0.24-0.17,0.49-0.17c0.29,0,0.46,0.05,0.5,0.16l13.88,26.99c1.3,2.6,2.37,4.39,3.22,5.37
			c0.85,0.99,1.73,1.48,2.65,1.47c0.18,0,0.28,0.11,0.28,0.33C601.31,928.37,601.22,928.48,601.04,928.48z M641.41,896.13
			c-1.47-0.05-2.64,0.49-3.52,1.61c-0.88,1.13-1.36,2.66-1.42,4.6l-0.97,28.14c0,0.11-0.09,0.18-0.25,0.21
			c-0.17,0.03-0.29,0.01-0.36-0.07l-24.77-30.24l-0.73,21.38c-0.07,1.94,0.28,3.5,1.05,4.66c0.77,1.16,1.87,1.77,3.29,1.82
			c0.07,0,0.11,0.11,0.1,0.33s-0.05,0.33-0.12,0.33c-1.03-0.04-1.81-0.08-2.36-0.14l-2.97-0.16l-3.41-0.06
			c-0.63,0.02-1.52,0-2.7-0.04c-0.11,0-0.16-0.12-0.15-0.34s0.07-0.33,0.18-0.32c1.61,0.06,2.91-0.47,3.88-1.57s1.49-2.63,1.56-4.57
			l0.8-23.25c-1.16-1.36-2.17-2.3-3.01-2.83s-1.72-0.8-2.64-0.83c-0.07,0-0.11-0.11-0.1-0.33c0.01-0.22,0.05-0.33,0.12-0.33
			l2.31,0.13c0.47,0.05,1.17,0.09,2.09,0.13l4.18,0.09c0.51-0.02,1.14-0.02,1.87,0.01c0.29,0.01,0.51,0.09,0.65,0.24
			c0.14,0.15,0.39,0.47,0.74,0.96c0.59,0.87,1.01,1.45,1.26,1.75l18.27,22.58l0.61-17.75c0.07-1.98-0.28-3.55-1.05-4.71
			c-0.77-1.16-1.87-1.77-3.29-1.82c-0.07,0-0.11-0.11-0.1-0.33c0.01-0.22,0.05-0.33,0.12-0.33l2.36,0.14
			c1.17,0.11,2.16,0.18,2.96,0.21c0.73,0.03,1.76,0.02,3.08,0l2.48,0.03c0.07,0,0.11,0.11,0.1,0.33
			C641.52,896.02,641.48,896.13,641.41,896.13z M675.54,901.85c-0.3,2.4-0.5,4.34-0.61,5.8c-0.01,0.11-0.1,0.16-0.29,0.14
			c-0.18-0.01-0.29-0.08-0.32-0.19c-0.35-2.85-1.22-5.04-2.62-6.56c-1.4-1.52-3.19-2.35-5.39-2.51c-1.06-0.08-1.78,0.1-2.16,0.53
			c-0.38,0.43-0.62,1.29-0.71,2.57l-1.82,25.29c-0.08,1.13-0.03,1.96,0.15,2.49s0.58,0.91,1.19,1.13c0.61,0.23,1.59,0.39,2.94,0.49
			c0.11,0.01,0.16,0.12,0.14,0.34c-0.02,0.22-0.08,0.33-0.19,0.32c-1.32-0.09-2.36-0.19-3.12-0.28l-4.55-0.38l-4.45-0.27
			c-0.77-0.02-1.83-0.08-3.19-0.17c-0.11-0.01-0.16-0.12-0.14-0.34s0.08-0.33,0.19-0.32c1.32,0.09,2.3,0.07,2.95-0.06
			c0.65-0.14,1.12-0.46,1.39-0.97c0.28-0.51,0.45-1.32,0.53-2.42l1.83-25.4c0.09-1.24-0.01-2.1-0.31-2.56
			c-0.3-0.46-0.96-0.73-1.98-0.8c-4.35-0.31-7.68,2.3-9.99,7.83c-0.04,0.11-0.16,0.15-0.34,0.11c-0.18-0.03-0.27-0.1-0.26-0.21
			c0.25-1.45,0.55-3.33,0.9-5.64c0.35-2.31,0.57-4.05,0.65-5.22c0.01-0.18,0.12-0.27,0.32-0.25c0.2,0.01,0.29,0.11,0.28,0.3
			c-0.06,0.8,0.96,1.28,3.04,1.43c3.14,0.34,6.81,0.66,11.01,0.96c2.16,0.16,4.45,0.28,6.87,0.38l3.73,0.21
			c1.39,0.1,2.41,0.08,3.06-0.05c0.65-0.14,1.09-0.47,1.31-1.01c0.05-0.14,0.17-0.21,0.37-0.19c0.2,0.01,0.3,0.1,0.29,0.24
			C676.09,897.69,675.84,899.44,675.54,901.85z M704.22,908.73c-0.01,0.07-0.11,0.12-0.32,0.13c-0.21,0.02-0.32-0.03-0.34-0.15
			c-0.36-2.18-1.18-3.85-2.46-5.01c-1.28-1.17-3.05-1.87-5.31-2.11l-1.64-0.17c-1.09-0.11-1.92,0.04-2.48,0.46
			c-0.56,0.42-0.89,1.12-1,2.11l-1.17,11.16l4.54,0.48c2.12,0.22,3.78,0.03,4.98-0.58c1.21-0.61,1.88-1.57,2.02-2.89
			c0.01-0.11,0.12-0.15,0.32-0.13c0.2,0.02,0.3,0.09,0.28,0.2l-0.57,4.92l-0.22,2.63c-0.06,1.25-0.12,2.24-0.2,2.96
			c-0.01,0.07-0.12,0.1-0.34,0.08c-0.22-0.02-0.32-0.07-0.32-0.14c0.16-1.49-0.29-2.73-1.35-3.71c-1.06-0.98-2.66-1.58-4.82-1.8
			l-4.49-0.47l-1.3,12.36c-0.11,1.06,0.01,1.86,0.35,2.42c0.35,0.55,0.96,0.88,1.83,0.97l1.8,0.19c2.84,0.3,5.18-0.04,7.02-1.03
			c1.84-0.99,3.28-2.66,4.34-5.02c0.01-0.07,0.08-0.1,0.23-0.09c0.11,0.01,0.21,0.05,0.29,0.11c0.08,0.06,0.13,0.12,0.12,0.15
			c-0.66,2.81-1.12,5.38-1.36,7.71c-0.03,0.29-0.11,0.5-0.23,0.61c-0.12,0.12-0.35,0.16-0.68,0.12l-24.18-2.54
			c-0.11-0.01-0.15-0.13-0.13-0.35c0.02-0.22,0.09-0.32,0.2-0.31c1.17,0.12,2.02,0.12,2.57-0.01c0.55-0.13,0.94-0.44,1.18-0.95
			c0.24-0.51,0.41-1.31,0.53-2.41l2.66-25.33c0.11-1.09,0.11-1.91-0.02-2.44c-0.13-0.53-0.46-0.92-0.98-1.18
			c-0.53-0.26-1.35-0.45-2.48-0.56c-0.11-0.01-0.15-0.13-0.13-0.35c0.02-0.22,0.09-0.32,0.2-0.31l23.19,2.43
			c0.36,0.04,0.53,0.22,0.5,0.55L704.22,908.73z M727.81,927.42c-0.15,1.05-0.54,1.83-1.19,2.33s-1.47,0.68-2.49,0.54
			c-1.02-0.14-1.78-0.55-2.3-1.24c-0.52-0.68-0.7-1.53-0.56-2.55c0.13-0.94,0.54-1.67,1.22-2.16c0.68-0.5,1.53-0.68,2.54-0.54
			c1.02,0.14,1.77,0.53,2.25,1.17C727.77,925.62,727.94,926.43,727.81,927.42z M771.75,935.75c-0.33,1.88-1.17,3.48-2.51,4.81
			c-1.35,1.33-3.06,2.27-5.13,2.82c-2.07,0.55-4.28,0.62-6.63,0.21c-1.01-0.18-2.16-0.43-3.44-0.77c-0.5-0.12-1.12-0.27-1.85-0.43
			s-1.55-0.33-2.46-0.48l-3.96-0.63c-0.73-0.09-1.71-0.24-2.94-0.46c-0.11-0.02-0.14-0.14-0.11-0.35c0.04-0.22,0.11-0.32,0.22-0.3
			c1.05,0.18,1.86,0.22,2.44,0.12c0.58-0.1,1.03-0.4,1.35-0.88c0.33-0.48,0.58-1.25,0.76-2.3l4.37-25.09
			c0.26-1.52,0.19-2.56-0.23-3.14c-0.42-0.58-1.41-1-2.96-1.27c-0.07-0.01-0.09-0.13-0.05-0.34c0.04-0.22,0.09-0.32,0.17-0.31
			l2.86,0.55c1.65,0.36,2.96,0.63,3.94,0.8c1.01,0.18,2.07,0.3,3.17,0.38c0.37,0.03,0.92,0.08,1.64,0.17s1.36,0.18,1.91,0.28
			c3.29,0.57,5.73,1.61,7.33,3.12s2.2,3.4,1.8,5.67c-0.3,1.73-1.14,3.21-2.53,4.42c-1.38,1.21-3.21,2.03-5.48,2.45
			c2.97,0.89,5.21,2.32,6.71,4.29C771.65,931.08,772.18,933.3,771.75,935.75z M811.01,954.08c-0.72-0.15-1.82-0.42-3.31-0.81
			c-1.56-0.41-2.69-0.68-3.37-0.83c-0.9-0.19-2-0.39-3.3-0.59c-1.24-0.19-2.21-0.36-2.93-0.51c-0.14-0.03-0.19-0.15-0.15-0.37
			c0.04-0.21,0.14-0.31,0.28-0.28c0.93,0.2,1.63,0.24,2.08,0.13c0.45-0.11,0.73-0.42,0.84-0.92c0.13-0.61-0.01-1.71-0.43-3.29
			l-2.12-8.04l-13.24-2.8l-3.09,4.24c-0.69,0.94-1.13,1.86-1.32,2.76c-0.27,1.29-0.03,2.39,0.73,3.3c0.76,0.91,1.92,1.53,3.46,1.86
			c0.18,0.04,0.25,0.16,0.2,0.38c-0.05,0.21-0.16,0.3-0.34,0.27c-0.65-0.14-1.57-0.37-2.78-0.7c-1.35-0.36-2.52-0.65-3.53-0.86
			c-0.97-0.21-2.14-0.42-3.52-0.63c-1.24-0.19-2.23-0.36-2.98-0.52c-0.14-0.03-0.19-0.15-0.15-0.37c0.05-0.21,0.14-0.31,0.28-0.28
			c1,0.21,1.89,0.19,2.66-0.08c0.77-0.27,1.61-0.86,2.51-1.77c0.91-0.91,2.04-2.31,3.42-4.2l17.11-23.19
			c0.09-0.09,0.27-0.11,0.52-0.06c0.29,0.06,0.44,0.15,0.45,0.26l7.84,29.32c0.71,2.81,1.38,4.79,2,5.93c0.62,1.14,1.38,1.81,2.27,2
			c0.18,0.04,0.25,0.16,0.2,0.38C811.3,954.03,811.19,954.12,811.01,954.08z M848.47,963.25c-0.05,0.21-0.12,0.31-0.19,0.29
			l-9.49-2.4c-0.78-0.2-1.88-1.98-3.3-5.35s-2.99-7.97-4.73-13.82c-0.29-0.04-0.71-0.12-1.24-0.26c-1.39-0.35-2.36-0.62-2.92-0.8
			l-2.98,11.78c-0.28,1.1-0.39,1.92-0.34,2.47c0.05,0.54,0.31,0.97,0.78,1.28c0.47,0.31,1.27,0.61,2.41,0.89
			c0.07,0.02,0.08,0.13,0.03,0.35c-0.05,0.21-0.12,0.31-0.19,0.29c-1.17-0.3-2.09-0.55-2.76-0.76l-4.04-1.08l-3.91-0.93
			c-0.72-0.14-1.68-0.37-2.89-0.68c-0.11-0.03-0.13-0.15-0.08-0.36c0.05-0.21,0.13-0.31,0.24-0.28c1.14,0.29,1.99,0.41,2.55,0.36
			c0.56-0.05,1-0.3,1.33-0.77c0.33-0.47,0.62-1.23,0.89-2.3l6.25-24.69c0.27-1.07,0.38-1.87,0.33-2.41
			c-0.05-0.54-0.32-0.98-0.8-1.31c-0.48-0.33-1.28-0.64-2.38-0.92c-0.07-0.02-0.08-0.13-0.03-0.35c0.05-0.21,0.12-0.31,0.19-0.29
			l2.81,0.77c1.62,0.49,2.91,0.85,3.87,1.09c1.21,0.31,2.48,0.57,3.83,0.8c0.47,0.08,1.06,0.19,1.76,0.33
			c0.7,0.14,1.48,0.32,2.33,0.53c3.23,0.82,5.59,2.05,7.07,3.69c1.48,1.64,1.94,3.53,1.4,5.66c-0.5,1.96-1.48,3.59-2.94,4.9
			c-1.47,1.31-3.21,2.22-5.23,2.73c1.76,4.99,3.3,8.93,4.61,11.83c1.31,2.9,2.57,5.09,3.78,6.57c1.21,1.48,2.53,2.4,3.95,2.76
			C848.52,962.92,848.52,963.04,848.47,963.25z"/>
		<path d="M837.93,928.24c-0.57-1.32-1.66-2.18-3.26-2.58c-1.42-0.36-2.5-0.35-3.24,0.03c-0.74,0.38-1.27,1.19-1.58,2.44l-2.86,11.3
			c0.82,0.36,1.83,0.69,3.04,1c2.06,0.52,3.69,0.32,4.89-0.61c1.2-0.92,2.12-2.67,2.77-5.23
			C838.42,931.68,838.51,929.56,837.93,928.24z"/>
	</g>
	<path d="M415.72,1027.64l-110.4-17.25l-24.69-63.3c-25.7,8.15-50.97,17.26-75.73,27.37l80.9,35.52l-0.07,0.15l-29.3,63.72l0,0
		C307.42,1053.75,360.68,1038.19,415.72,1027.64L415.72,1027.64z"/>
	<path d="M756.47,1027.64l110.4-17.25l24.69-63.3c25.7,8.15,50.97,17.26,75.73,27.37l-80.9,35.52l0.07,0.15l29.3,63.72l0,0
		C864.77,1053.75,811.51,1038.19,756.47,1027.64L756.47,1027.64z"/>
	<path d="M438.57,1016.58l-7.63-36.04c-30.15,5.01-60.01,11.5-89.51,19.42L438.57,1016.58z"/>
	<path d="M733.62,1016.58l7.63-36.04c30.15,5.01,60.01,11.5,89.51,19.42L733.62,1016.58z"/>
	<g>
		<path d="M558.32,434.36c-3.15-1.76-7.41-1.53-11.12,0.58c-2.92,1.66-5.65,4.33-8.14,7.93c-2.48,3.6-4.01,7.11-4.53,10.42
			c-0.66,4.22,0.64,8.28,3.41,10.6c2.53,2.13,5.81,2.53,8.11,2.49c2.39-0.04,4.75-0.54,7.03-1.02c0.42-0.09,0.84-0.18,1.26-0.26
			c2.31-0.47,4.98-0.94,7.61-0.64c-0.1,2.17,0.6,3.17,1.98,4.48c1.41,1.34,3.42,2.06,5.36,1.95c0.02,0.68,0.31,1.3,0.84,1.73
			c0.73,0.58,1.75,0.68,2.67,0.24c0.39-0.18,0.83-0.47,1.29-0.83l53.83,38.46c2.53,1.77,4.97,1.04,6.75-1.49
			c1.77-2.53,1.3-6.25-1.23-8.02l-53.94-36.81l-0.11-0.07c0.08-1.01-0.37-1.94-1.17-2.41c-0.59-0.34-1.27-0.4-1.92-0.17
			c-0.59-1.86-1.98-3.48-3.73-4.32c-1.71-0.82-3.21-1.45-5.21-0.59c-1.09-2.1-1.63-4.47-2.1-7.34c-0.07-0.42-0.14-0.84-0.2-1.27
			c-0.36-2.31-0.73-4.69-1.54-6.94C562.75,438.89,561.21,435.97,558.32,434.36z M559.28,446.02c0.04,0.59-0.23,1.16-0.67,1.47
			c-0.21,0.14-0.63,0.34-1.16,0.07c-0.45-0.22-0.98-0.09-1.26,0.3l-5.69,7.92c-0.29,0.4-0.24,0.94,0.11,1.29
			c0.42,0.42,0.37,0.88,0.3,1.12c-0.14,0.52-0.6,0.95-1.18,1.11c-3.93,0.47-6.69-0.46-8-2.67c-1.66-2.81-0.79-7.59,2.12-11.63
			c2.91-4.04,7.16-6.39,10.35-5.72C556.72,439.82,558.47,442.15,559.28,446.02z"/>
		<path d="M635.23,438.51c3.78,5.26-1.63,16.3-10.32,22.54c-2.55,1.83-5.1,3.85-7.96,5.18c-3.43,1.59-7.24,1.32-10.88,1.66
			c-4.54,0.42-6.72,2.25-10.4,4.72c-1.69,1.14-3.45,2.21-5.09,3.42c0,0-46.81,34.73-46.84,34.76c-0.55,0.4-4.93,1.62-6.35-0.36
			c-1.42-1.98,0.64-6.42,1.23-6.83c0,0,47.7-33.83,47.7-33.83c4.58-3.24,10.68-6.1,12.84-11.42c2.66-6.57,6.16-12.12,12.06-16.36
			C619.92,435.75,631.45,433.25,635.23,438.51z"/>
	</g>
	<path d="M336.37,927.8c-1.13-0.88-2.5-1.13-4.1-0.72c-1.42,0.36-2.37,0.88-2.84,1.57c-0.47,0.69-0.55,1.65-0.23,2.9l2.87,11.3
		c0.89-0.07,1.94-0.26,3.15-0.57c2.06-0.52,3.4-1.48,4.01-2.86c0.61-1.38,0.6-3.36-0.05-5.92
		C338.44,930.58,337.5,928.68,336.37,927.8z"/>
	<polygon points="458.37,922.5 470.27,921.08 462.51,909.37 	"/>
	<path d="M542.53,897.8c-0.93-1.1-2.22-1.61-3.87-1.54c-1.47,0.06-2.5,0.38-3.1,0.96c-0.6,0.58-0.87,1.51-0.82,2.79l0.5,11.65
		c0.89,0.11,1.95,0.14,3.2,0.08c2.12-0.09,3.63-0.75,4.51-1.98c0.88-1.23,1.27-3.17,1.15-5.8
		C543.99,900.95,543.46,898.9,542.53,897.8z"/>
	<polygon points="572.81,914.48 584.8,914.42 578.41,901.91 	"/>
	<path d="M763,922.56c1.26-1.23,2.08-2.95,2.46-5.15c0.36-2.06,0.18-3.7-0.54-4.92c-0.72-1.22-1.93-1.98-3.62-2.28
		c-1.05-0.18-1.81-0.07-2.29,0.35c-0.48,0.42-0.84,1.3-1.07,2.63l-1.79,10.29l2.16,0.43C760.17,924.25,761.74,923.79,763,922.56z"/>
	<path d="M758.69,925.5c-1.05-0.18-1.99-0.31-2.84-0.38l-2.28,13.06c-0.21,1.19-0.12,2.07,0.27,2.64c0.38,0.57,1.37,0.99,2.96,1.27
		c4.73,0.83,7.53-1.22,8.38-6.13c0.48-2.78,0.2-5.1-0.85-6.96C763.28,927.13,761.4,925.97,758.69,925.5z"/>
	<polygon points="786.39,934.42 798.12,936.9 794.53,923.32 	"/>
</g>
</svg>
