<?xml version="1.0" encoding="utf-8"?>
<!-- Generator: Adobe Illustrator 24.3.0, SVG Export Plug-In . SVG Version: 6.00 Build 0)  -->
<svg version="1.1" id="Capa_1" xmlns="http://www.w3.org/2000/svg" xmlns:xlink="http://www.w3.org/1999/xlink" x="0px" y="0px"
	 viewBox="0 0 1000 1000" style="enable-background:new 0 0 1000 1000;" xml:space="preserve">
<style type="text/css">
	.st0{fill:#7F7F7F;}
	.st1{fill:#FFFFFF;}
</style>
<g>
	<g>
		<path class="st0" d="M499.68,692.78c-41.1,0-81.11-8.16-118.9-24.26c-36.38-15.5-69.11-37.63-97.26-65.79
			c-28.16-28.16-50.29-60.88-65.79-97.26c-16.1-37.79-24.26-77.8-24.26-118.9c0-41.1,8.16-81.11,24.26-118.9
			c15.5-36.38,37.63-69.11,65.79-97.26c28.16-28.16,60.88-50.29,97.26-65.79c37.79-16.1,77.8-24.26,118.9-24.26
			c63.78,0,125,19.49,177.04,56.37c19.75,13.99,24.42,41.35,10.42,61.1c-8.54,12.06-22.07,18.49-35.8,18.49
			c-8.76,0-17.61-2.62-25.3-8.07c-37.14-26.32-80.84-40.23-126.36-40.23c-120.51,0-218.56,98.04-218.56,218.56
			s98.04,218.56,218.56,218.56s218.56-98.04,218.56-218.56c0-24.21,19.62-43.83,43.83-43.83s43.83,19.62,43.83,43.83
			c0,41.1-8.16,81.11-24.26,118.9c-15.5,36.38-37.63,69.1-65.79,97.26c-28.16,28.16-60.88,50.29-97.26,65.79
			C580.79,684.62,540.79,692.78,499.68,692.78z"/>
	</g>
	<g>
		<path class="st1" d="M499.68,645.3L499.68,645.3c0-21.38,15.42-39.66,36.5-43.22c88.87-15,159.69-83.83,177.64-171.68H499.68
			c-24.21,0-43.83-19.62-43.83-43.83V172.43c-87.85,17.95-156.68,88.77-171.68,177.64c-3.56,21.08-21.84,36.5-43.22,36.5h0
			c-27.07,0-47.74-24.29-43.27-50.98c3.92-23.38,10.56-46.2,19.87-68.22c15.43-36.47,37.5-69.21,65.61-97.32
			c28.11-28.11,60.85-50.18,97.32-65.61c37.75-15.97,77.82-24.07,119.11-24.08c24.24-0.01,43.92,19.59,43.92,43.83v218.56h218.56
			c24.24,0,43.84,19.68,43.83,43.92c-0.01,41.29-8.11,81.36-24.08,119.11c-15.43,36.47-37.5,69.21-65.61,97.32
			c-28.11,28.11-60.85,50.18-97.32,65.61c-22.02,9.32-44.84,15.95-68.22,19.87C523.97,693.04,499.68,672.37,499.68,645.3z"/>
	</g>
	<g>
		<path class="st1" d="M19.69,783.55c0.91,0,1.84,0.2,2.8,0.6c0.96,0.4,1.74,1.01,2.34,1.81l40.52,61.24l-4.99-0.15l40.98-61.09
			c1.21-1.81,2.82-2.62,4.84-2.42c1.41,0,2.67,0.53,3.78,1.59c1.11,1.06,1.66,2.4,1.66,4.01v94.51c0,1.61-0.56,2.97-1.66,4.08
			c-1.11,1.11-2.47,1.66-4.08,1.66c-1.72,0-3.13-0.55-4.23-1.66c-1.11-1.11-1.66-2.47-1.66-4.08v-83.62l3.48,0.6l-36.44,55.34
			c-0.51,0.71-1.16,1.29-1.97,1.74c-0.81,0.45-1.66,0.68-2.57,0.68c-0.81,0-1.64-0.23-2.5-0.68c-0.86-0.45-1.54-1.03-2.04-1.74
			l-36.14-55.49l3.02-3.33v86.49c0,1.61-0.51,2.97-1.51,4.08c-1.01,1.11-2.32,1.66-3.93,1.66c-1.61,0-2.92-0.55-3.93-1.66
			c-1.01-1.11-1.51-2.47-1.51-4.08v-94.51c0-1.51,0.55-2.82,1.66-3.93C16.72,784.11,18.08,783.55,19.69,783.55z"/>
		<path class="st1" d="M141.71,800.19c-2.42,0-4.21-0.5-5.37-1.51c-1.16-1.01-1.74-2.52-1.74-4.54v-1.81c0-2.12,0.63-3.65,1.89-4.61
			c1.26-0.96,3.05-1.44,5.37-1.44c2.32,0,4.06,0.51,5.22,1.51c1.16,1.01,1.74,2.52,1.74,4.54v1.81c0,2.12-0.6,3.66-1.81,4.61
			C145.8,799.71,144.03,800.19,141.71,800.19z M147.46,883.65c0,1.61-0.56,2.97-1.66,4.08c-1.11,1.11-2.47,1.66-4.08,1.66
			c-1.61,0-2.95-0.55-4.01-1.66c-1.06-1.11-1.59-2.47-1.59-4.08v-67.74c0-1.61,0.55-2.97,1.66-4.08c1.11-1.11,2.42-1.66,3.93-1.66
			c1.71,0,3.1,0.56,4.16,1.66c1.06,1.11,1.59,2.47,1.59,4.08V883.65z"/>
		<path class="st1" d="M201.74,809.56c4.33,0,8.39,0.76,12.17,2.27c3.78,1.51,7.06,3.43,9.83,5.75c2.77,2.32,4.96,4.79,6.58,7.41
			c1.61,2.62,2.42,5.09,2.42,7.41l-2.87-2.42v-13.31c0-1.61,0.53-2.97,1.59-4.08c1.06-1.11,2.39-1.66,4.01-1.66
			c1.71,0,3.07,0.56,4.08,1.66c1.01,1.11,1.51,2.47,1.51,4.08v65.93c0,8.26-1.72,15.14-5.14,20.64c-3.43,5.49-8.04,9.6-13.84,12.32
			c-5.8,2.72-12.32,4.08-19.58,4.08c-3.13,0-6.55-0.4-10.28-1.21c-3.73-0.81-6.98-1.84-9.75-3.1c-2.77-1.26-4.51-2.5-5.22-3.71
			c-1.31-1.11-2.07-2.22-2.27-3.33c-0.2-1.11,0.05-2.12,0.76-3.02c1.01-1.31,2.19-1.87,3.55-1.66c1.36,0.2,3.15,0.7,5.37,1.51
			c0.91,0.3,2.29,0.81,4.16,1.51c1.86,0.7,4.03,1.31,6.5,1.81c2.47,0.5,4.96,0.76,7.48,0.76c8.67,0,15.35-2.32,20.04-6.96
			c4.69-4.64,7.03-10.84,7.03-18.6v-14.21l1.66,0.76c-0.71,3.02-2.02,5.8-3.93,8.32c-1.92,2.52-4.23,4.71-6.96,6.58
			c-2.72,1.87-5.7,3.3-8.92,4.31c-3.23,1.01-6.5,1.51-9.83,1.51c-7.06,0-13.38-1.76-18.98-5.29c-5.59-3.53-10.03-8.34-13.31-14.44
			c-3.28-6.1-4.91-13.08-4.91-20.94c0-7.86,1.64-14.87,4.91-21.02c3.27-6.15,7.71-10.96,13.31-14.44S194.79,809.56,201.74,809.56z
			 M203.1,819.99c-5.34,0-10.08,1.31-14.21,3.93c-4.13,2.62-7.36,6.2-9.68,10.74c-2.32,4.54-3.48,9.73-3.48,15.57
			c0,5.75,1.16,10.89,3.48,15.42c2.32,4.54,5.54,8.14,9.68,10.81c4.13,2.67,8.87,4.01,14.21,4.01c5.34,0,10.06-1.28,14.14-3.86
			c4.08-2.57,7.33-6.15,9.75-10.74c2.42-4.59,3.63-9.8,3.63-15.65c0-5.95-1.21-11.19-3.63-15.73c-2.42-4.54-5.67-8.09-9.75-10.66
			C213.16,821.28,208.45,819.99,203.1,819.99z"/>
		<path class="st1" d="M321.05,811.68c1.61,0,2.95,0.53,4.01,1.59c1.06,1.06,1.59,2.4,1.59,4.01v41.58
			c0,10.18-2.85,18.02-8.54,23.51c-5.7,5.5-13.53,8.24-23.51,8.24c-9.88,0-17.67-2.74-23.36-8.24c-5.7-5.49-8.54-13.33-8.54-23.51
			v-41.58c0-1.61,0.55-2.95,1.66-4.01c1.11-1.06,2.42-1.59,3.93-1.59c1.71,0,3.1,0.53,4.16,1.59c1.06,1.06,1.59,2.4,1.59,4.01v41.58
			c0,7.06,1.79,12.38,5.37,15.95c3.58,3.58,8.64,5.37,15.2,5.37c6.65,0,11.79-1.79,15.42-5.37c3.63-3.58,5.44-8.9,5.44-15.95v-41.58
			c0-1.61,0.53-2.95,1.59-4.01C318.1,812.21,319.43,811.68,321.05,811.68z"/>
		<path class="st1" d="M384.4,890.91c-7.96,0-14.95-1.69-20.94-5.07c-6-3.38-10.69-8.06-14.06-14.06c-3.38-6-5.07-12.93-5.07-20.79
			c0-8.77,1.74-16.23,5.22-22.38c3.48-6.15,7.96-10.86,13.46-14.14c5.49-3.27,11.36-4.91,17.62-4.91c4.64,0,9.07,0.86,13.31,2.57
			c4.23,1.72,8.01,4.16,11.34,7.33c3.33,3.18,6,7.03,8.01,11.57c2.01,4.54,3.07,9.68,3.18,15.42c0,1.51-0.56,2.77-1.66,3.78
			c-1.11,1.01-2.42,1.51-3.93,1.51h-60.03l-2.42-9.68h58.52l-2.27,1.97v-3.33c-0.4-4.23-1.81-7.89-4.23-10.96
			c-2.42-3.07-5.37-5.44-8.85-7.11c-3.48-1.66-7.13-2.5-10.96-2.5c-3.02,0-6.05,0.56-9.07,1.66c-3.02,1.11-5.77,2.87-8.24,5.29
			c-2.47,2.42-4.44,5.54-5.9,9.37c-1.46,3.83-2.19,8.42-2.19,13.76c0,5.85,1.18,11.04,3.55,15.57c2.37,4.54,5.72,8.12,10.06,10.74
			c4.33,2.62,9.42,3.93,15.27,3.93c3.53,0,6.63-0.45,9.3-1.36c2.67-0.91,4.99-2.09,6.96-3.55c1.97-1.46,3.65-2.95,5.07-4.46
			c1.21-0.91,2.42-1.36,3.63-1.36c1.31,0,2.42,0.48,3.33,1.44c0.91,0.96,1.36,2.04,1.36,3.25c0,1.61-0.71,3.02-2.12,4.23
			c-2.92,3.33-6.78,6.2-11.57,8.62C395.26,889.7,390.05,890.91,384.4,890.91z"/>
		<path class="st1" d="M446.7,883.65c0,1.61-0.56,2.97-1.66,4.08c-1.11,1.11-2.47,1.66-4.08,1.66c-1.61,0-2.95-0.55-4.01-1.66
			c-1.06-1.11-1.59-2.47-1.59-4.08v-100.4c0-1.61,0.55-2.97,1.66-4.08c1.11-1.11,2.47-1.66,4.08-1.66c1.61,0,2.95,0.56,4.01,1.66
			c1.06,1.11,1.59,2.47,1.59,4.08V883.65z"/>
		<path class="st1" d="M562.07,890.91c-7.76,0-14.95-1.36-21.55-4.08c-6.6-2.72-12.4-6.55-17.39-11.49
			c-4.99-4.94-8.85-10.71-11.57-17.31c-2.72-6.6-4.08-13.78-4.08-21.55c0-7.76,1.36-14.94,4.08-21.55
			c2.72-6.6,6.58-12.37,11.57-17.31c4.99-4.94,10.79-8.77,17.39-11.49c6.6-2.72,13.78-4.08,21.55-4.08c5.24,0,10.28,0.6,15.12,1.81
			c4.84,1.21,9.22,3.02,13.15,5.44c0.91,0.51,1.59,1.19,2.04,2.04c0.45,0.86,0.68,1.74,0.68,2.65c0,1.61-0.55,2.97-1.66,4.08
			c-1.11,1.11-2.37,1.66-3.78,1.66c-0.51,0-1.03-0.1-1.59-0.3c-0.56-0.2-1.08-0.4-1.59-0.6c-3.23-1.71-6.7-3.07-10.43-4.08
			c-3.73-1.01-7.71-1.51-11.95-1.51c-8.17,0-15.45,1.92-21.85,5.75c-6.4,3.83-11.44,9-15.12,15.5c-3.68,6.5-5.52,13.84-5.52,22
			c0,8.17,1.84,15.53,5.52,22.08c3.68,6.55,8.72,11.72,15.12,15.5c6.4,3.78,13.68,5.67,21.85,5.67c4.23,0,8.52-0.58,12.85-1.74
			c4.33-1.16,8.06-2.7,11.19-4.61l-0.91,3.48v-32.66l2.27,2.12h-23.89c-1.61,0-2.97-0.53-4.08-1.59c-1.11-1.06-1.66-2.39-1.66-4.01
			c0-1.61,0.55-2.95,1.66-4.01c1.11-1.06,2.47-1.59,4.08-1.59h27.82c1.71,0,3.07,0.55,4.08,1.66c1.01,1.11,1.51,2.42,1.51,3.93
			v35.53c0,1.11-0.25,2.07-0.76,2.87c-0.51,0.81-1.16,1.51-1.97,2.12c-4.54,2.93-9.55,5.27-15.05,7.03
			C573.74,890.03,568.02,890.91,562.07,890.91z"/>
		<path class="st1" d="M689.84,850.39c0,7.76-1.71,14.72-5.14,20.87c-3.43,6.15-8.07,10.96-13.91,14.44
			c-5.85,3.48-12.45,5.22-19.81,5.22c-7.26,0-13.84-1.74-19.73-5.22c-5.9-3.48-10.58-8.29-14.06-14.44
			c-3.48-6.15-5.22-13.1-5.22-20.87c0-7.86,1.74-14.87,5.22-21.02c3.48-6.15,8.17-10.99,14.06-14.52c5.9-3.53,12.47-5.29,19.73-5.29
			c7.36,0,13.96,1.77,19.81,5.29c5.85,3.53,10.48,8.37,13.91,14.52C688.13,835.52,689.84,842.52,689.84,850.39z M678.65,850.39
			c0-5.95-1.21-11.19-3.63-15.73c-2.42-4.54-5.72-8.11-9.9-10.74c-4.18-2.62-8.9-3.93-14.14-3.93c-5.24,0-9.96,1.31-14.14,3.93
			c-4.18,2.62-7.48,6.2-9.9,10.74s-3.63,9.78-3.63,15.73c0,5.85,1.21,11.01,3.63,15.5c2.42,4.49,5.72,8.04,9.9,10.66
			c4.18,2.62,8.9,3.93,14.14,3.93c5.24,0,9.95-1.31,14.14-3.93c4.18-2.62,7.48-6.17,9.9-10.66
			C677.44,861.4,678.65,856.23,678.65,850.39z M649.77,804.42c-0.6,0-1.26-0.3-1.97-0.91c-0.71-0.6-1.06-1.36-1.06-2.27
			c0-0.6,0.3-1.36,0.91-2.27l9.07-14.67c0.6-1.01,1.38-1.94,2.34-2.8c0.96-0.86,2.09-1.29,3.4-1.29c1.91,0,3.35,0.51,4.31,1.51
			c0.96,1.01,1.44,2.32,1.44,3.93c0,0.81-0.18,1.54-0.53,2.19c-0.35,0.66-0.78,1.34-1.29,2.04L654.91,802
			c-0.71,0.81-1.49,1.41-2.34,1.81C651.71,804.22,650.78,804.42,649.77,804.42z"/>
		<path class="st1" d="M744.28,810.47c6.75,0,12.3,1.72,16.63,5.14c4.33,3.43,7.21,8.32,8.62,14.67l-2.12,0.15l0.91-2.57
			c1.21-2.92,3.3-5.72,6.28-8.39c2.97-2.67,6.4-4.84,10.28-6.5c3.88-1.66,7.84-2.5,11.87-2.5c6.55,0,11.77,1.41,15.65,4.23
			c3.88,2.82,6.65,6.6,8.32,11.34c1.66,4.74,2.49,10.03,2.49,15.88v41.73c0,1.61-0.53,2.97-1.59,4.08c-1.06,1.11-2.4,1.66-4.01,1.66
			c-1.61,0-2.95-0.55-4.01-1.66c-1.06-1.11-1.59-2.47-1.59-4.08v-41.28c0-4.03-0.58-7.66-1.74-10.89c-1.16-3.22-3.08-5.79-5.75-7.71
			c-2.67-1.91-6.28-2.87-10.81-2.87c-4.13,0-7.96,0.96-11.49,2.87c-3.53,1.92-6.35,4.49-8.47,7.71c-2.12,3.23-3.17,6.86-3.17,10.89
			v41.28c0,1.61-0.53,2.97-1.59,4.08c-1.06,1.11-2.4,1.66-4.01,1.66c-1.61,0-2.95-0.55-4.01-1.66c-1.06-1.11-1.59-2.47-1.59-4.08
			v-41.73c0-3.93-0.56-7.49-1.66-10.66c-1.11-3.18-2.95-5.69-5.52-7.56c-2.57-1.86-6.12-2.8-10.66-2.8c-4.03,0-7.76,0.93-11.19,2.8
			c-3.43,1.87-6.18,4.39-8.24,7.56c-2.07,3.17-3.1,6.73-3.1,10.66v41.73c0,1.61-0.56,2.97-1.66,4.08c-1.11,1.11-2.47,1.66-4.08,1.66
			c-1.61,0-2.95-0.55-4.01-1.66c-1.06-1.11-1.59-2.47-1.59-4.08v-66.38c0-1.61,0.55-2.95,1.66-4.01c1.11-1.06,2.42-1.59,3.93-1.59
			c1.71,0,3.1,0.53,4.16,1.59c1.06,1.06,1.59,2.4,1.59,4.01v12.25l-3.63,4.23c0.4-2.82,1.44-5.59,3.1-8.32
			c1.66-2.72,3.8-5.22,6.43-7.48c2.62-2.27,5.59-4.08,8.92-5.44C737.17,811.15,740.65,810.47,744.28,810.47z"/>
		<path class="st1" d="M881.12,890.91c-7.96,0-14.95-1.69-20.94-5.07c-6-3.38-10.69-8.06-14.06-14.06c-3.38-6-5.07-12.93-5.07-20.79
			c0-8.77,1.74-16.23,5.22-22.38c3.48-6.15,7.96-10.86,13.46-14.14c5.49-3.27,11.36-4.91,17.62-4.91c4.64,0,9.07,0.86,13.31,2.57
			c4.23,1.72,8.01,4.16,11.34,7.33c3.33,3.18,6,7.03,8.01,11.57c2.02,4.54,3.07,9.68,3.18,15.42c0,1.51-0.56,2.77-1.66,3.78
			c-1.11,1.01-2.42,1.51-3.93,1.51h-60.03l-2.42-9.68h58.52l-2.27,1.97v-3.33c-0.4-4.23-1.81-7.89-4.23-10.96
			c-2.42-3.07-5.37-5.44-8.85-7.11c-3.48-1.66-7.13-2.5-10.96-2.5c-3.02,0-6.05,0.56-9.07,1.66c-3.02,1.11-5.77,2.87-8.24,5.29
			c-2.47,2.42-4.44,5.54-5.9,9.37c-1.46,3.83-2.19,8.42-2.19,13.76c0,5.85,1.18,11.04,3.55,15.57c2.37,4.54,5.72,8.12,10.06,10.74
			c4.33,2.62,9.42,3.93,15.27,3.93c3.53,0,6.63-0.45,9.3-1.36c2.67-0.91,4.99-2.09,6.96-3.55c1.97-1.46,3.65-2.95,5.07-4.46
			c1.21-0.91,2.42-1.36,3.63-1.36c1.31,0,2.42,0.48,3.33,1.44c0.91,0.96,1.36,2.04,1.36,3.25c0,1.61-0.71,3.02-2.12,4.23
			c-2.93,3.33-6.78,6.2-11.57,8.62C891.98,889.7,886.76,890.91,881.12,890.91z"/>
		<path class="st1" d="M980.31,878.97c1.51,0,2.77,0.51,3.78,1.51c1.01,1.01,1.51,2.27,1.51,3.78c0,1.41-0.51,2.62-1.51,3.63
			c-1.01,1.01-2.27,1.51-3.78,1.51h-48.99c-1.71,0-3.05-0.6-4.01-1.81c-0.96-1.21-1.44-2.37-1.44-3.48c0.1-0.81,0.25-1.56,0.45-2.27
			c0.2-0.7,0.61-1.46,1.21-2.27l44-59.88l0.3,1.66h-37.35c-1.51,0-2.8-0.53-3.86-1.59c-1.06-1.06-1.59-2.29-1.59-3.71
			c0-1.51,0.53-2.74,1.59-3.7c1.06-0.96,2.34-1.44,3.86-1.44h46.27c1.51,0,2.77,0.53,3.78,1.59c1.01,1.06,1.51,2.4,1.51,4.01
			c-0.1,0.6-0.25,1.24-0.45,1.89c-0.2,0.66-0.6,1.39-1.21,2.19L941,879.72l-1.36-0.76H980.31z"/>
	</g>
</g>
</svg>
