<svg xmlns="http://www.w3.org/2000/svg" viewBox="0 0 80.37 80.37"><defs><style>.cls-1{fill:#a1a1a1;}</style></defs><g id="Capa_2" data-name="Capa 2"><g id="Imágenes"><path class="cls-1" d="M53.24,54.42a17.74,17.74,0,0,1-7.82-2.21l-1.61,6.5a20.55,20.55,0,0,0,9.43,2c8.34,0,12.65-4,12.65-9.45-.06-4.29-2.38-7.1-7.94-9-3.57-1.27-4.69-2-4.69-3.35s1.24-2.39,3.45-2.39A14.25,14.25,0,0,1,63,38.24L64.64,32A19.5,19.5,0,0,0,56.4,30.3c-7.22,0-11.88,4.12-11.88,9.54-.06,3.48,2.27,6.76,8.31,8.78,3.38,1.15,4.28,1.86,4.28,3.35S56,54.42,53.24,54.42"/><path class="cls-1" d="M23.48,45.76a21.54,21.54,0,0,0,3.1.17c5.37,0,10-1.31,13.06-4.22a12.81,12.81,0,0,0,3.72-9.56,11.7,11.7,0,0,0-4.31-9.31c-2.68-2.16-6.67-3.22-12.29-3.22a74.85,74.85,0,0,0-12.28.84v39.7h9Zm0-18.92a15.08,15.08,0,0,1,3.73-.36c4.55,0,7.11,2.2,7.13,5.89,0,4.13-3,6.58-7.84,6.58a14.32,14.32,0,0,1-3-.23Z"/><path class="cls-1" d="M0,80.37H80.37V0H0Zm75.4-5H5V5H75.4Z"/></g></g></svg>