<svg xmlns="http://www.w3.org/2000/svg" viewBox="0 0 165.59 165.59"><defs><style>.cls-1{fill:#a1a1a1;}</style></defs><g id="Capa_2" data-name="Capa 2"><g id="Textos"><path class="cls-1" d="M73.39,133.1a3.51,3.51,0,0,1-1.45,3,6.65,6.65,0,0,1-3.66.89,9.32,9.32,0,0,1-2-.22c-.69-.14-1.36-.31-2-.5s-1.22-.39-1.75-.6a6.67,6.67,0,0,1-1.24-.63l-2.21,3.51a10.08,10.08,0,0,0,2.13,1.17c.83.34,1.71.65,2.62.93a19.16,19.16,0,0,0,2.64.6,15,15,0,0,0,2.23.2,18.14,18.14,0,0,0,3.7-.37,8.68,8.68,0,0,0,3.18-1.3,6.82,6.82,0,0,0,2.21-2.46,8,8,0,0,0,.82-3.79V108.68H73.39Z"/><path class="cls-1" d="M101,125.61a17,17,0,0,0-3.22-1.84c-1.16-.51-2.23-1-3.21-1.56a9.94,9.94,0,0,1-2.47-1.86,3.94,3.94,0,0,1-1-2.8,3.38,3.38,0,0,1,.35-1.45,4.35,4.35,0,0,1,1-1.36,5.49,5.49,0,0,1,1.39-1,4.33,4.33,0,0,1,1.64-.49,15.15,15.15,0,0,1,2.56,0,6.92,6.92,0,0,1,1.6.3,4.29,4.29,0,0,1,.93.44,4.81,4.81,0,0,0,.59.34,3.3,3.3,0,0,0,.26-.43l.52-1,.65-1.25c.22-.45.43-.86.6-1.23a8.91,8.91,0,0,0-3.29-1.2,23.1,23.1,0,0,0-4-.36,11.4,11.4,0,0,0-3.71.6,9.23,9.23,0,0,0-3.07,1.76A8.22,8.22,0,0,0,87,114a8.73,8.73,0,0,0-.79,3.77,7,7,0,0,0,1,3.89,10.26,10.26,0,0,0,2.51,2.71,19.82,19.82,0,0,0,3.24,2c1.16.56,2.23,1.12,3.23,1.69a10.55,10.55,0,0,1,2.49,1.88,3.53,3.53,0,0,1,1,2.51,4.6,4.6,0,0,1-1.41,3.66,6,6,0,0,1-4.05,1.24,10.42,10.42,0,0,1-1.86-.18,17.8,17.8,0,0,1-2-.45c-.67-.19-1.31-.39-1.93-.61a8.68,8.68,0,0,1-1.53-.67L86,139.12a6.78,6.78,0,0,0,1.75,1.1,12.34,12.34,0,0,0,2.15.72,17.25,17.25,0,0,0,2.23.36c.73.07,1.45.11,2.14.11a12,12,0,0,0,4.33-.73,9.57,9.57,0,0,0,3.2-2,8.92,8.92,0,0,0,2-2.86,8.18,8.18,0,0,0,.71-3.36,7.9,7.9,0,0,0-1-4.17A9.27,9.27,0,0,0,101,125.61Z"/><path class="cls-1" d="M58,46.3V33.63a3.17,3.17,0,0,1,3.16-3.16,3.17,3.17,0,0,0,0-6.34,9.52,9.52,0,0,0-9.5,9.5V46.3a6.34,6.34,0,0,1-6.33,6.33,3.17,3.17,0,0,0,0,6.34,6.34,6.34,0,0,1,6.33,6.33V78a9.52,9.52,0,0,0,9.5,9.5,3.17,3.17,0,1,0,0-6.33A3.17,3.17,0,0,1,58,78V65.3a12.6,12.6,0,0,0-4.38-9.5A12.58,12.58,0,0,0,58,46.3Z"/><path class="cls-1" d="M107.57,65.3V78a3.17,3.17,0,0,1-3.16,3.17,3.17,3.17,0,1,0,0,6.33,9.52,9.52,0,0,0,9.5-9.5V65.3A6.34,6.34,0,0,1,120.24,59a3.17,3.17,0,1,0,0-6.34,6.34,6.34,0,0,1-6.33-6.33V33.63a9.52,9.52,0,0,0-9.5-9.5,3.17,3.17,0,0,0,0,6.34,3.17,3.17,0,0,1,3.16,3.16V46.3A12.58,12.58,0,0,0,112,55.8,12.6,12.6,0,0,0,107.57,65.3Z"/><circle class="cls-1" cx="83.35" cy="44.72" r="4.75"/><path class="cls-1" d="M83.35,62.14a3.15,3.15,0,0,0-3.16,3.16v9.5a3.17,3.17,0,1,0,6.33,0V65.3A3.16,3.16,0,0,0,83.35,62.14Z"/><path class="cls-1" d="M153.17,153.17H12.42V12.42H153.17ZM165.59,0H0V165.59H165.59Z"/></g></g></svg>