<svg xmlns="http://www.w3.org/2000/svg" viewBox="0 0 165.59 165.59"><defs><style>.cls-1{fill:#a1a1a1;}</style></defs><g id="Capa_2" data-name="Capa 2"><g id="Textos"><path class="cls-1" d="M49.16,96a22.88,22.88,0,0,0,8.42-1.45l1.75,10.84c-2.61,1.17-7.55,2.14-13.18,2.14-15.31,0-25.1-9.3-25.1-24.23,0-13.84,9.5-25.18,27.14-25.18a34.22,34.22,0,0,1,11.24,1.84L57.11,70.88a20.14,20.14,0,0,0-8.24-1.44c-7.75,0-12.8,5.52-12.69,13.27C36.18,91.4,42,96,49.16,96"/><path class="cls-1" d="M80.1,107.49c-6.21,0-11.73-1.35-15.32-3.3L67.4,93.63a28.77,28.77,0,0,0,12.7,3.59c4.45,0,6.29-1.55,6.29-4s-1.44-3.59-7-5.43C69.61,84.52,65.84,79.21,66,73.58c0-8.82,7.55-15.51,19.28-15.51A31.5,31.5,0,0,1,98.58,60.8L96,71A22.93,22.93,0,0,0,85.7,68.25c-3.58,0-5.6,1.44-5.6,3.88,0,2.23,1.83,3.39,7.64,5.42,9,3.11,12.78,7.65,12.88,14.64,0,8.8-7,15.3-20.52,15.3"/><path class="cls-1" d="M122.16,107.49c-6.21,0-11.73-1.35-15.31-3.3l2.62-10.56a28.73,28.73,0,0,0,12.69,3.59c4.45,0,6.29-1.55,6.29-4s-1.46-3.59-7-5.43c-9.79-3.3-13.57-8.61-13.46-14.24,0-8.82,7.54-15.51,19.28-15.51a31.5,31.5,0,0,1,13.35,2.73L138,71a23,23,0,0,0-10.28-2.72c-3.58,0-5.6,1.44-5.6,3.88,0,2.23,1.83,3.39,7.64,5.42,9,3.11,12.78,7.65,12.88,14.64,0,8.8-7,15.3-20.52,15.3"/><path class="cls-1" d="M153.17,153.17H12.42V12.42H153.17ZM165.59,0H0V165.59H165.59Z"/></g></g></svg>