<svg xmlns="http://www.w3.org/2000/svg" viewBox="0 0 80.32 80.32"><defs><style>.cls-1{fill:#a1a1a1;}</style></defs><g id="Capa_2" data-name="Capa 2"><g id="Textos"><path class="cls-1" d="M0,80.32H80.32V0H0Zm75.35-5H5V5H75.35Z"/><path class="cls-1" d="M20.19,47.34,16.88,58.6c-.05.4-.21.52-.54.52H10.82c-.38,0-.49-.19-.38-.64,2.92-9.91,7.85-26.41,11.32-37.61a15.15,15.15,0,0,0,.43-3.56.35.35,0,0,1,.33-.39H30c.27,0,.33.06.44.32,4,13.27,8.39,27.9,12.51,41.3.11.39,0,.58-.33.58H36.55c-.28,0-.38-.12-.49-.39L32.59,47.34ZM31.13,41c-1.08-4.34-3.74-13.08-4.82-17.61h0C25.44,27.66,23.22,35,21.6,41Z"/><path class="cls-1" d="M51.31,44.9c.11,4.85,2.7,8.29,8.28,8.29a15.41,15.41,0,0,0,6.9-1.59c.17-.07.33,0,.33.31V57c0,.45-.11.57-.33.7-2.15,1.27-4.75,1.72-8.28,1.78-10.05,0-13.69-7.89-13.69-15.92,0-9.11,4.69-16.31,13-16.31,8.12,0,11.38,7.14,11.38,13.06,0,2.74-.28,4-.5,4.2-.66.32-2.76.38-5.8.38ZM60.14,40c2,0,2.38-.26,2.43-.51v-.7c0-1.91-1.1-6-5.35-6-3.59,0-5.47,3.18-5.91,7.26Z"/></g></g></svg>