<svg xmlns="http://www.w3.org/2000/svg" viewBox="0 0 80.37 65.39"><defs><style>.cls-1{fill:#a1a1a1;}</style></defs><g id="Capa_2" data-name="Capa 2"><g id="Imágenes"><path class="cls-1" d="M80.13,36.41a24.12,24.12,0,0,0-3.41-9.35,26.07,26.07,0,0,0-6-6.66h0L45.55,1l0-.05a5.3,5.3,0,0,0-3.2-1A5.73,5.73,0,0,0,39,1,3.34,3.34,0,0,0,37.4,3.57,3,3,0,0,0,38.62,6c1.62,1.28,3.24,2.59,4.86,3.89s3.19,2.58,4.8,3.86l-30.85,0c-3.53,0-5.94,1.65-6.43,4.43a4.42,4.42,0,0,0,1,3.57,4.75,4.75,0,0,0,3.72,1.69h2.35l9.77,0H31L3,44.15l-.12.08A7.14,7.14,0,0,0,0,48.84a4.6,4.6,0,0,0,.89,3.47,4.82,4.82,0,0,0,3.91,1.77,7.41,7.41,0,0,0,4.62-1.72L24.58,40a21.38,21.38,0,0,0-.13,2.14,20.16,20.16,0,0,0,.86,4.72,24.76,24.76,0,0,0,5.36,9.28A27.63,27.63,0,0,0,40,62.84a30.13,30.13,0,0,0,12.24,2.55h0a30.07,30.07,0,0,0,12.28-2.6,27.68,27.68,0,0,0,9.35-6.74,25.14,25.14,0,0,0,5.35-9.29,23.57,23.57,0,0,0,1-5.2,24,24,0,0,0-.17-5.15ZM52.58,52.76c-9.46,0-17.13-6.86-17.13-15.32s7.67-15.33,17.13-15.33S69.71,29,69.71,37.44,62,52.76,52.58,52.76Zm9.88-16.67a8.56,8.56,0,0,1-2.64,6.61,10.57,10.57,0,0,1-14.5,0,8.52,8.52,0,0,1-2.64-6.61,8.69,8.69,0,0,1,3.13-6.15,10.6,10.6,0,0,1,13.51,0,8.73,8.73,0,0,1,3.14,6.15Z"/></g></g></svg>