<svg xmlns="http://www.w3.org/2000/svg" viewBox="0 0 80.19 80.19"><defs><style>.cls-1{fill:#a1a1a1;}</style></defs><g id="Capa_2" data-name="Capa 2"><g id="Textos"><path class="cls-1" d="M75.32,75.32H4.87V4.87H75.32ZM80.19,0H0V80.19H80.19Z"/><path class="cls-1" d="M40.51,13c2.83,0,5.14-.71,5.16-1.58s-2.26-1.58-5.09-1.58-5.13.7-5.16,1.58S37.68,13,40.51,13m-.42,30.89a17.89,17.89,0,0,1-10.9-32.07c-7.15,8.08.85,25.49,5.46,26,5.75.36,7.93-17.81,14.68-20.14,5.07-1.9,8.9,5.69,6.59,14.24-2.35,7.27-8.35,11.88-15.83,12m-8.27-32.7a10.2,10.2,0,0,1,6.75-3c.51,0,1-.08,1.52-.08A17.87,17.87,0,0,1,53,13.59a6.69,6.69,0,0,0-2.32-.35c-9.91,0-13.27,19.57-16.24,19.5-2,.07-8.7-14.65-2.59-21.53m8.27-4.38a20.1,20.1,0,1,0,20.1,20.09A20.09,20.09,0,0,0,40.09,6.83"/><path class="cls-1" d="M16.81,52.63l-.12-.37c-.05-.13-.13-.47.34-.47h1.65c.27,0,.32.24.37.36l2.76,7.92s.21.7.38.7.41-.7.41-.7l2.69-7.92a.45.45,0,0,1,.47-.36h1.55c.43,0,.42.24.37.36l-.15.41L22.82,66.19c-.09.44-1.23.42-1.3,0Z"/><path class="cls-1" d="M55.48,66.6,50.62,52.14c0-.12-.07-.36.37-.37h1.8c.12,0,.29.06.37.37,0,0,3.12,9.43,3.23,9.74s.23.69.38.71.25-.26.36-.55,3.8-9.85,3.8-9.85a1.92,1.92,0,0,1,.13-.28.27.27,0,0,1,.24-.09h1.84c.46,0,.42.25.37.37L57,69.05,55.32,73a1.16,1.16,0,0,1-.14.26c0,.07-.1.11-.22.11H53.3a.57.57,0,0,1-.33-.11c-.07,0-.08-.14,0-.26Z"/><path class="cls-1" d="M26.89,60.31a1.32,1.32,0,0,1,.35-.9,1.3,1.3,0,0,1,.93-.38,1.28,1.28,0,1,1-.91,2.2,1.24,1.24,0,0,1-.37-.92"/><path class="cls-1" d="M35.59,54.24a3.18,3.18,0,0,0-.81.51,1,1,0,0,0-.22.19l-.19.18a3.11,3.11,0,0,0-.51.88,3.18,3.18,0,0,0-.26,1.28v8.81a.32.32,0,0,1-.36.37H31.77a.32.32,0,0,1-.37-.37V57.28a7,7,0,0,1,.08-1,4,4,0,0,1,.36-1.1A5.49,5.49,0,0,1,33,53.39a5.58,5.58,0,0,1,1.72-1.17,6,6,0,0,1,1.1-.33,5,5,0,0,1,.66-.11h.41a6,6,0,0,1,4.75,2.13.36.36,0,0,1-.09.61l-1.31.35a.74.74,0,0,1-.87-.17,4,4,0,0,0-3.8-.46"/><path class="cls-1" d="M48,64.26H44.11a2.16,2.16,0,0,1-2.2-2.2,2.2,2.2,0,0,1,.64-1.6,2.46,2.46,0,0,1,1.56-.61h3.53a.35.35,0,0,1,.36.3Zm1.76-9.12a5.48,5.48,0,0,0-1.17-1.75c-.49-.49-2.27-1.94-5.94-1.35-.36.14-.31.36,0,.71.15.14.76.82,1,1a1,1,0,0,0,.81.28A3.21,3.21,0,0,1,48,57.28v.11a.34.34,0,0,1-.36.26H44.11a4.26,4.26,0,0,0-1.69.35,4.41,4.41,0,0,0-1.41.94,4.27,4.27,0,0,0-1,1.39,4.34,4.34,0,0,0-.34,1.73,4.21,4.21,0,0,0,.34,1.68,4.51,4.51,0,0,0,1,1.42,4.44,4.44,0,0,0,1.41,1,4.1,4.1,0,0,0,1.69.35h5.73a.32.32,0,0,0,.36-.37V57.28a5.19,5.19,0,0,0-.44-2.14"/></g></g></svg>