<svg xmlns="http://www.w3.org/2000/svg" viewBox="0 0 80.19 80.19"><defs><style>.cls-1{fill:#a1a1a1;}</style></defs><g id="Capa_2" data-name="Capa 2"><g id="Imágenes"><path class="cls-1" d="M75.32,75.32H4.87V4.87H75.32ZM80.19,0H0V80.19H80.19Z"/><path class="cls-1" d="M37.56,50.55h0l0,0,0,0h-.07v.07l-.09-.07H19.69l-.15.05L24,60.94H48.7l-10-9.24,10,9.24.07.07L61.93,34.75Zm0,0h0Z"/><polygon class="cls-1" points="37.47 18.99 37.54 18.99 37.56 18.95 37.56 18.95 37.56 18.95 61.93 34.74 48.77 8.49 48.69 8.57 37.54 18.92 37.54 18.92 37.54 18.92 48.69 8.57 24.01 8.57 23.99 8.56 19.54 18.93 19.7 18.99 37.47 18.99"/><polygon class="cls-1" points="37.47 25.65 37.47 25.65 32.31 23.72 20.61 34.73 20.61 34.76 32.31 45.78 37.47 43.84 37.47 43.84 37.53 43.82 37.53 43.81 61.93 34.75 61.93 34.74 37.53 25.68 37.53 25.68 37.47 25.65"/><path class="cls-1" d="M29.19,65.12h2l.66,2.56.22,1h0l.21-1L33,65.12h2V73H33.36V71.12c0-.23,0-.53,0-.89s0-.73.07-1.11,0-.75.08-1.1.07-.65.09-.88h0l-.65,2.33-.41,1.41h-.89l-.41-1.41-.62-2.33h-.05c0,.23.05.52.08.88s.06.72.09,1.1,0,.76.06,1.11,0,.66,0,.89V73H29.18Z"/><path class="cls-1" d="M41.77,71.3H39.62L39.23,73H37.11l2.37-7.85H42L44.36,73h-2.2Zm-.37-1.61-.12-.54c-.09-.38-.18-.79-.28-1.23s-.19-.86-.29-1.26h-.05q-.13.61-.27,1.26c-.09.44-.19.85-.28,1.23l-.12.54Z"/><path class="cls-1" d="M48.05,68.93l-2.14-3.81h2.32l.63,1.28.28.59c.09.22.2.45.31.71h0c.09-.26.17-.5.26-.71L50,66.4l.55-1.28h2.22L50.66,69,52.93,73H50.61l-.73-1.4q-.16-.31-.3-.63c-.1-.21-.2-.44-.3-.68h-.05c-.09.24-.18.47-.27.68s-.18.42-.28.63L48,73H45.78Z"/></g></g></svg>