<svg xmlns="http://www.w3.org/2000/svg" viewBox="0 0 261.86 261.86"><defs><style>.cls-1{fill:#a1a1a1;}</style></defs><g id="Capa_2" data-name="Capa 2"><g id="Textos"><polygon class="cls-1" points="134.11 173.3 134.11 169.59 88.9 169.59 88.9 63.92 55.94 63.92 55.94 197.93 134.11 197.93 134.11 173.3"/><path class="cls-1" d="M147.31,197.93H177V149.57a37.14,37.14,0,0,1,.56-6.66c2-9.2,9.4-15.08,20.4-15.08a36.61,36.61,0,0,1,8,.85v-28a30.62,30.62,0,0,0-6.24-.39c-9.21,0-20.88,5.9-25.82,19.74h-.75l-1-17.65H146.56c.39,8.25.75,17.46.75,31.49Z"/><path class="cls-1" d="M0,261.86H261.86V0H0Zm245.67-16.2H16.2V16.19H245.67Z"/></g></g></svg>