<svg xmlns="http://www.w3.org/2000/svg" viewBox="0 0 79.88 79.87"><defs><style>.cls-1{fill:#a1a1a1;}</style></defs><g id="Capa_2" data-name="Capa 2"><g id="Imágenes"><path class="cls-1" d="M27.74,50.31H39l3,10.06h9.53L39.37,21.13H27.74l-12,39.24h9.2Zm5.4-22.55h.11c.58,2.34,4.44,15.9,4.44,15.9H29s3.55-13.56,4.14-15.9"/><rect class="cls-1" x="55" y="31.91" width="8.86" height="28.46"/><path class="cls-1" d="M59.38,28.41a4.46,4.46,0,1,0,.07-8.91A4.32,4.32,0,0,0,54.78,24a4.33,4.33,0,0,0,4.6,4.43"/><path class="cls-1" d="M0,79.87H79.88V0H0Zm74.93-4.94h-70v-70h70Z"/></g></g></svg>