<?xml version="1.0" encoding="utf-8"?>
<!-- Generator: Adobe Illustrator 25.0.1, SVG Export Plug-In . SVG Version: 6.00 Build 0)  -->
<svg version="1.1" id="Capa_1" xmlns="http://www.w3.org/2000/svg" xmlns:xlink="http://www.w3.org/1999/xlink" x="0px" y="0px"
	 viewBox="0 0 312.5 312.5" style="enable-background:new 0 0 312.5 312.5;" xml:space="preserve">
<style type="text/css">
	.st0{fill:#838383;}
</style>
<path class="st0" d="M82.8,98.2c1.5-1.5,2.2-3.4,2.2-5.3s-0.7-3.8-2.2-5.3c-2.9-2.9-7.7-2.9-10.6,0l-5.8,5.8
	c3.3-14.8,14.8-26.5,29.4-30.1l-5.6,5.6c-2.9,2.9-2.9,7.7,0,10.6s7.7,2.9,10.6,0L120.4,60c1.4-1.4,2.2-3.3,2.2-5.3s-0.8-3.9-2.2-5.3
	l-19.5-19.5c-2.9-2.9-7.7-2.9-10.6,0s-2.9,7.7,0,10.6l7.3,7.3C73.4,51.3,54.2,70.6,51,94.9l-7.2-7.2c-2.9-2.9-7.7-2.9-10.6,0
	s-2.9,7.7,0,10.6l19.5,19.5c1.4,1.4,3.3,2.2,5.3,2.2s3.9-0.8,5.3-2.2L82.8,98.2z"/>
<circle class="st0" cx="238.2" cy="252.8" r="8.4"/>
<path class="st0" d="M312.5,201.2V63.6c0-14.4-11.7-26.2-26.2-26.2H190c-14.4,0-26.2,11.8-26.2,26.2v72.3H26.2
	C11.7,135.8,0,147.6,0,162v96.3c0,14.4,11.8,26.2,26.2,26.2h137.6l0,0h18h8.2h6.5H221h65.4c14.4,0,26.2-11.7,26.2-26.2l0,0v-24.4
	v-14.7L312.5,201.2L312.5,201.2z M33.3,266.6h-7.1c-4.5,0-8.2-3.7-8.2-8.2V162c0-4.5,3.7-8.2,8.2-8.2h7.1V266.6z M51.3,266.6V153.8
	h112.5v47.4l0,0v18v14.7v24.4l0,0c0,2.9,0.5,5.6,1.3,8.2L51.3,266.6L51.3,266.6z M294.5,258.4c0,4.5-3.7,8.2-8.2,8.2H190
	c-4.5,0-8.2-3.7-8.2-8.2v-17h112.7V258.4z M294.5,210.2L294.5,210.2L294.5,210.2v13.1H181.8v-13.1l0,0l0,0V88.7h112.7V210.2z
	 M294.5,70.7H181.8v-7.1c0-4.5,3.7-8.2,8.2-8.2h96.3c4.5,0,8.2,3.7,8.2,8.2V70.7z"/>
</svg>
