<svg xmlns="http://www.w3.org/2000/svg" viewBox="0 0 439.43 727.59"><defs><style>.cls-1{fill:#178cc2;}.cls-2{fill:#f27b35;}.cls-3{fill:#8f5890;}.cls-4{fill:#b1da58;}.cls-5{fill:#e67e22;}</style></defs><g id="Capa_2" data-name="Capa 2"><g id="Formas"><path class="cls-1" d="M46.47,433.8A37.52,37.52,0,0,1,9,396.32V258.13A127.31,127.31,0,0,1,108.14,134a127.28,127.28,0,0,1,254.53,2.29V278.07h44.8a23,23,0,0,1,23,23v109.8a23,23,0,0,1-23,23Z"/><path class="cls-2" d="M235.4,18A118.27,118.27,0,0,1,353.67,136.28V287.07h53.8a14,14,0,0,1,14,14v109.8a14,14,0,0,1-14,14h-361A28.48,28.48,0,0,1,18,396.32V258.13a118.31,118.31,0,0,1,99.12-116.72v-5.13A118.27,118.27,0,0,1,235.4,18h0m0-18a136.28,136.28,0,0,0-136,126.92A136.31,136.31,0,0,0,0,258.13V396.32A46.53,46.53,0,0,0,46.47,442.8h361a32,32,0,0,0,32-32V301a32,32,0,0,0-32-32h-35.8V136.28A136.26,136.26,0,0,0,235.4,0Z"/><path class="cls-3" d="M235.4,18h0A118.28,118.28,0,0,1,353.67,136.28V424.8a0,0,0,0,1,0,0H117.12a0,0,0,0,1,0,0V136.28A118.28,118.28,0,0,1,235.4,18Z"/><path class="cls-4" d="M136.28,139.86h0A118.28,118.28,0,0,1,254.55,258.13V424.8a0,0,0,0,1,0,0H46.47A28.47,28.47,0,0,1,18,396.32V258.13A118.28,118.28,0,0,1,136.28,139.86Z"/><rect class="cls-1" x="197.19" y="287.07" width="224.25" height="137.73" rx="13.97"/><circle class="cls-5" cx="308.59" cy="352.77" r="18.7"/><path class="cls-3" d="M39.48,533H3.91V508.7h98.62V533H67V633.38H39.48Z"/><path class="cls-3" d="M179.31,633.38H154V621.76h-.35c-3.53,6.69-12.15,13.74-25,13.74-26.77,0-31.7-17.61-31.7-40.51V547.8h26.42v41.91c0,9.86.17,22.54,13.73,22.54,13.74,0,15.85-10.74,15.85-21.83V547.8h26.42Z"/><path class="cls-3" d="M256.26,568.93H233v28.53c0,9.16,1.06,15.85,12.5,15.85,2.82,0,8.45-.35,10.74-2.47v22c-5.81,2.11-12.32,2.64-18.49,2.64-17.61,0-31.17-7.22-31.17-25.89V568.93H189.7V547.8h16.9V522.44H233V547.8h23.24Z"/><path class="cls-3" d="M314,545.69c26.41,0,47.54,17.61,47.54,44.9S340.44,635.5,314,635.5s-47.55-17.61-47.55-44.91S287.61,545.69,314,545.69Zm0,66.56c13.2,0,21.13-8.8,21.13-21.66s-7.93-21.66-21.13-21.66-21.14,8.81-21.14,21.66S300.82,612.25,314,612.25Z"/><path class="cls-3" d="M377.07,547.8h26.42v13.73h.35c5.63-10.39,13-15.84,24.65-15.84a34.51,34.51,0,0,1,8.81.88v24.12A41,41,0,0,0,426,568.93c-20.08,0-22.54,11.62-22.54,28.71v35.74H377.07Z"/><path class="cls-2" d="M64.25,714.87C57,724.18,48.38,727.59,37,727.59c-19.28,0-31.09-14.43-31.09-32.27,0-19,13.38-32.26,31.48-32.26,17.31,0,29.12,11.8,29.12,32.13v3.28H16.9c.79,10.62,8.92,19.67,20.07,19.67,8.78,0,14.69-3.14,19.54-9.31Zm-8.79-25.06C55.07,679.45,48.25,672.5,37,672.5s-18.76,7-20.07,17.31Z"/><path class="cls-2" d="M82.35,679.19c0-5.64-.52-10.49-.52-14.56h9.7c0,3.28.27,6.69.27,10.1h.26c2.75-6,10.36-11.67,20.46-11.67,16.13,0,23.35,10.23,23.35,25.05V726H125.64V689.16c0-10.23-4.46-16.66-14-16.66-13.25,0-19,9.57-19,23.61V726H82.35Z"/><path class="cls-2" d="M235.43,680c-4.33-5.25-9.32-7.48-15.48-7.48-13.77,0-20.72,10.23-20.72,22.82s8.26,22.82,20.72,22.82c6.69,0,11.8-2.36,15.61-7.6l7.61,7.21c-5.91,6.82-14.3,9.84-23.22,9.84-19,0-31.74-13.38-31.74-32.27,0-18.62,12.85-32.26,31.74-32.26,9.05,0,17.44,3,23.61,9.7Z"/><path class="cls-2" d="M254.19,672.5c6.29-6.43,15.47-9.44,24.39-9.44,18.1,0,25.71,8.65,25.71,26v26.36a67.4,67.4,0,0,0,.92,10.62h-9.84a44.23,44.23,0,0,1-.65-9.18h-.27a23.18,23.18,0,0,1-20.2,10.76c-12.46,0-22.82-6.3-22.82-18.23,0-20.33,23.61-21.51,38.69-21.51h3.94V686c0-8.92-5.64-13.51-15.22-13.51a27.25,27.25,0,0,0-18.23,6.69Zm29.64,24c-13,0-21.38,3.54-21.38,11.81,0,7.74,5.77,10.62,13.51,10.62,11.8,0,17.84-8.52,18.1-18.49V696.5Z"/><path class="cls-2" d="M324.36,709.88c4.07,5,8.53,8.26,15.74,8.26,6.43,0,13.51-2.75,13.51-9.44s-6.56-8.26-13.12-9.71c-11.67-2.62-21.64-5.11-21.64-17.83,0-11.94,11.54-18.1,23-18.1,8.65,0,16.65,3.27,20.85,11.14l-8.52,5.64a14.65,14.65,0,0,0-13-7.34c-5.64,0-12.07,2.75-12.07,8.52,0,5.12,7.35,7.35,15.48,8.92,10.89,2.1,20.07,6,20.07,18.37,0,13.9-12.33,19.28-24.53,19.28-10.36,0-17.84-2.76-23.87-11.41Z"/><path class="cls-2" d="M378.14,672.5c6.3-6.43,15.48-9.44,24.4-9.44,18.1,0,25.71,8.65,25.71,26v26.36a68.64,68.64,0,0,0,.91,10.62h-9.83a43.57,43.57,0,0,1-.66-9.18h-.26a23.21,23.21,0,0,1-20.2,10.76c-12.46,0-22.82-6.3-22.82-18.23,0-20.33,23.61-21.51,38.69-21.51H418V686c0-8.92-5.64-13.51-15.21-13.51a27.21,27.21,0,0,0-18.23,6.69Zm29.64,24c-13,0-21.38,3.54-21.38,11.81,0,7.74,5.78,10.62,13.51,10.62,11.81,0,17.84-8.52,18.1-18.49V696.5Z"/></g></g></svg>